<svg width="480" height="361" viewBox="0 0 480 361" fill="none" xmlns="http://www.w3.org/2000/svg">
<path opacity="0.2" d="M84.5726 26.7935H172.293C175.863 26.7935 178.731 29.6855 178.731 33.2525V100.11C178.731 103.68 175.842 106.548 172.293 106.548H84.5726C81.0056 106.548 78.1136 103.659 78.1136 100.11V33.2525C78.1376 29.6855 81.0056 26.7935 84.5726 26.7935Z" fill="#BE94AA"/>
<path d="M81.3866 23.6074H169.107C172.677 23.6074 175.545 26.4964 175.545 30.0664V96.9244C175.545 100.491 172.656 103.359 169.107 103.359H81.3866C77.8166 103.359 74.9276 100.47 74.9276 96.9244V30.0664C74.9486 26.4964 77.8166 23.6074 81.3866 23.6074Z" fill="#FAC7E1"/>
<path d="M103.332 88.5962H112.596C114.231 88.5962 115.569 89.9342 115.569 91.5692V91.6982C115.569 93.3332 114.231 94.6712 112.596 94.6712H103.332C101.697 94.6712 100.359 93.3332 100.359 91.6982V91.5692C100.359 89.9132 101.697 88.5962 103.332 88.5962Z" fill="#FAC7E1"/>
<path d="M123.558 88.5962H141.51C143.145 88.5962 144.483 89.9342 144.483 91.5692V91.6982C144.483 93.3332 143.145 94.6712 141.51 94.6712H123.558C121.923 94.6712 120.585 93.3332 120.585 91.6982V91.5692C120.585 89.9132 121.902 88.5962 123.558 88.5962Z" fill="#FAC7E1"/>
<path d="M81.3866 23.6074H93.4106V103.359H81.3866C77.8166 103.359 74.9276 100.47 74.9276 96.9244V30.0664C74.9276 26.4964 77.8166 23.6074 81.3866 23.6074Z" fill="#FAC7E1"/>
<path opacity="0.2" d="M81.3866 23.6074H93.4106V103.359H81.3866C77.8166 103.359 74.9276 100.47 74.9276 96.9244V30.0664C74.9276 26.4964 77.8166 23.6074 81.3866 23.6074Z" fill="#F3EBE9"/>
<path d="M175.545 41.8774H93.6237" stroke="#F3EBE9" stroke-width="4" stroke-linejoin="round"/>
<path d="M175.545 56.2173H93.6237" stroke="#F3EBE9" stroke-width="4" stroke-linejoin="round"/>
<path d="M175.545 70.7705H93.6237" stroke="#F3EBE9" stroke-width="4" stroke-linejoin="round"/>
<path d="M175.545 84.4536H93.6237" stroke="#F3EBE9" stroke-width="4" stroke-linejoin="round"/>
<path d="M93.4106 23.6074V103.359" stroke="#F3EBE9" stroke-width="4" stroke-linejoin="round"/>
<path d="M82.1096 34.9116H86.2317" stroke="#F3EBE9" stroke-width="4" stroke-linecap="round" stroke-linejoin="round"/>
<path d="M82.1096 49.0386H86.2317" stroke="#F3EBE9" stroke-width="4" stroke-linecap="round" stroke-linejoin="round"/>
<path d="M82.1096 63.1655H86.2317" stroke="#F3EBE9" stroke-width="4" stroke-linecap="round" stroke-linejoin="round"/>
<path d="M82.1096 77.5054H86.2317" stroke="#F3EBE9" stroke-width="4" stroke-linecap="round" stroke-linejoin="round"/>
<path d="M82.1096 91.6323H86.2317" stroke="#F3EBE9" stroke-width="4" stroke-linecap="round" stroke-linejoin="round"/>
<path d="M478.414 132.607H377.928V250.18H478.414V132.607Z" fill="#F3EBE9"/>
<path d="M397.189 154.38H417.956C419.696 154.38 421.137 155.821 421.137 157.561C421.137 159.302 419.696 160.743 417.956 160.743H397.189C395.444 160.743 394.003 159.302 394.003 157.561C394.003 155.821 395.444 154.38 397.189 154.38Z" fill="#FAC7E1"/>
<path d="M430.682 154.38H438.051C439.796 154.38 441.237 155.821 441.237 157.561C441.237 159.302 439.796 160.743 438.051 160.743H430.682C428.942 160.743 427.5 159.302 427.5 157.561C427.5 155.821 428.942 154.38 430.682 154.38Z" fill="#ED3996"/>
<path d="M450.447 154.38H457.816C459.556 154.38 460.997 155.821 460.997 157.561C460.997 159.302 459.556 160.743 457.816 160.743H450.447C448.706 160.743 447.265 159.302 447.265 157.561C447.265 155.821 448.706 154.38 450.447 154.38Z" fill="#FAC7E1"/>
<path d="M397.189 205.126H417.956C419.696 205.126 421.137 206.568 421.137 208.308C421.137 210.053 419.696 211.49 417.956 211.49H397.189C395.444 211.49 394.003 210.053 394.003 208.308C394.003 206.568 395.444 205.126 397.189 205.126Z" fill="#FAC7E1"/>
<path d="M430.682 205.126H457.816C459.556 205.126 460.997 206.568 460.997 208.308C460.997 210.053 459.556 211.49 457.816 211.49H430.682C428.942 211.49 427.5 210.053 427.5 208.308C427.5 206.568 428.942 205.126 430.682 205.126Z" fill="white"/>
<path d="M397.189 188.212H429.345C431.085 188.212 432.526 189.654 432.526 191.394C432.526 193.134 431.085 194.576 429.345 194.576H397.189C395.444 194.576 394.003 193.134 394.003 191.394C394.003 189.654 395.444 188.212 397.189 188.212Z" fill="#ED3996"/>
<path d="M417.285 171.294H438.051C439.796 171.294 441.237 172.736 441.237 174.481C441.237 176.221 439.796 177.662 438.051 177.662H417.285C415.544 177.662 414.103 176.221 414.103 174.481C414.103 172.736 415.544 171.294 417.285 171.294Z" fill="white"/>
<path d="M397.189 171.294H404.559C406.299 171.294 407.74 172.736 407.74 174.481C407.74 176.221 406.299 177.662 404.559 177.662H397.189C395.444 177.662 394.003 176.221 394.003 174.481C394.003 172.736 395.444 171.294 397.189 171.294Z" fill="#D51477"/>
<path d="M450.447 171.294H457.816C459.556 171.294 460.997 172.736 460.997 174.481C460.997 176.221 459.556 177.662 457.816 177.662H450.447C448.706 177.662 447.265 176.221 447.265 174.481C447.265 172.736 448.706 171.294 450.447 171.294Z" fill="white"/>
<path d="M417.285 222.045H457.816C459.556 222.045 460.997 223.482 460.997 225.227C460.997 226.967 459.556 228.409 457.816 228.409H417.285C415.544 228.409 414.103 226.967 414.103 225.227C414.103 223.482 415.544 222.045 417.285 222.045Z" fill="#FAC7E1"/>
<path d="M397.189 222.045H404.559C406.299 222.045 407.74 223.482 407.74 225.227C407.74 226.967 406.299 228.409 404.559 228.409H397.189C395.444 228.409 394.003 226.967 394.003 225.227C394.003 223.482 395.444 222.045 397.189 222.045Z" fill="#ED3996"/>
<path d="M142.541 189.303H17.3321C8.85374 189.303 2 196.156 2 204.635V322.272C2 330.754 8.85374 337.607 17.3321 337.607H142.541C151.022 337.607 157.876 330.754 157.876 322.272V204.635C157.876 196.184 150.992 189.303 142.541 189.303Z" fill="#D5D5D5"/>
<path d="M18.6554 216.142C22.1382 216.142 24.9575 213.323 24.9575 209.84C24.9575 206.357 22.1382 203.535 18.6554 203.535C15.1761 203.535 12.35 206.357 12.35 209.84C12.35 213.323 15.1761 216.142 18.6554 216.142Z" fill="white"/>
<path d="M36.9625 216.142C40.4452 216.142 43.2679 213.323 43.2679 209.84C43.2679 206.357 40.4452 203.535 36.9625 203.535C33.4832 203.535 30.6571 206.357 30.6571 209.84C30.6571 213.323 33.4832 216.142 36.9625 216.142Z" fill="white"/>
<path d="M55.2967 216.142C58.7794 216.142 61.6021 213.323 61.6021 209.84C61.6021 206.357 58.7794 203.535 55.2967 203.535C51.8174 203.535 48.9946 206.357 48.9946 209.84C48.9946 213.323 51.8174 216.142 55.2967 216.142Z" fill="white"/>
<path d="M35.7204 238.119H71.5358C73.8136 238.119 75.6684 239.973 75.6684 242.251C75.6684 244.526 73.8136 246.384 71.5358 246.384H35.7204C33.4426 246.384 31.5878 244.526 31.5878 242.251C31.5878 239.973 33.4426 238.119 35.7204 238.119Z" fill="#ED3996"/>
<path d="M35.7204 255.196H56.6607C58.9385 255.196 60.7932 257.054 60.7932 259.332C60.7932 261.607 58.9385 263.465 56.6607 263.465H35.7204C33.4426 263.465 31.5878 261.607 31.5878 259.332C31.5878 257.054 33.4426 255.196 35.7204 255.196Z" fill="#BE94AA"/>
<path d="M70.4358 255.196H77.0459C79.3237 255.196 81.1784 257.054 81.1784 259.332C81.1784 261.607 79.3237 263.465 77.0459 263.465H70.4358C68.158 263.465 66.3033 261.607 66.3033 259.332C66.3033 257.054 68.158 255.196 70.4358 255.196Z" fill="white"/>
<path d="M35.7204 272.279H40.8649C43.1393 272.279 44.9975 274.137 44.9975 276.412C44.9975 278.69 43.1393 280.548 40.8649 280.548H35.7204C33.4426 280.548 31.5878 278.69 31.5878 276.412C31.5878 274.137 33.4426 272.279 35.7204 272.279Z" fill="#BE94AA"/>
<path d="M54.6401 272.279H85.4971C87.7749 272.279 89.6296 274.137 89.6296 276.412C89.6296 278.69 87.7749 280.548 85.4971 280.548H54.6401C52.3622 280.548 50.5075 278.69 50.5075 276.412C50.5075 274.137 52.3622 272.279 54.6401 272.279Z" fill="white"/>
<path d="M99.2723 272.279H125.719C127.997 272.279 129.855 274.137 129.855 276.412C129.855 278.69 127.997 280.548 125.719 280.548H99.2723C96.9944 280.548 95.1397 278.69 95.1397 276.412C95.1397 274.137 96.9944 272.279 99.2723 272.279Z" fill="#BE94AA"/>
<path d="M35.7204 289.361H52.2506C54.5284 289.361 56.3831 291.219 56.3831 293.493C56.3831 295.771 54.5284 297.626 52.2506 297.626H35.7204C33.4426 297.626 31.5878 295.771 31.5878 293.493C31.5878 291.219 33.4426 289.361 35.7204 289.361Z" fill="white"/>
<path d="M66.0257 289.361H69.7014C71.9792 289.361 73.8339 291.219 73.8339 293.493C73.8339 295.771 71.9792 297.626 69.7014 297.626H66.0257C63.7479 297.626 61.8932 295.771 61.8932 293.493C61.8932 291.219 63.7479 289.361 66.0257 289.361Z" fill="#BE94AA"/>
<path d="M83.4766 289.361H105.334C107.612 289.361 109.467 291.219 109.467 293.493C109.467 295.771 107.612 297.626 105.334 297.626H83.4766C81.1987 297.626 79.344 295.771 79.344 293.493C79.344 291.219 81.1987 289.361 83.4766 289.361Z" fill="#ED3996"/>
<path d="M342.528 70.6074H164.123C152.043 70.6074 142.277 80.373 142.277 92.4535V260.07C142.277 272.155 152.043 281.921 164.123 281.921H342.528C354.613 281.921 364.379 272.155 364.379 260.07V92.4535C364.379 80.4116 354.57 70.6074 342.528 70.6074Z" fill="white"/>
<path d="M164.523 105.562C168.473 105.562 171.67 102.364 171.67 98.4138C171.67 94.4637 168.473 91.2622 164.523 91.2622C160.576 91.2622 157.371 94.4637 157.371 98.4138C157.371 102.364 160.576 105.562 164.523 105.562Z" fill="#D5D5D5"/>
<path d="M184.381 105.562C188.33 105.562 191.531 102.364 191.531 98.4138C191.531 94.4637 188.33 91.2622 184.381 91.2622C180.436 91.2622 177.231 94.4637 177.231 98.4138C177.231 102.364 180.436 105.562 184.381 105.562Z" fill="#D5D5D5"/>
<path d="M205.034 105.562C208.984 105.562 212.185 102.364 212.185 98.4138C212.185 94.4637 208.984 91.2622 205.034 91.2622C201.088 91.2622 197.886 94.4637 197.886 98.4138C197.886 102.364 201.088 105.562 205.034 105.562Z" fill="#D5D5D5"/>
<g filter="url(#filter0_d_165_440)">
<rect x="164.928" y="200.607" width="176" height="43" rx="21.5" fill="#ED3996" shape-rendering="crispEdges"/>
<path d="M187.515 216.587V215.007H189.555V216.587H187.515ZM187.515 223.687V222.107H189.555V223.687H187.515ZM191.675 219.947V218.747H193.495V219.947H191.675ZM193.495 218.747H191.675C191.675 218.054 191.481 217.521 191.095 217.147C190.721 216.774 190.201 216.587 189.535 216.587V215.007C190.321 215.007 191.008 215.167 191.595 215.487C192.195 215.794 192.661 216.234 192.995 216.807C193.328 217.367 193.495 218.014 193.495 218.747ZM193.495 219.927C193.495 220.674 193.328 221.327 192.995 221.887C192.661 222.447 192.195 222.887 191.595 223.207C191.008 223.527 190.321 223.687 189.535 223.687V222.107C190.201 222.107 190.721 221.914 191.095 221.527C191.481 221.141 191.675 220.607 191.675 219.927H193.495ZM186.335 229.107V215.007H188.155V229.107H186.335ZM195.5 229.107V219.007H197.32V229.107H195.5ZM196.4 217.667C196.066 217.667 195.786 217.554 195.56 217.327C195.333 217.101 195.22 216.821 195.22 216.487C195.22 216.154 195.333 215.874 195.56 215.647C195.786 215.407 196.066 215.287 196.4 215.287C196.733 215.287 197.013 215.407 197.24 215.647C197.48 215.874 197.6 216.154 197.6 216.487C197.6 216.821 197.48 217.101 197.24 217.327C197.013 217.554 196.733 217.667 196.4 217.667ZM205.008 229.107L201.428 223.527L203.168 222.947L206.908 229.107H205.008ZM201.488 225.507L200.088 224.567L204.468 219.007H206.668L201.488 225.507ZM199.928 229.107V214.707H201.748V229.107H199.928ZM208.542 229.107V219.007H210.362V229.107H208.542ZM209.542 222.447C209.542 221.754 209.662 221.127 209.902 220.567C210.155 220.007 210.495 219.574 210.922 219.267C211.348 218.947 211.828 218.787 212.362 218.787L211.962 220.487C211.495 220.487 211.108 220.674 210.802 221.047C210.508 221.407 210.362 221.874 210.362 222.447H209.542ZM213.242 221.027C213.042 220.854 212.828 220.721 212.602 220.627C212.388 220.534 212.175 220.487 211.962 220.487L212.362 218.787C212.668 218.787 212.955 218.841 213.222 218.947C213.488 219.041 213.755 219.214 214.022 219.467L213.242 221.027ZM215.145 224.607V223.307H221.965V224.607H215.145ZM218.245 229.427V227.847H218.345V229.427H218.245ZM214.565 225.527V222.587H216.385V225.527H214.565ZM220.145 223.307V222.267H221.965V223.307H220.145ZM221.965 222.267H220.145C220.145 221.681 219.965 221.201 219.605 220.827C219.258 220.454 218.805 220.267 218.245 220.267V218.707C218.965 218.707 219.598 218.861 220.145 219.167C220.705 219.474 221.145 219.901 221.465 220.447C221.798 220.981 221.965 221.587 221.965 222.267ZM220.225 226.107L221.925 226.447C221.845 227.021 221.638 227.534 221.305 227.987C220.972 228.441 220.552 228.794 220.045 229.047C219.538 229.301 218.972 229.427 218.345 229.427V227.847C218.825 227.847 219.238 227.707 219.585 227.427C219.945 227.134 220.158 226.694 220.225 226.107ZM214.565 222.607C214.565 221.847 214.725 221.181 215.045 220.607C215.378 220.021 215.818 219.561 216.365 219.227C216.925 218.881 217.558 218.707 218.265 218.707V220.267C217.678 220.267 217.218 220.474 216.885 220.887C216.552 221.287 216.385 221.861 216.385 222.607H214.565ZM214.565 225.527H216.385C216.385 226.261 216.552 226.834 216.885 227.247C217.218 227.647 217.678 227.847 218.265 227.847V229.427C217.558 229.427 216.925 229.261 216.365 228.927C215.818 228.581 215.378 228.114 215.045 227.527C214.725 226.941 214.565 226.274 214.565 225.527ZM228.703 229.107L222.883 219.007H224.823L230.643 229.107H228.703ZM222.883 229.107L225.803 224.047H227.723L224.823 229.107H222.883ZM225.803 224.047L228.703 219.007H230.643L227.723 224.047H225.803ZM235.417 216.587V215.007H243.717V216.587H235.417ZM238.657 229.107V215.007H240.477V229.107H238.657ZM244.421 229.107V219.007H246.241V229.107H244.421ZM245.421 222.447C245.421 221.754 245.541 221.127 245.781 220.567C246.034 220.007 246.374 219.574 246.801 219.267C247.227 218.947 247.707 218.787 248.241 218.787L247.841 220.487C247.374 220.487 246.987 220.674 246.681 221.047C246.387 221.407 246.241 221.874 246.241 222.447H245.421ZM249.121 221.027C248.921 220.854 248.707 220.721 248.481 220.627C248.267 220.534 248.054 220.487 247.841 220.487L248.241 218.787C248.547 218.787 248.834 218.841 249.101 218.947C249.367 219.041 249.634 219.214 249.901 219.467L249.121 221.027ZM256.344 229.107V222.227H258.164V229.107H256.344ZM253.904 229.407L254.044 227.907C254.524 227.907 254.931 227.787 255.264 227.547C255.611 227.307 255.877 226.954 256.064 226.487C256.251 226.021 256.344 225.467 256.344 224.827L257.244 224.787C257.244 225.694 257.097 226.494 256.804 227.187C256.511 227.881 256.111 228.427 255.604 228.827C255.111 229.214 254.544 229.407 253.904 229.407ZM253.904 229.407C253.304 229.407 252.757 229.267 252.264 228.987C251.771 228.707 251.377 228.327 251.084 227.847C250.791 227.354 250.644 226.807 250.644 226.207L252.364 226.147C252.364 226.654 252.531 227.074 252.864 227.407C253.211 227.741 253.604 227.907 254.044 227.907L253.904 229.407ZM250.644 226.207C250.644 225.581 250.797 225.034 251.104 224.567C251.424 224.087 251.851 223.707 252.384 223.427C252.917 223.147 253.524 223.007 254.204 223.007L254.304 224.407C253.744 224.407 253.277 224.574 252.904 224.907C252.544 225.227 252.364 225.641 252.364 226.147L250.644 226.207ZM254.304 224.407L254.204 223.007H257.284V224.407H254.304ZM256.344 224.827V222.247H257.244V224.787L256.344 224.827ZM258.164 222.267H256.344C256.344 221.681 256.164 221.201 255.804 220.827C255.457 220.454 255.004 220.267 254.444 220.267V218.707C255.164 218.707 255.797 218.861 256.344 219.167C256.904 219.474 257.344 219.901 257.664 220.447C257.997 220.981 258.164 221.587 258.164 222.267ZM252.564 222.027L250.884 221.687C250.964 221.087 251.164 220.567 251.484 220.127C251.817 219.687 252.237 219.341 252.744 219.087C253.264 218.834 253.837 218.707 254.464 218.707V220.267C253.971 220.267 253.544 220.414 253.184 220.707C252.837 220.987 252.631 221.427 252.564 222.027ZM260.202 229.107V219.007H262.022V229.107H260.202ZM265.822 229.107V222.227H267.642V229.107H265.822ZM265.822 222.227C265.822 221.667 265.649 221.214 265.302 220.867C264.955 220.507 264.509 220.327 263.962 220.327L264.422 218.707C265.035 218.707 265.582 218.861 266.062 219.167C266.555 219.474 266.942 219.894 267.222 220.427C267.502 220.961 267.642 221.561 267.642 222.227H265.822ZM261.222 222.267C261.222 221.587 261.362 220.981 261.642 220.447C261.922 219.901 262.302 219.474 262.782 219.167C263.262 218.861 263.809 218.707 264.422 218.707L263.962 220.327C263.389 220.327 262.922 220.507 262.562 220.867C262.202 221.227 262.022 221.694 262.022 222.267H261.222ZM274.591 226.507C274.591 226.174 274.471 225.901 274.231 225.687C273.991 225.461 273.678 225.261 273.291 225.087C272.918 224.901 272.518 224.714 272.091 224.527C271.678 224.341 271.278 224.127 270.891 223.887C270.518 223.634 270.211 223.321 269.971 222.947C269.731 222.561 269.611 222.094 269.611 221.547C269.611 221.547 269.665 221.547 269.771 221.547C269.891 221.547 270.038 221.547 270.211 221.547C270.398 221.547 270.578 221.547 270.751 221.547C270.925 221.547 271.071 221.547 271.191 221.547C271.311 221.547 271.371 221.547 271.371 221.547C271.371 221.881 271.491 222.161 271.731 222.387C271.971 222.601 272.278 222.794 272.651 222.967C273.038 223.141 273.445 223.327 273.871 223.527C274.298 223.714 274.698 223.934 275.071 224.187C275.445 224.441 275.751 224.754 275.991 225.127C276.245 225.487 276.371 225.947 276.371 226.507C276.371 226.507 276.311 226.507 276.191 226.507C276.071 226.507 275.918 226.507 275.731 226.507C275.558 226.507 275.385 226.507 275.211 226.507C275.038 226.507 274.891 226.507 274.771 226.507C274.651 226.507 274.591 226.507 274.591 226.507ZM272.891 229.407V227.827C273.385 227.827 273.791 227.707 274.111 227.467C274.431 227.214 274.591 226.894 274.591 226.507H276.371C276.371 227.067 276.218 227.567 275.911 228.007C275.618 228.447 275.211 228.794 274.691 229.047C274.171 229.287 273.571 229.407 272.891 229.407ZM269.611 221.547C269.611 221.001 269.745 220.514 270.011 220.087C270.291 219.647 270.678 219.307 271.171 219.067C271.665 218.814 272.211 218.687 272.811 218.687V220.267C272.398 220.267 272.051 220.387 271.771 220.627C271.505 220.867 271.371 221.174 271.371 221.547H269.611ZM270.991 226.087C271.058 226.674 271.271 227.114 271.631 227.407C271.991 227.687 272.411 227.827 272.891 227.827V229.407C272.278 229.407 271.711 229.281 271.191 229.027C270.671 228.774 270.245 228.421 269.911 227.967C269.591 227.514 269.391 227.001 269.311 226.427L270.991 226.087ZM274.691 222.007C274.625 221.407 274.411 220.967 274.051 220.687C273.705 220.407 273.291 220.267 272.811 220.267V218.687C273.438 218.687 274.005 218.814 274.511 219.067C275.018 219.321 275.438 219.674 275.771 220.127C276.105 220.567 276.311 221.081 276.391 221.667L274.691 222.007ZM278.429 229.107V214.707H280.249V229.107H278.429ZM288.2 229.107V222.227H290.02V229.107H288.2ZM285.76 229.407L285.9 227.907C286.38 227.907 286.786 227.787 287.12 227.547C287.466 227.307 287.733 226.954 287.92 226.487C288.106 226.021 288.2 225.467 288.2 224.827L289.1 224.787C289.1 225.694 288.953 226.494 288.66 227.187C288.366 227.881 287.966 228.427 287.46 228.827C286.966 229.214 286.4 229.407 285.76 229.407ZM285.76 229.407C285.16 229.407 284.613 229.267 284.12 228.987C283.626 228.707 283.233 228.327 282.94 227.847C282.646 227.354 282.5 226.807 282.5 226.207L284.22 226.147C284.22 226.654 284.386 227.074 284.72 227.407C285.066 227.741 285.46 227.907 285.9 227.907L285.76 229.407ZM282.5 226.207C282.5 225.581 282.653 225.034 282.96 224.567C283.28 224.087 283.706 223.707 284.24 223.427C284.773 223.147 285.38 223.007 286.06 223.007L286.16 224.407C285.6 224.407 285.133 224.574 284.76 224.907C284.4 225.227 284.22 225.641 284.22 226.147L282.5 226.207ZM286.16 224.407L286.06 223.007H289.14V224.407H286.16ZM288.2 224.827V222.247H289.1V224.787L288.2 224.827ZM290.02 222.267H288.2C288.2 221.681 288.02 221.201 287.66 220.827C287.313 220.454 286.86 220.267 286.3 220.267V218.707C287.02 218.707 287.653 218.861 288.2 219.167C288.76 219.474 289.2 219.901 289.52 220.447C289.853 220.981 290.02 221.587 290.02 222.267ZM284.42 222.027L282.74 221.687C282.82 221.087 283.02 220.567 283.34 220.127C283.673 219.687 284.093 219.341 284.6 219.087C285.12 218.834 285.693 218.707 286.32 218.707V220.267C285.826 220.267 285.4 220.414 285.04 220.707C284.693 220.987 284.486 221.427 284.42 222.027ZM292.717 226.047V214.987L294.537 215.007V226.047H292.717ZM291.557 220.507V219.007H297.057V220.507H291.557ZM292.717 226.027H294.537C294.537 226.414 294.591 226.741 294.697 227.007C294.804 227.274 294.957 227.481 295.157 227.627C295.357 227.761 295.597 227.827 295.877 227.827L295.717 229.407C294.784 229.407 294.051 229.114 293.517 228.527C292.984 227.927 292.717 227.094 292.717 226.027ZM296.817 227.487L297.537 228.787C297.271 228.987 296.977 229.141 296.657 229.247C296.351 229.354 296.037 229.407 295.717 229.407L295.877 227.827C296.051 227.827 296.211 227.801 296.357 227.747C296.517 227.681 296.671 227.594 296.817 227.487ZM299.23 229.107V219.007H301.05V229.107H299.23ZM300.13 217.667C299.797 217.667 299.517 217.554 299.29 217.327C299.063 217.101 298.95 216.821 298.95 216.487C298.95 216.154 299.063 215.874 299.29 215.647C299.517 215.407 299.797 215.287 300.13 215.287C300.463 215.287 300.743 215.407 300.97 215.647C301.21 215.874 301.33 216.154 301.33 216.487C301.33 216.821 301.21 217.101 300.97 217.327C300.743 217.554 300.463 217.667 300.13 217.667ZM308.72 225.527V222.587H310.54V225.527H308.72ZM303.1 225.527V222.587H304.92V225.527H303.1ZM306.76 220.287V218.707H306.88V220.287H306.76ZM306.76 229.407V227.827H306.88V229.407H306.76ZM303.1 222.607C303.1 221.861 303.26 221.194 303.58 220.607C303.914 220.021 304.354 219.561 304.9 219.227C305.46 218.881 306.094 218.707 306.8 218.707V220.287C306.214 220.287 305.754 220.487 305.42 220.887C305.087 221.287 304.92 221.861 304.92 222.607H303.1ZM310.54 222.607H308.72C308.72 221.861 308.554 221.287 308.22 220.887C307.9 220.487 307.44 220.287 306.84 220.287V218.707C307.547 218.707 308.174 218.881 308.72 219.227C309.28 219.561 309.72 220.021 310.04 220.607C310.374 221.194 310.54 221.861 310.54 222.607ZM303.1 225.507H304.92C304.92 226.241 305.087 226.814 305.42 227.227C305.754 227.627 306.214 227.827 306.8 227.827V229.407C306.094 229.407 305.46 229.241 304.9 228.907C304.354 228.561 303.914 228.094 303.58 227.507C303.26 226.921 303.1 226.254 303.1 225.507ZM310.54 225.507C310.54 226.254 310.374 226.921 310.04 227.507C309.72 228.094 309.28 228.561 308.72 228.907C308.174 229.241 307.547 229.407 306.84 229.407V227.827C307.44 227.827 307.9 227.627 308.22 227.227C308.554 226.814 308.72 226.241 308.72 225.507H310.54ZM312.389 229.107V219.007H314.209V229.107H312.389ZM318.009 229.107V222.227H319.829V229.107H318.009ZM318.009 222.227C318.009 221.667 317.836 221.214 317.489 220.867C317.143 220.507 316.696 220.327 316.149 220.327L316.609 218.707C317.223 218.707 317.769 218.861 318.249 219.167C318.743 219.474 319.129 219.894 319.409 220.427C319.689 220.961 319.829 221.561 319.829 222.227H318.009ZM313.409 222.267C313.409 221.587 313.549 220.981 313.829 220.447C314.109 219.901 314.489 219.474 314.969 219.167C315.449 218.861 315.996 218.707 316.609 218.707L316.149 220.327C315.576 220.327 315.109 220.507 314.749 220.867C314.389 221.227 314.209 221.694 314.209 222.267H313.409Z" fill="white"/>
</g>
<path d="M252.736 144.015C252.448 144.927 252.256 145.791 252.064 146.559C251.152 151.023 250.336 157.935 250.336 163.887C250.336 171.471 251.728 176.847 253.312 181.695L247.792 183.327C246.352 179.007 244.96 171.903 244.96 164.847C244.96 158.559 245.824 151.503 246.352 146.751C246.448 145.791 246.544 144.687 246.496 143.823L252.736 144.015ZM244.144 149.295C253.264 149.295 260.512 148.863 267.856 147.087L267.904 152.607C261.328 153.807 251.248 154.527 244 154.527C241.456 154.527 237.712 154.287 235.456 154.191L235.312 148.671C237.04 148.911 241.216 149.295 244.144 149.295ZM264.88 156.351C264.496 157.215 263.776 159.423 263.44 160.431C260.704 169.071 255.76 175.551 251.2 178.911C248.08 181.215 243.904 183.327 239.728 183.327C236.224 183.327 233.296 181.215 233.296 176.319C233.296 169.551 239.344 162.495 246.976 159.711C250.144 158.559 254.08 157.839 257.68 157.839C266.656 157.839 273.28 163.023 273.28 170.511C273.28 177.327 269.248 183.903 257.488 185.727L254.272 180.639C263.536 179.631 267.328 174.975 267.328 170.223C267.328 166.143 263.824 162.687 257.344 162.687C252.976 162.687 249.52 163.935 247.168 164.991C242.368 167.247 238.96 171.855 238.96 175.071C238.96 176.655 239.584 177.471 241.168 177.471C243.424 177.471 246.64 175.887 249.568 173.151C253.072 169.935 256.336 165.663 258.256 159.039C258.592 158.031 258.928 155.967 258.976 154.911L264.88 156.351Z" fill="black"/>
<path d="M344.26 244.425L310.928 238.607L324.031 269.74L327.467 261.079L337.479 269.075L346.574 257.69L336.562 249.694L344.26 244.425Z" fill="#FAC7E1"/>
<defs>
<filter id="filter0_d_165_440" x="156.928" y="196.607" width="192" height="59" filterUnits="userSpaceOnUse" color-interpolation-filters="sRGB">
<feFlood flood-opacity="0" result="BackgroundImageFix"/>
<feColorMatrix in="SourceAlpha" type="matrix" values="0 0 0 0 0 0 0 0 0 0 0 0 0 0 0 0 0 0 127 0" result="hardAlpha"/>
<feOffset dy="4"/>
<feGaussianBlur stdDeviation="4"/>
<feComposite in2="hardAlpha" operator="out"/>
<feColorMatrix type="matrix" values="0 0 0 0 0 0 0 0 0 0 0 0 0 0 0 0 0 0 0.25 0"/>
<feBlend mode="normal" in2="BackgroundImageFix" result="effect1_dropShadow_165_440"/>
<feBlend mode="normal" in="SourceGraphic" in2="effect1_dropShadow_165_440" result="shape"/>
</filter>
</defs>
</svg>
