<svg width="480" height="334" viewBox="0 0 480 334" fill="none" xmlns="http://www.w3.org/2000/svg">
<g clip-path="url(#clip0_120_1531)">
<path d="M91.671 26.6074L413.329 27.8928C424.195 27.8928 427.176 28.9713 427.176 39.2546L433 54.222V278.991C433 289.274 424.195 297.607 413.329 297.607H91.671C80.8053 297.607 72 289.274 72 278.991V54.222L77.2983 39.2546C77.2983 28.9713 80.8053 26.6074 91.671 26.6074Z" fill="#404040"/>
<path d="M91.671 20.6074H413.329C424.195 20.6074 433 28.5477 433 38.346V52.6074H72V38.346C72 28.5477 80.8053 20.6074 91.671 20.6074Z" fill="#D5D5D5"/>
<path d="M101.892 36.938C101.892 39.7025 99.6512 41.9445 96.8896 41.9445C94.124 41.9445 91.8833 39.7023 91.8833 36.938C91.8833 34.1698 94.1242 31.9277 96.8896 31.9277C99.651 31.9277 101.892 34.1695 101.892 36.938Z" fill="#404040" stroke="#404040"/>
<path d="M119.785 36.938C119.785 39.7023 117.544 41.9445 114.779 41.9445C112.017 41.9445 109.776 39.7025 109.776 36.938C109.776 34.1695 112.017 31.9277 114.779 31.9277C117.544 31.9277 119.785 34.1698 119.785 36.938Z" fill="#404040" stroke="#404040"/>
<path d="M137.677 36.938C137.677 39.7021 135.433 41.9445 132.671 41.9445C129.909 41.9445 127.665 39.7021 127.665 36.938C127.665 34.17 129.909 31.9277 132.671 31.9277C135.433 31.9277 137.677 34.17 137.677 36.938Z" fill="#404040" stroke="#404040"/>
<path d="M193.342 36.8169H274.695" stroke="#404040" stroke-width="4" stroke-linecap="round" stroke-linejoin="round"/>
<path d="M42.8456 60.7418L49.1185 54.4644L60.2269 65.5808C61.962 67.315 61.962 70.1218 60.2269 71.8582C58.4917 73.5947 55.6892 73.5947 53.954 71.8582L42.8456 60.7418Z" fill="#ED3996"/>
<path opacity="0.2" d="M60.2269 68.4259C58.4917 70.1624 55.6892 70.1624 53.954 68.4259L44.5672 59.0347L42.8456 60.7463L53.954 71.8627C55.6892 73.5992 58.4917 73.5992 60.2269 71.8627C61.5469 70.5417 61.856 68.6156 61.1768 66.9989C60.9647 67.5227 60.642 67.9992 60.2269 68.4259Z" fill="#121212"/>
<path d="M42.505 51.2852L39.6573 54.1348L44.5538 59.0371L47.4014 56.1851L42.505 51.2852Z" fill="#ED3996"/>
<path opacity="0.2" d="M44.9012 58.1383C43.0713 56.4967 42.453 54.0241 43.1909 51.967L42.5004 51.2783L39.6505 54.1325L44.5447 59.0302L45.1855 58.389C45.102 58.3054 44.996 58.2219 44.9012 58.1383Z" fill="#121212"/>
<path d="M41.0879 25.9157C48.1437 32.7418 48.8342 43.8221 42.6787 51.4679C42.3357 51.8947 41.9656 52.3102 41.5753 52.7166C41.0405 53.2743 40.4583 53.8095 39.8513 54.2972C31.7259 60.884 19.7962 59.6105 13.2142 51.4792C6.63221 43.3457 7.90257 31.4095 16.0302 24.8228C23.4674 18.8073 34.208 19.2815 41.0879 25.9157Z" fill="#ED3996"/>
<path d="M27.9351 52.8702C35.2776 52.8702 41.23 46.9135 41.23 39.5657C41.23 32.218 35.2776 26.2612 27.9351 26.2612C20.5927 26.2612 14.6403 32.218 14.6403 39.5657C14.6403 46.9135 20.5927 52.8702 27.9351 52.8702Z" fill="#EEEEEE"/>
<path d="M49.1094 54.4507C50.7972 56.2233 50.725 59.0278 48.956 60.7168C47.2456 62.3449 44.5469 62.3584 42.8365 60.7281L49.1094 54.4507Z" fill="#FAC7E1"/>
<path d="M34.3141 41.6225C35.431 41.6225 36.3336 40.717 36.3336 39.6015C36.3336 38.4838 35.431 37.5806 34.3141 37.5806C33.1994 37.5806 32.2946 38.4838 32.2946 39.6015C32.2946 40.717 33.1994 41.6225 34.3141 41.6225Z" fill="white"/>
<path d="M28.0051 41.6225C29.122 41.6225 30.0269 40.717 30.0269 39.6015C30.0269 38.4838 29.122 37.5806 28.0051 37.5806C26.8904 37.5806 25.9856 38.4838 25.9856 39.6015C25.9856 40.717 26.8904 41.6225 28.0051 41.6225Z" fill="white"/>
<path d="M23.4876 40.539C24.0044 39.5499 23.623 38.3283 22.6347 37.8112C21.6464 37.2919 20.4257 37.6735 19.9089 38.6625C19.39 39.6515 19.7713 40.8731 20.7596 41.3902C21.7479 41.9096 22.9687 41.528 23.4876 40.539Z" fill="white"/>
<path d="M49.272 66.9828L55.4162 60.8228" stroke="#121212" stroke-width="4" stroke-linecap="round" stroke-linejoin="round"/>
<path d="M51.2102 68.9204L57.3635 62.7627" stroke="#121212" stroke-width="4" stroke-linecap="round" stroke-linejoin="round"/>
<path d="M53.1462 70.8579L59.2995 64.7002" stroke="#121212" stroke-width="4" stroke-linecap="round" stroke-linejoin="round"/>
<path d="M42.7034 51.479C42.3582 51.9058 41.9904 52.3235 41.5978 52.7277C41.0517 53.2855 40.4808 53.8206 39.8761 54.3084" stroke="#121212" stroke-width="4" stroke-linecap="round" stroke-linejoin="round"/>
<path d="M56.6702 281.91L8.15278 274.46" stroke="white" stroke-width="4" stroke-linecap="round" stroke-linejoin="round"/>
<path d="M70.5098 301.095L44.8068 322.603" stroke="white" stroke-width="4" stroke-linecap="round" stroke-linejoin="round"/>
<path opacity="0.2" d="M445.366 64.3171L467.045 53.3543L470.739 67.9958L445.366 64.3171Z" fill="#121212"/>
<path d="M445.366 64.3171L469.984 48.6463L473.678 63.2842L445.366 64.3171Z" fill="#121212"/>
<path opacity="0.2" d="M446.721 54.6039L451.92 36.1325C451.92 36.1325 451.93 36.1284 451.937 36.1245L462.428 41.7998C462.433 41.8097 462.433 41.8097 462.43 41.8235L446.749 54.612C446.733 54.6201 446.721 54.6039 446.721 54.6039Z" fill="#404040"/>
<path d="M446.717 54.594L450.748 31.8932C450.74 31.887 450.754 31.8893 450.764 31.8852L461.253 37.5609C461.261 37.5705 461.261 37.5705 461.251 37.5747L446.737 54.5925C446.735 54.6063 446.721 54.6039 446.717 54.594Z" fill="white"/>
<path d="M92.36 95.6394L91.48 94.7274L93.688 92.3274V94.1834L92.36 95.6394ZM93.688 103.607V92.3274H95.144V103.607H93.688ZM98.0878 103.671C97.8211 103.671 97.5971 103.581 97.4158 103.399C97.2344 103.218 97.1438 102.994 97.1438 102.727C97.1438 102.461 97.2344 102.237 97.4158 102.055C97.5971 101.863 97.8211 101.767 98.0878 101.767C98.3544 101.767 98.5784 101.863 98.7598 102.055C98.9518 102.237 99.0478 102.461 99.0478 102.727C99.0478 102.994 98.9518 103.218 98.7598 103.399C98.5784 103.581 98.3544 103.671 98.0878 103.671ZM103.979 103.607V92.3274H105.435V103.607H103.979ZM107.523 103.607V95.5274H108.979V103.607H107.523ZM112.019 103.607V98.1034H113.475V103.607H112.019ZM112.019 98.1034C112.019 97.6554 111.88 97.2928 111.603 97.0154C111.325 96.7274 110.968 96.5834 110.531 96.5834L110.899 95.2874C111.389 95.2874 111.827 95.4101 112.211 95.6554C112.605 95.9008 112.915 96.2368 113.139 96.6634C113.363 97.0901 113.475 97.5701 113.475 98.1034H112.019ZM108.339 98.1354C108.339 97.5914 108.451 97.1061 108.674 96.6794C108.899 96.2421 109.203 95.9008 109.587 95.6554C109.971 95.4101 110.408 95.2874 110.899 95.2874L110.531 96.5834C110.072 96.5834 109.699 96.7274 109.411 97.0154C109.123 97.3034 108.979 97.6768 108.979 98.1354H108.339ZM119.034 101.527C119.034 101.261 118.938 101.042 118.746 100.871C118.554 100.69 118.303 100.53 117.994 100.391C117.695 100.242 117.375 100.093 117.034 99.9434C116.703 99.7941 116.383 99.6234 116.074 99.4314C115.775 99.2288 115.53 98.9781 115.338 98.6794C115.146 98.3701 115.05 97.9968 115.05 97.5594C115.05 97.5594 115.093 97.5594 115.178 97.5594C115.274 97.5594 115.391 97.5594 115.53 97.5594C115.679 97.5594 115.823 97.5594 115.962 97.5594C116.101 97.5594 116.218 97.5594 116.314 97.5594C116.41 97.5594 116.458 97.5594 116.458 97.5594C116.458 97.8261 116.554 98.0501 116.746 98.2314C116.938 98.4021 117.183 98.5568 117.482 98.6954C117.791 98.8341 118.117 98.9834 118.458 99.1434C118.799 99.2928 119.119 99.4688 119.418 99.6714C119.717 99.8741 119.962 100.125 120.154 100.423C120.357 100.711 120.458 101.079 120.458 101.527C120.458 101.527 120.41 101.527 120.314 101.527C120.218 101.527 120.095 101.527 119.946 101.527C119.807 101.527 119.669 101.527 119.53 101.527C119.391 101.527 119.274 101.527 119.178 101.527C119.082 101.527 119.034 101.527 119.034 101.527ZM117.674 103.847V102.583C118.069 102.583 118.394 102.487 118.65 102.295C118.906 102.093 119.034 101.837 119.034 101.527H120.458C120.458 101.975 120.335 102.375 120.09 102.727C119.855 103.079 119.53 103.357 119.114 103.559C118.698 103.751 118.218 103.847 117.674 103.847ZM115.05 97.5594C115.05 97.1221 115.157 96.7328 115.37 96.3914C115.594 96.0394 115.903 95.7674 116.298 95.5754C116.693 95.3728 117.13 95.2714 117.61 95.2714V96.5354C117.279 96.5354 117.002 96.6314 116.778 96.8234C116.565 97.0154 116.458 97.2608 116.458 97.5594H115.05ZM116.154 101.191C116.207 101.661 116.378 102.013 116.666 102.247C116.954 102.471 117.29 102.583 117.674 102.583V103.847C117.183 103.847 116.73 103.746 116.314 103.543C115.898 103.341 115.557 103.058 115.29 102.695C115.034 102.333 114.874 101.922 114.81 101.463L116.154 101.191ZM119.114 97.9274C119.061 97.4474 118.89 97.0954 118.602 96.8714C118.325 96.6474 117.994 96.5354 117.61 96.5354V95.2714C118.111 95.2714 118.565 95.3728 118.97 95.5754C119.375 95.7781 119.711 96.0608 119.978 96.4234C120.245 96.7754 120.41 97.1861 120.474 97.6554L119.114 97.9274ZM122.472 101.159V92.3114L123.928 92.3274V101.159H122.472ZM121.544 96.7274V95.5274H125.944V96.7274H121.544ZM122.472 101.143H123.928C123.928 101.453 123.971 101.714 124.056 101.927C124.142 102.141 124.264 102.306 124.424 102.423C124.584 102.53 124.776 102.583 125 102.583L124.872 103.847C124.126 103.847 123.539 103.613 123.112 103.143C122.686 102.663 122.472 101.997 122.472 101.143ZM125.752 102.311L126.328 103.351C126.115 103.511 125.88 103.634 125.624 103.719C125.379 103.805 125.128 103.847 124.872 103.847L125 102.583C125.139 102.583 125.267 102.562 125.384 102.519C125.512 102.466 125.635 102.397 125.752 102.311ZM131.608 103.607V98.1034H133.064V103.607H131.608ZM129.656 103.847L129.768 102.647C130.152 102.647 130.477 102.551 130.744 102.359C131.021 102.167 131.235 101.885 131.384 101.511C131.533 101.138 131.608 100.695 131.608 100.183L132.328 100.151C132.328 100.877 132.211 101.517 131.976 102.071C131.741 102.626 131.421 103.063 131.016 103.383C130.621 103.693 130.168 103.847 129.656 103.847ZM129.656 103.847C129.176 103.847 128.739 103.735 128.344 103.511C127.949 103.287 127.635 102.983 127.4 102.599C127.165 102.205 127.048 101.767 127.048 101.287L128.424 101.239C128.424 101.645 128.557 101.981 128.824 102.247C129.101 102.514 129.416 102.647 129.768 102.647L129.656 103.847ZM127.048 101.287C127.048 100.786 127.171 100.349 127.416 99.9754C127.672 99.5914 128.013 99.2874 128.44 99.0634C128.867 98.8394 129.352 98.7274 129.896 98.7274L129.976 99.8474C129.528 99.8474 129.155 99.9808 128.856 100.247C128.568 100.503 128.424 100.834 128.424 101.239L127.048 101.287ZM129.976 99.8474L129.896 98.7274H132.36V99.8474H129.976ZM131.608 100.183V98.1194H132.328V100.151L131.608 100.183ZM133.064 98.1354H131.608C131.608 97.6661 131.464 97.2821 131.176 96.9834C130.899 96.6848 130.536 96.5354 130.088 96.5354V95.2874C130.664 95.2874 131.171 95.4101 131.608 95.6554C132.056 95.9008 132.408 96.2421 132.664 96.6794C132.931 97.1061 133.064 97.5914 133.064 98.1354ZM128.584 97.9434L127.24 97.6714C127.304 97.1914 127.464 96.7754 127.72 96.4234C127.987 96.0714 128.323 95.7941 128.728 95.5914C129.144 95.3888 129.603 95.2874 130.104 95.2874V96.5354C129.709 96.5354 129.368 96.6528 129.08 96.8874C128.803 97.1114 128.637 97.4634 128.584 97.9434ZM134.854 103.607V92.0874H136.31V103.607H134.854ZM138.558 103.607V92.0874H140.014V103.607H138.558ZM145.644 101.159V92.3114L147.1 92.3274V101.159H145.644ZM144.716 96.7274V95.5274H149.116V96.7274H144.716ZM145.644 101.143H147.1C147.1 101.453 147.143 101.714 147.228 101.927C147.314 102.141 147.436 102.306 147.596 102.423C147.756 102.53 147.948 102.583 148.172 102.583L148.044 103.847C147.298 103.847 146.711 103.613 146.284 103.143C145.858 102.663 145.644 101.997 145.644 101.143ZM148.924 102.311L149.5 103.351C149.287 103.511 149.052 103.634 148.796 103.719C148.551 103.805 148.3 103.847 148.044 103.847L148.172 102.583C148.311 102.583 148.439 102.562 148.556 102.519C148.684 102.466 148.807 102.397 148.924 102.311ZM150.694 103.607V95.5274H152.15V103.607H150.694ZM155.19 103.607V98.1034H156.646V103.607H155.19ZM155.19 98.1034C155.19 97.6554 155.052 97.2928 154.774 97.0154C154.497 96.7274 154.14 96.5834 153.702 96.5834L154.07 95.2874C154.561 95.2874 154.998 95.4101 155.382 95.6554C155.777 95.9008 156.086 96.2368 156.31 96.6634C156.534 97.0901 156.646 97.5701 156.646 98.1034H155.19ZM151.51 98.1354C151.51 97.5914 151.622 97.1061 151.846 96.6794C152.07 96.2421 152.374 95.9008 152.758 95.6554C153.142 95.4101 153.58 95.2874 154.07 95.2874L153.702 96.5834C153.244 96.5834 152.87 96.7274 152.582 97.0154C152.294 97.3034 152.15 97.6768 152.15 98.1354H151.51ZM150.694 103.607V92.0874H152.15V103.607H150.694ZM158.446 100.007V98.9674H163.902V100.007H158.446ZM160.926 103.863V102.599H161.006V103.863H160.926ZM157.982 100.743V98.3914H159.438V100.743H157.982ZM162.446 98.9674V98.1354H163.902V98.9674H162.446ZM163.902 98.1354H162.446C162.446 97.6661 162.302 97.2821 162.014 96.9834C161.737 96.6848 161.374 96.5354 160.926 96.5354V95.2874C161.502 95.2874 162.009 95.4101 162.446 95.6554C162.894 95.9008 163.246 96.2421 163.502 96.6794C163.769 97.1061 163.902 97.5914 163.902 98.1354ZM162.51 101.207L163.87 101.479C163.806 101.938 163.641 102.349 163.374 102.711C163.107 103.074 162.771 103.357 162.366 103.559C161.961 103.762 161.507 103.863 161.006 103.863V102.599C161.39 102.599 161.721 102.487 161.998 102.263C162.286 102.029 162.457 101.677 162.51 101.207ZM157.982 98.4074C157.982 97.7994 158.11 97.2661 158.366 96.8074C158.633 96.3381 158.985 95.9701 159.422 95.7034C159.87 95.4261 160.377 95.2874 160.942 95.2874V96.5354C160.473 96.5354 160.105 96.7008 159.838 97.0314C159.571 97.3514 159.438 97.8101 159.438 98.4074H157.982ZM157.982 100.743H159.438C159.438 101.33 159.571 101.789 159.838 102.119C160.105 102.439 160.473 102.599 160.942 102.599V103.863C160.377 103.863 159.87 103.73 159.422 103.463C158.985 103.186 158.633 102.813 158.366 102.343C158.11 101.874 157.982 101.341 157.982 100.743ZM169.388 93.5914V92.3274H171.02V93.5914H169.388ZM169.388 99.2714V98.0074H171.02V99.2714H169.388ZM172.716 96.2794V95.3194H174.172V96.2794H172.716ZM174.172 95.3194H172.716C172.716 94.7648 172.562 94.3381 172.252 94.0394C171.954 93.7408 171.538 93.5914 171.004 93.5914V92.3274C171.634 92.3274 172.183 92.4554 172.652 92.7114C173.132 92.9568 173.506 93.3088 173.772 93.7674C174.039 94.2154 174.172 94.7328 174.172 95.3194ZM174.172 96.2634C174.172 96.8608 174.039 97.3834 173.772 97.8314C173.506 98.2794 173.132 98.6314 172.652 98.8874C172.183 99.1434 171.634 99.2714 171.004 99.2714V98.0074C171.538 98.0074 171.954 97.8528 172.252 97.5434C172.562 97.2341 172.716 96.8074 172.716 96.2634H174.172ZM168.444 103.607V92.3274H169.9V103.607H168.444ZM175.776 103.607V95.5274H177.232V103.607H175.776ZM176.496 94.4554C176.23 94.4554 176.006 94.3648 175.824 94.1834C175.643 94.0021 175.552 93.7781 175.552 93.5114C175.552 93.2448 175.643 93.0208 175.824 92.8394C176.006 92.6474 176.23 92.5514 176.496 92.5514C176.763 92.5514 176.987 92.6474 177.168 92.8394C177.36 93.0208 177.456 93.2448 177.456 93.5114C177.456 93.7781 177.36 94.0021 177.168 94.1834C176.987 94.3648 176.763 94.4554 176.496 94.4554ZM183.383 103.607L180.519 99.1434L181.911 98.6794L184.903 103.607H183.383ZM180.567 100.727L179.447 99.9754L182.951 95.5274H184.711L180.567 100.727ZM179.319 103.607V92.0874H180.775V103.607H179.319ZM186.21 103.607V95.5274H187.666V103.607H186.21ZM187.01 98.2794C187.01 97.7248 187.106 97.2234 187.298 96.7754C187.501 96.3274 187.773 95.9808 188.114 95.7354C188.455 95.4794 188.839 95.3514 189.266 95.3514L188.946 96.7114C188.573 96.7114 188.263 96.8608 188.018 97.1594C187.783 97.4474 187.666 97.8208 187.666 98.2794H187.01ZM189.97 97.1434C189.81 97.0048 189.639 96.8981 189.458 96.8234C189.287 96.7488 189.117 96.7114 188.946 96.7114L189.266 95.3514C189.511 95.3514 189.741 95.3941 189.954 95.4794C190.167 95.5541 190.381 95.6928 190.594 95.8954L189.97 97.1434ZM191.493 100.007V98.9674H196.949V100.007H191.493ZM193.973 103.863V102.599H194.053V103.863H193.973ZM191.029 100.743V98.3914H192.485V100.743H191.029ZM195.493 98.9674V98.1354H196.949V98.9674H195.493ZM196.949 98.1354H195.493C195.493 97.6661 195.349 97.2821 195.061 96.9834C194.783 96.6848 194.421 96.5354 193.973 96.5354V95.2874C194.549 95.2874 195.055 95.4101 195.493 95.6554C195.941 95.9008 196.293 96.2421 196.549 96.6794C196.815 97.1061 196.949 97.5914 196.949 98.1354ZM195.557 101.207L196.917 101.479C196.853 101.938 196.687 102.349 196.421 102.711C196.154 103.074 195.818 103.357 195.413 103.559C195.007 103.762 194.554 103.863 194.053 103.863V102.599C194.437 102.599 194.767 102.487 195.045 102.263C195.333 102.029 195.503 101.677 195.557 101.207ZM191.029 98.4074C191.029 97.7994 191.157 97.2661 191.413 96.8074C191.679 96.3381 192.031 95.9701 192.469 95.7034C192.917 95.4261 193.423 95.2874 193.989 95.2874V96.5354C193.519 96.5354 193.151 96.7008 192.885 97.0314C192.618 97.3514 192.485 97.8101 192.485 98.4074H191.029ZM191.029 100.743H192.485C192.485 101.33 192.618 101.789 192.885 102.119C193.151 102.439 193.519 102.599 193.989 102.599V103.863C193.423 103.863 192.917 103.73 192.469 103.463C192.031 103.186 191.679 102.813 191.413 102.343C191.157 101.874 191.029 101.341 191.029 100.743ZM202.339 103.607L197.683 95.5274H199.235L203.891 103.607H202.339ZM197.683 103.607L200.019 99.5594H201.555L199.235 103.607H197.683ZM200.019 99.5594L202.339 95.5274H203.891L201.555 99.5594H200.019ZM208.879 101.159V92.3114L210.335 92.3274V101.159H208.879ZM207.951 96.7274V95.5274H212.351V96.7274H207.951ZM208.879 101.143H210.335C210.335 101.453 210.377 101.714 210.463 101.927C210.548 102.141 210.671 102.306 210.831 102.423C210.991 102.53 211.183 102.583 211.407 102.583L211.279 103.847C210.532 103.847 209.945 103.613 209.519 103.143C209.092 102.663 208.879 101.997 208.879 101.143ZM212.159 102.311L212.735 103.351C212.521 103.511 212.287 103.634 212.031 103.719C211.785 103.805 211.535 103.847 211.279 103.847L211.407 102.583C211.545 102.583 211.673 102.562 211.791 102.519C211.919 102.466 212.041 102.397 212.159 102.311ZM213.929 103.607V95.5274H215.385V103.607H213.929ZM214.729 98.2794C214.729 97.7248 214.825 97.2234 215.017 96.7754C215.219 96.3274 215.491 95.9808 215.833 95.7354C216.174 95.4794 216.558 95.3514 216.985 95.3514L216.665 96.7114C216.291 96.7114 215.982 96.8608 215.737 97.1594C215.502 97.4474 215.385 97.8208 215.385 98.2794H214.729ZM217.689 97.1434C217.529 97.0048 217.358 96.8981 217.177 96.8234C217.006 96.7488 216.835 96.7114 216.665 96.7114L216.985 95.3514C217.23 95.3514 217.459 95.3941 217.673 95.4794C217.886 95.5541 218.099 95.6928 218.313 95.8954L217.689 97.1434ZM223.468 103.607V98.1034H224.924V103.607H223.468ZM221.516 103.847L221.628 102.647C222.012 102.647 222.337 102.551 222.604 102.359C222.881 102.167 223.094 101.885 223.244 101.511C223.393 101.138 223.468 100.695 223.468 100.183L224.188 100.151C224.188 100.877 224.07 101.517 223.836 102.071C223.601 102.626 223.281 103.063 222.876 103.383C222.481 103.693 222.028 103.847 221.516 103.847ZM221.516 103.847C221.036 103.847 220.598 103.735 220.204 103.511C219.809 103.287 219.494 102.983 219.26 102.599C219.025 102.205 218.908 101.767 218.908 101.287L220.284 101.239C220.284 101.645 220.417 101.981 220.684 102.247C220.961 102.514 221.276 102.647 221.628 102.647L221.516 103.847ZM218.908 101.287C218.908 100.786 219.03 100.349 219.276 99.9754C219.532 99.5914 219.873 99.2874 220.299 99.0634C220.726 98.8394 221.212 98.7274 221.756 98.7274L221.836 99.8474C221.388 99.8474 221.014 99.9808 220.716 100.247C220.428 100.503 220.284 100.834 220.284 101.239L218.908 101.287ZM221.836 99.8474L221.756 98.7274H224.22V99.8474H221.836ZM223.468 100.183V98.1194H224.188V100.151L223.468 100.183ZM224.924 98.1354H223.468C223.468 97.6661 223.324 97.2821 223.036 96.9834C222.758 96.6848 222.396 96.5354 221.948 96.5354V95.2874C222.524 95.2874 223.03 95.4101 223.468 95.6554C223.916 95.9008 224.268 96.2421 224.524 96.6794C224.79 97.1061 224.924 97.5914 224.924 98.1354ZM220.444 97.9434L219.1 97.6714C219.164 97.1914 219.324 96.7754 219.58 96.4234C219.846 96.0714 220.182 95.7941 220.588 95.5914C221.004 95.3888 221.462 95.2874 221.964 95.2874V96.5354C221.569 96.5354 221.228 96.6528 220.94 96.8874C220.662 97.1114 220.497 97.4634 220.444 97.9434ZM226.554 103.607V95.5274H228.01V103.607H226.554ZM231.05 103.607V98.1034H232.506V103.607H231.05ZM231.05 98.1034C231.05 97.6554 230.911 97.2928 230.634 97.0154C230.356 96.7274 229.999 96.5834 229.562 96.5834L229.93 95.2874C230.42 95.2874 230.858 95.4101 231.242 95.6554C231.636 95.9008 231.946 96.2368 232.17 96.6634C232.394 97.0901 232.506 97.5701 232.506 98.1034H231.05ZM227.37 98.1354C227.37 97.5914 227.482 97.1061 227.706 96.6794C227.93 96.2421 228.234 95.9008 228.618 95.6554C229.002 95.4101 229.439 95.2874 229.93 95.2874L229.562 96.5834C229.103 96.5834 228.73 96.7274 228.442 97.0154C228.154 97.3034 228.01 97.6768 228.01 98.1354H227.37ZM238.065 101.527C238.065 101.261 237.969 101.042 237.777 100.871C237.585 100.69 237.335 100.53 237.025 100.391C236.727 100.242 236.407 100.093 236.065 99.9434C235.735 99.7941 235.415 99.6234 235.105 99.4314C234.807 99.2288 234.561 98.9781 234.369 98.6794C234.177 98.3701 234.081 97.9968 234.081 97.5594C234.081 97.5594 234.124 97.5594 234.209 97.5594C234.305 97.5594 234.423 97.5594 234.561 97.5594C234.711 97.5594 234.855 97.5594 234.993 97.5594C235.132 97.5594 235.249 97.5594 235.345 97.5594C235.441 97.5594 235.489 97.5594 235.489 97.5594C235.489 97.8261 235.585 98.0501 235.777 98.2314C235.969 98.4021 236.215 98.5568 236.513 98.6954C236.823 98.8341 237.148 98.9834 237.489 99.1434C237.831 99.2928 238.151 99.4688 238.449 99.6714C238.748 99.8741 238.993 100.125 239.185 100.423C239.388 100.711 239.489 101.079 239.489 101.527C239.489 101.527 239.441 101.527 239.345 101.527C239.249 101.527 239.127 101.527 238.977 101.527C238.839 101.527 238.7 101.527 238.561 101.527C238.423 101.527 238.305 101.527 238.209 101.527C238.113 101.527 238.065 101.527 238.065 101.527ZM236.705 103.847V102.583C237.1 102.583 237.425 102.487 237.681 102.295C237.937 102.093 238.065 101.837 238.065 101.527H239.489C239.489 101.975 239.367 102.375 239.121 102.727C238.887 103.079 238.561 103.357 238.145 103.559C237.729 103.751 237.249 103.847 236.705 103.847ZM234.081 97.5594C234.081 97.1221 234.188 96.7328 234.401 96.3914C234.625 96.0394 234.935 95.7674 235.329 95.5754C235.724 95.3728 236.161 95.2714 236.641 95.2714V96.5354C236.311 96.5354 236.033 96.6314 235.809 96.8234C235.596 97.0154 235.489 97.2608 235.489 97.5594H234.081ZM235.185 101.191C235.239 101.661 235.409 102.013 235.697 102.247C235.985 102.471 236.321 102.583 236.705 102.583V103.847C236.215 103.847 235.761 103.746 235.345 103.543C234.929 103.341 234.588 103.058 234.321 102.695C234.065 102.333 233.905 101.922 233.841 101.463L235.185 101.191ZM238.145 97.9274C238.092 97.4474 237.921 97.0954 237.633 96.8714C237.356 96.6474 237.025 96.5354 236.641 96.5354V95.2714C237.143 95.2714 237.596 95.3728 238.001 95.5754C238.407 95.7781 238.743 96.0608 239.009 96.4234C239.276 96.7754 239.441 97.1861 239.505 97.6554L238.145 97.9274ZM241.136 103.607V92.0874H242.592V103.607H241.136ZM248.952 103.607V98.1034H250.408V103.607H248.952ZM247 103.847L247.112 102.647C247.496 102.647 247.821 102.551 248.088 102.359C248.365 102.167 248.579 101.885 248.728 101.511C248.877 101.138 248.952 100.695 248.952 100.183L249.672 100.151C249.672 100.877 249.555 101.517 249.32 102.071C249.085 102.626 248.765 103.063 248.36 103.383C247.965 103.693 247.512 103.847 247 103.847ZM247 103.847C246.52 103.847 246.083 103.735 245.688 103.511C245.293 103.287 244.979 102.983 244.744 102.599C244.509 102.205 244.392 101.767 244.392 101.287L245.768 101.239C245.768 101.645 245.901 101.981 246.168 102.247C246.445 102.514 246.76 102.647 247.112 102.647L247 103.847ZM244.392 101.287C244.392 100.786 244.515 100.349 244.76 99.9754C245.016 99.5914 245.357 99.2874 245.784 99.0634C246.211 98.8394 246.696 98.7274 247.24 98.7274L247.32 99.8474C246.872 99.8474 246.499 99.9808 246.2 100.247C245.912 100.503 245.768 100.834 245.768 101.239L244.392 101.287ZM247.32 99.8474L247.24 98.7274H249.704V99.8474H247.32ZM248.952 100.183V98.1194H249.672V100.151L248.952 100.183ZM250.408 98.1354H248.952C248.952 97.6661 248.808 97.2821 248.52 96.9834C248.243 96.6848 247.88 96.5354 247.432 96.5354V95.2874C248.008 95.2874 248.515 95.4101 248.952 95.6554C249.4 95.9008 249.752 96.2421 250.008 96.6794C250.275 97.1061 250.408 97.5914 250.408 98.1354ZM245.928 97.9434L244.584 97.6714C244.648 97.1914 244.808 96.7754 245.064 96.4234C245.331 96.0714 245.667 95.7941 246.072 95.5914C246.488 95.3888 246.947 95.2874 247.448 95.2874V96.5354C247.053 96.5354 246.712 96.6528 246.424 96.8874C246.147 97.1114 245.981 97.4634 245.928 97.9434ZM252.566 101.159V92.3114L254.022 92.3274V101.159H252.566ZM251.638 96.7274V95.5274H256.038V96.7274H251.638ZM252.566 101.143H254.022C254.022 101.453 254.065 101.714 254.15 101.927C254.235 102.141 254.358 102.306 254.518 102.423C254.678 102.53 254.87 102.583 255.094 102.583L254.966 103.847C254.219 103.847 253.633 103.613 253.206 103.143C252.779 102.663 252.566 101.997 252.566 101.143ZM255.846 102.311L256.422 103.351C256.209 103.511 255.974 103.634 255.718 103.719C255.473 103.805 255.222 103.847 254.966 103.847L255.094 102.583C255.233 102.583 255.361 102.562 255.478 102.519C255.606 102.466 255.729 102.397 255.846 102.311ZM261.478 100.743V98.3914H262.934V100.743H261.478ZM256.982 100.743V98.3914H258.438V100.743H256.982ZM259.91 96.5514V95.2874H260.006V96.5514H259.91ZM259.91 103.847V102.583H260.006V103.847H259.91ZM256.982 98.4074C256.982 97.8101 257.11 97.2768 257.366 96.8074C257.633 96.3381 257.985 95.9701 258.422 95.7034C258.87 95.4261 259.377 95.2874 259.942 95.2874V96.5514C259.473 96.5514 259.105 96.7114 258.838 97.0314C258.571 97.3514 258.438 97.8101 258.438 98.4074H256.982ZM262.934 98.4074H261.478C261.478 97.8101 261.345 97.3514 261.078 97.0314C260.822 96.7114 260.454 96.5514 259.974 96.5514V95.2874C260.539 95.2874 261.041 95.4261 261.478 95.7034C261.926 95.9701 262.278 96.3381 262.534 96.8074C262.801 97.2768 262.934 97.8101 262.934 98.4074ZM256.982 100.727H258.438C258.438 101.314 258.571 101.773 258.838 102.103C259.105 102.423 259.473 102.583 259.942 102.583V103.847C259.377 103.847 258.87 103.714 258.422 103.447C257.985 103.17 257.633 102.797 257.366 102.327C257.11 101.858 256.982 101.325 256.982 100.727ZM262.934 100.727C262.934 101.325 262.801 101.858 262.534 102.327C262.278 102.797 261.926 103.17 261.478 103.447C261.041 103.714 260.539 103.847 259.974 103.847V102.583C260.454 102.583 260.822 102.423 261.078 102.103C261.345 101.773 261.478 101.314 261.478 100.727H262.934ZM264.413 103.607V95.5274H265.869V103.607H264.413ZM265.213 98.2794C265.213 97.7248 265.309 97.2234 265.501 96.7754C265.704 96.3274 265.976 95.9808 266.317 95.7354C266.658 95.4794 267.042 95.3514 267.469 95.3514L267.149 96.7114C266.776 96.7114 266.466 96.8608 266.221 97.1594C265.986 97.4474 265.869 97.8208 265.869 98.2794H265.213ZM268.173 97.1434C268.013 97.0048 267.842 96.8981 267.661 96.8234C267.49 96.7488 267.32 96.7114 267.149 96.7114L267.469 95.3514C267.714 95.3514 267.944 95.3941 268.157 95.4794C268.37 95.5541 268.584 95.6928 268.797 95.8954L268.173 97.1434Z" fill="white"/>
<rect x="91" y="114.607" width="380" height="30" rx="15" fill="#ED3996"/>
<path d="M107.24 126.607H110.74L111.04 127.927H111.12C111.427 127.501 111.867 127.127 112.44 126.807C113.013 126.487 113.7 126.327 114.5 126.327C114.993 126.327 115.453 126.394 115.88 126.527C116.32 126.661 116.693 126.881 117 127.187C117.307 127.494 117.547 127.914 117.72 128.447C117.907 128.967 118 129.614 118 130.387V136.607H115.4V130.927C115.4 130.114 115.213 129.527 114.84 129.167C114.48 128.807 114.02 128.627 113.46 128.627C112.967 128.627 112.513 128.774 112.1 129.067C111.7 129.347 111.427 129.701 111.28 130.127V136.607H108.68V128.807H107.24V126.607ZM118.992 126.607H122.392L122.692 127.807H122.772C123.466 126.821 124.586 126.327 126.132 126.327C126.746 126.327 127.306 126.427 127.812 126.627C128.332 126.814 128.772 127.114 129.132 127.527C129.506 127.941 129.792 128.461 129.992 129.087C130.192 129.714 130.292 130.467 130.292 131.347C130.292 132.201 130.179 132.974 129.952 133.667C129.726 134.347 129.399 134.927 128.972 135.407C128.546 135.887 128.026 136.254 127.412 136.507C126.799 136.761 126.099 136.887 125.312 136.887C124.899 136.887 124.492 136.854 124.092 136.787C123.692 136.734 123.359 136.641 123.092 136.507V140.607H120.492V128.807H118.992V126.607ZM125.352 128.527C124.846 128.527 124.379 128.654 123.952 128.907C123.539 129.161 123.252 129.541 123.092 130.047V134.207C123.279 134.354 123.546 134.474 123.892 134.567C124.252 134.647 124.612 134.687 124.972 134.687C125.346 134.687 125.692 134.627 126.012 134.507C126.332 134.374 126.612 134.167 126.852 133.887C127.092 133.607 127.279 133.254 127.412 132.827C127.546 132.401 127.612 131.887 127.612 131.287C127.612 130.407 127.399 129.727 126.972 129.247C126.546 128.767 126.006 128.527 125.352 128.527ZM135.804 136.607V130.487C135.804 130.087 135.778 129.767 135.724 129.527C135.671 129.274 135.598 129.081 135.504 128.947C135.424 128.801 135.318 128.707 135.184 128.667C135.064 128.614 134.938 128.587 134.804 128.587C134.578 128.587 134.364 128.661 134.164 128.807C133.978 128.954 133.851 129.141 133.784 129.367V136.607H131.384V126.607H133.284L133.564 127.707H133.624C133.824 127.321 134.118 127.007 134.504 126.767C134.891 126.514 135.344 126.387 135.864 126.387C136.304 126.387 136.724 126.494 137.124 126.707C137.524 126.921 137.798 127.294 137.944 127.827C138.144 127.361 138.451 127.007 138.864 126.767C139.278 126.514 139.724 126.387 140.204 126.387C140.564 126.387 140.884 126.441 141.164 126.547C141.458 126.641 141.711 126.814 141.924 127.067C142.138 127.321 142.298 127.667 142.404 128.107C142.524 128.534 142.584 129.087 142.584 129.767V136.607H140.184V130.207C140.184 129.607 140.084 129.187 139.884 128.947C139.698 128.707 139.464 128.587 139.184 128.587C138.944 128.587 138.738 128.647 138.564 128.767C138.391 128.874 138.271 129.054 138.204 129.307V136.607H135.804ZM156.149 134.407H159.669V128.807H156.149V126.607H162.269V134.407H165.969V136.607H156.149V134.407ZM159.189 123.887C159.189 123.474 159.342 123.121 159.649 122.827C159.955 122.534 160.382 122.387 160.929 122.387C161.489 122.387 161.935 122.534 162.269 122.827C162.602 123.121 162.769 123.474 162.769 123.887C162.769 124.314 162.602 124.667 162.269 124.947C161.935 125.214 161.489 125.347 160.929 125.347C160.382 125.347 159.955 125.214 159.649 124.947C159.342 124.667 159.189 124.314 159.189 123.887ZM167.201 126.607H170.701L171.001 127.927H171.081C171.388 127.501 171.828 127.127 172.401 126.807C172.974 126.487 173.661 126.327 174.461 126.327C174.954 126.327 175.414 126.394 175.841 126.527C176.281 126.661 176.654 126.881 176.961 127.187C177.268 127.494 177.508 127.914 177.681 128.447C177.868 128.967 177.961 129.614 177.961 130.387V136.607H175.361V130.927C175.361 130.114 175.174 129.527 174.801 129.167C174.441 128.807 173.981 128.627 173.421 128.627C172.928 128.627 172.474 128.774 172.061 129.067C171.661 129.347 171.388 129.701 171.241 130.127V136.607H168.641V128.807H167.201V126.607ZM186.993 133.847C186.993 133.581 186.826 133.367 186.493 133.207C186.173 133.047 185.773 132.901 185.293 132.767C184.813 132.634 184.286 132.501 183.713 132.367C183.14 132.221 182.613 132.027 182.133 131.787C181.653 131.534 181.246 131.221 180.913 130.847C180.593 130.461 180.433 129.967 180.433 129.367C180.433 128.874 180.54 128.441 180.753 128.067C180.98 127.694 181.28 127.381 181.653 127.127C182.04 126.861 182.493 126.661 183.013 126.527C183.546 126.394 184.12 126.327 184.733 126.327C185.386 126.327 185.96 126.374 186.453 126.467C186.946 126.561 187.373 126.674 187.733 126.807C188.106 126.941 188.42 127.094 188.673 127.267C188.94 127.427 189.166 127.574 189.353 127.707L188.253 129.487C188.053 129.367 187.82 129.247 187.553 129.127C187.3 128.994 187.026 128.874 186.733 128.767C186.453 128.661 186.153 128.574 185.833 128.507C185.526 128.441 185.22 128.407 184.913 128.407C184.353 128.407 183.9 128.481 183.553 128.627C183.206 128.774 183.033 129.001 183.033 129.307C183.033 129.547 183.193 129.741 183.513 129.887C183.846 130.034 184.253 130.174 184.733 130.307C185.213 130.427 185.74 130.561 186.313 130.707C186.886 130.854 187.413 131.047 187.893 131.287C188.373 131.514 188.773 131.814 189.093 132.187C189.426 132.561 189.593 133.041 189.593 133.627C189.593 134.641 189.22 135.441 188.473 136.027C187.74 136.601 186.646 136.887 185.193 136.887C184.046 136.887 183.053 136.721 182.213 136.387C181.386 136.041 180.72 135.641 180.213 135.187L181.413 133.307C181.586 133.454 181.813 133.621 182.093 133.807C182.386 133.981 182.713 134.141 183.073 134.287C183.433 134.434 183.813 134.561 184.213 134.667C184.626 134.761 185.033 134.807 185.433 134.807C185.86 134.807 186.226 134.734 186.533 134.587C186.84 134.441 186.993 134.194 186.993 133.847ZM193.265 128.807H191.285V126.607H193.265V124.327L195.865 123.587V126.607H201.105V128.807H195.865V131.667C195.865 132.694 196.059 133.441 196.445 133.907C196.832 134.361 197.372 134.587 198.065 134.587C198.425 134.587 198.752 134.547 199.045 134.467C199.339 134.374 199.599 134.261 199.825 134.127C200.065 133.994 200.279 133.847 200.465 133.687C200.665 133.527 200.845 133.381 201.005 133.247L202.205 135.047C201.979 135.314 201.692 135.561 201.345 135.787C201.012 136.001 200.645 136.194 200.245 136.367C199.859 136.527 199.452 136.654 199.025 136.747C198.599 136.841 198.179 136.887 197.765 136.887C196.272 136.887 195.145 136.474 194.385 135.647C193.639 134.807 193.265 133.481 193.265 131.667V128.807ZM204.738 127.287C205.271 127.047 205.884 126.841 206.578 126.667C207.284 126.494 208.118 126.407 209.078 126.407C209.771 126.407 210.358 126.494 210.838 126.667C211.331 126.827 211.724 127.061 212.018 127.367C212.324 127.674 212.544 128.041 212.678 128.467C212.811 128.894 212.878 129.374 212.878 129.907C212.878 130.587 212.851 131.167 212.798 131.647C212.758 132.127 212.738 132.554 212.738 132.927C212.738 133.207 212.751 133.521 212.778 133.867C212.804 134.054 212.824 134.234 212.838 134.407H214.138V136.607H210.818L210.558 135.247H210.458C210.191 135.661 209.811 136.021 209.318 136.327C208.824 136.621 208.158 136.767 207.318 136.767C206.318 136.767 205.524 136.501 204.938 135.967C204.351 135.434 204.058 134.727 204.058 133.847C204.058 133.287 204.158 132.807 204.358 132.407C204.571 131.994 204.871 131.661 205.258 131.407C205.658 131.141 206.131 130.947 206.678 130.827C207.238 130.694 207.858 130.627 208.538 130.627C208.778 130.627 209.031 130.641 209.298 130.667C209.564 130.694 209.891 130.721 210.278 130.747C210.304 130.614 210.318 130.481 210.318 130.347V129.967C210.318 129.461 210.171 129.101 209.878 128.887C209.584 128.661 209.151 128.547 208.578 128.547C207.898 128.547 207.284 128.634 206.738 128.807C206.191 128.981 205.731 129.154 205.358 129.327L204.738 127.287ZM208.158 134.627C208.798 134.627 209.278 134.514 209.598 134.287C209.918 134.047 210.151 133.794 210.298 133.527V132.327C210.164 132.301 209.964 132.274 209.698 132.247C209.431 132.207 209.144 132.187 208.838 132.187C208.584 132.187 208.331 132.214 208.077 132.267C207.824 132.307 207.598 132.381 207.398 132.487C207.198 132.581 207.038 132.707 206.918 132.867C206.798 133.027 206.738 133.221 206.738 133.447C206.738 133.821 206.844 134.114 207.058 134.327C207.284 134.527 207.651 134.627 208.158 134.627ZM216.67 122.607H220.93V131.847C220.93 132.874 221.056 133.587 221.31 133.987C221.563 134.387 221.97 134.587 222.53 134.587C222.943 134.587 223.283 134.547 223.55 134.467C223.816 134.374 224.083 134.247 224.35 134.087L225.33 135.887C225.103 136.034 224.876 136.174 224.65 136.307C224.423 136.427 224.183 136.527 223.93 136.607C223.676 136.701 223.396 136.767 223.09 136.807C222.796 136.861 222.463 136.887 222.09 136.887C220.836 136.887 219.896 136.567 219.27 135.927C218.643 135.287 218.33 134.381 218.33 133.207V124.807H216.67V122.607ZM228.662 122.607H232.922V131.847C232.922 132.874 233.049 133.587 233.302 133.987C233.555 134.387 233.962 134.587 234.522 134.587C234.935 134.587 235.275 134.547 235.542 134.467C235.809 134.374 236.075 134.247 236.342 134.087L237.322 135.887C237.095 136.034 236.869 136.174 236.642 136.307C236.415 136.427 236.175 136.527 235.922 136.607C235.669 136.701 235.389 136.767 235.082 136.807C234.789 136.861 234.455 136.887 234.082 136.887C232.829 136.887 231.889 136.567 231.262 135.927C230.635 135.287 230.322 134.381 230.322 133.207V124.807H228.662V122.607ZM250.906 126.607H254.306L254.606 127.807H254.686C255.38 126.821 256.5 126.327 258.046 126.327C258.66 126.327 259.22 126.427 259.726 126.627C260.246 126.814 260.686 127.114 261.046 127.527C261.42 127.941 261.706 128.461 261.906 129.087C262.106 129.714 262.206 130.467 262.206 131.347C262.206 132.201 262.093 132.974 261.866 133.667C261.64 134.347 261.313 134.927 260.886 135.407C260.46 135.887 259.94 136.254 259.326 136.507C258.713 136.761 258.013 136.887 257.226 136.887C256.813 136.887 256.406 136.854 256.006 136.787C255.606 136.734 255.273 136.641 255.006 136.507V140.607H252.406V128.807H250.906V126.607ZM257.266 128.527C256.76 128.527 256.293 128.654 255.866 128.907C255.453 129.161 255.166 129.541 255.006 130.047V134.207C255.193 134.354 255.46 134.474 255.806 134.567C256.166 134.647 256.526 134.687 256.886 134.687C257.26 134.687 257.606 134.627 257.926 134.507C258.246 134.374 258.526 134.167 258.766 133.887C259.006 133.607 259.193 133.254 259.326 132.827C259.46 132.401 259.526 131.887 259.526 131.287C259.526 130.407 259.313 129.727 258.886 129.247C258.46 128.767 257.92 128.527 257.266 128.527ZM264.078 134.407H267.598V128.807H264.078V126.607H270.198V134.407H273.898V136.607H264.078V134.407ZM267.118 123.887C267.118 123.474 267.272 123.121 267.578 122.827C267.885 122.534 268.312 122.387 268.858 122.387C269.418 122.387 269.865 122.534 270.198 122.827C270.532 123.121 270.698 123.474 270.698 123.887C270.698 124.314 270.532 124.667 270.198 124.947C269.865 125.214 269.418 125.347 268.858 125.347C268.312 125.347 267.885 125.214 267.578 124.947C267.272 124.667 267.118 124.314 267.118 123.887ZM274.891 122.607H279.131V130.587H279.731L283.011 126.607H286.071L282.031 131.167L284.651 134.407H286.511V136.607H283.271L279.831 132.467H279.131V136.607H276.531V124.807H274.891V122.607ZM287.663 134.407H290.143V128.807H287.663V126.607H292.163L292.463 127.927H292.543C292.916 127.487 293.343 127.121 293.823 126.827C294.303 126.534 294.863 126.387 295.503 126.387C296.303 126.387 296.929 126.681 297.383 127.267C297.849 127.854 298.083 128.834 298.083 130.207H295.743C295.743 129.727 295.669 129.381 295.523 129.167C295.389 128.941 295.169 128.827 294.863 128.827C294.329 128.827 293.896 128.961 293.563 129.227C293.243 129.494 292.969 129.801 292.743 130.147V134.407H297.083V136.607H287.663V134.407ZM309.555 135.547C309.382 135.707 309.155 135.867 308.875 136.027C308.608 136.174 308.288 136.314 307.915 136.447C307.555 136.581 307.155 136.687 306.715 136.767C306.275 136.847 305.808 136.887 305.315 136.887C304.462 136.887 303.695 136.767 303.015 136.527C302.348 136.287 301.782 135.941 301.315 135.487C300.848 135.021 300.488 134.467 300.235 133.827C299.995 133.174 299.875 132.434 299.875 131.607C299.875 130.727 300.015 129.961 300.295 129.307C300.575 128.641 300.955 128.087 301.435 127.647C301.928 127.207 302.502 126.881 303.155 126.667C303.808 126.441 304.515 126.327 305.275 126.327C305.782 126.327 306.302 126.394 306.835 126.527C307.382 126.661 307.882 126.894 308.335 127.227C308.788 127.547 309.155 127.981 309.435 128.527C309.728 129.074 309.875 129.767 309.875 130.607C309.875 131.181 309.808 131.801 309.675 132.467H302.475C302.488 132.894 302.575 133.254 302.735 133.547C302.908 133.841 303.128 134.081 303.395 134.267C303.675 134.454 303.988 134.594 304.335 134.687C304.695 134.767 305.075 134.807 305.475 134.807C306.275 134.807 306.928 134.714 307.435 134.527C307.955 134.341 308.375 134.114 308.695 133.847L309.555 135.547ZM305.235 128.407C304.888 128.407 304.562 128.454 304.255 128.547C303.948 128.641 303.668 128.781 303.415 128.967C303.175 129.141 302.975 129.361 302.815 129.627C302.655 129.894 302.562 130.194 302.535 130.527H307.455C307.455 129.874 307.268 129.361 306.895 128.987C306.535 128.601 305.982 128.407 305.235 128.407ZM315.087 131.447L311.607 126.607H314.707L316.967 129.947L319.327 126.607H322.147L318.727 131.407L322.347 136.607H319.327L316.787 132.927L314.207 136.607H311.367L315.087 131.447ZM325.939 129.707H331.759V132.007H325.939V129.707ZM337.172 128.807H335.192V126.607H337.172V124.327L339.772 123.587V126.607H345.012V128.807H339.772V131.667C339.772 132.694 339.965 133.441 340.352 133.907C340.738 134.361 341.278 134.587 341.972 134.587C342.332 134.587 342.658 134.547 342.952 134.467C343.245 134.374 343.505 134.261 343.732 134.127C343.972 133.994 344.185 133.847 344.372 133.687C344.572 133.527 344.752 133.381 344.912 133.247L346.112 135.047C345.885 135.314 345.598 135.561 345.252 135.787C344.918 136.001 344.552 136.194 344.152 136.367C343.765 136.527 343.358 136.654 342.932 136.747C342.505 136.841 342.085 136.887 341.672 136.887C340.178 136.887 339.052 136.474 338.292 135.647C337.545 134.807 337.172 133.481 337.172 131.667V128.807ZM347.624 134.407H350.104V128.807H347.624V126.607H352.124L352.424 127.927H352.504C352.877 127.487 353.304 127.121 353.784 126.827C354.264 126.534 354.824 126.387 355.464 126.387C356.264 126.387 356.89 126.681 357.344 127.267C357.81 127.854 358.044 128.834 358.044 130.207H355.704C355.704 129.727 355.63 129.381 355.484 129.167C355.35 128.941 355.13 128.827 354.824 128.827C354.29 128.827 353.857 128.961 353.524 129.227C353.204 129.494 352.93 129.801 352.704 130.147V134.407H357.044V136.607H347.624V134.407ZM360.636 127.287C361.169 127.047 361.783 126.841 362.476 126.667C363.183 126.494 364.016 126.407 364.976 126.407C365.669 126.407 366.256 126.494 366.736 126.667C367.229 126.827 367.623 127.061 367.916 127.367C368.223 127.674 368.443 128.041 368.576 128.467C368.709 128.894 368.776 129.374 368.776 129.907C368.776 130.587 368.749 131.167 368.696 131.647C368.656 132.127 368.636 132.554 368.636 132.927C368.636 133.207 368.649 133.521 368.676 133.867C368.703 134.054 368.723 134.234 368.736 134.407H370.036V136.607H366.716L366.456 135.247H366.356C366.089 135.661 365.709 136.021 365.216 136.327C364.723 136.621 364.056 136.767 363.216 136.767C362.216 136.767 361.423 136.501 360.836 135.967C360.249 135.434 359.956 134.727 359.956 133.847C359.956 133.287 360.056 132.807 360.256 132.407C360.469 131.994 360.769 131.661 361.156 131.407C361.556 131.141 362.029 130.947 362.576 130.827C363.136 130.694 363.756 130.627 364.436 130.627C364.676 130.627 364.929 130.641 365.196 130.667C365.463 130.694 365.789 130.721 366.176 130.747C366.203 130.614 366.216 130.481 366.216 130.347V129.967C366.216 129.461 366.069 129.101 365.776 128.887C365.483 128.661 365.049 128.547 364.476 128.547C363.796 128.547 363.183 128.634 362.636 128.807C362.089 128.981 361.629 129.154 361.256 129.327L360.636 127.287ZM364.056 134.627C364.696 134.627 365.176 134.514 365.496 134.287C365.816 134.047 366.049 133.794 366.196 133.527V132.327C366.063 132.301 365.863 132.274 365.596 132.247C365.329 132.207 365.043 132.187 364.736 132.187C364.483 132.187 364.229 132.214 363.976 132.267C363.723 132.307 363.496 132.381 363.296 132.487C363.096 132.581 362.936 132.707 362.816 132.867C362.696 133.027 362.636 133.221 362.636 133.447C362.636 133.821 362.743 134.114 362.956 134.327C363.183 134.527 363.549 134.627 364.056 134.627ZM371.068 126.607H374.568L374.868 127.927H374.948C375.255 127.501 375.695 127.127 376.268 126.807C376.841 126.487 377.528 126.327 378.328 126.327C378.821 126.327 379.281 126.394 379.708 126.527C380.148 126.661 380.521 126.881 380.828 127.187C381.135 127.494 381.375 127.914 381.548 128.447C381.735 128.967 381.828 129.614 381.828 130.387V136.607H379.228V130.927C379.228 130.114 379.041 129.527 378.668 129.167C378.308 128.807 377.848 128.627 377.288 128.627C376.795 128.627 376.341 128.774 375.928 129.067C375.528 129.347 375.255 129.701 375.108 130.127V136.607H372.508V128.807H371.068V126.607ZM390.86 133.847C390.86 133.581 390.694 133.367 390.36 133.207C390.04 133.047 389.64 132.901 389.16 132.767C388.68 132.634 388.154 132.501 387.58 132.367C387.007 132.221 386.48 132.027 386 131.787C385.52 131.534 385.114 131.221 384.78 130.847C384.46 130.461 384.3 129.967 384.3 129.367C384.3 128.874 384.407 128.441 384.62 128.067C384.847 127.694 385.147 127.381 385.52 127.127C385.907 126.861 386.36 126.661 386.88 126.527C387.414 126.394 387.987 126.327 388.6 126.327C389.254 126.327 389.827 126.374 390.32 126.467C390.814 126.561 391.24 126.674 391.6 126.807C391.974 126.941 392.287 127.094 392.54 127.267C392.807 127.427 393.034 127.574 393.22 127.707L392.12 129.487C391.92 129.367 391.687 129.247 391.42 129.127C391.167 128.994 390.894 128.874 390.6 128.767C390.32 128.661 390.02 128.574 389.7 128.507C389.394 128.441 389.087 128.407 388.78 128.407C388.22 128.407 387.767 128.481 387.42 128.627C387.074 128.774 386.9 129.001 386.9 129.307C386.9 129.547 387.06 129.741 387.38 129.887C387.714 130.034 388.12 130.174 388.6 130.307C389.08 130.427 389.607 130.561 390.18 130.707C390.754 130.854 391.28 131.047 391.76 131.287C392.24 131.514 392.64 131.814 392.96 132.187C393.294 132.561 393.46 133.041 393.46 133.627C393.46 134.641 393.087 135.441 392.34 136.027C391.607 136.601 390.514 136.887 389.06 136.887C387.914 136.887 386.92 136.721 386.08 136.387C385.254 136.041 384.587 135.641 384.08 135.187L385.28 133.307C385.454 133.454 385.68 133.621 385.96 133.807C386.254 133.981 386.58 134.141 386.94 134.287C387.3 134.434 387.68 134.561 388.08 134.667C388.494 134.761 388.9 134.807 389.3 134.807C389.727 134.807 390.094 134.734 390.4 134.587C390.707 134.441 390.86 134.194 390.86 133.847ZM396.553 122.607H400.813V131.847C400.813 132.874 400.939 133.587 401.193 133.987C401.446 134.387 401.853 134.587 402.413 134.587C402.826 134.587 403.166 134.547 403.433 134.467C403.699 134.374 403.966 134.247 404.233 134.087L405.213 135.887C404.986 136.034 404.759 136.174 404.533 136.307C404.306 136.427 404.066 136.527 403.813 136.607C403.559 136.701 403.279 136.767 402.973 136.807C402.679 136.861 402.346 136.887 401.973 136.887C400.719 136.887 399.779 136.567 399.153 135.927C398.526 135.287 398.213 134.381 398.213 133.207V124.807H396.553V122.607ZM408.605 127.287C409.138 127.047 409.751 126.841 410.445 126.667C411.151 126.494 411.985 126.407 412.945 126.407C413.638 126.407 414.225 126.494 414.705 126.667C415.198 126.827 415.591 127.061 415.885 127.367C416.191 127.674 416.411 128.041 416.545 128.467C416.678 128.894 416.745 129.374 416.745 129.907C416.745 130.587 416.718 131.167 416.665 131.647C416.625 132.127 416.605 132.554 416.605 132.927C416.605 133.207 416.618 133.521 416.645 133.867C416.671 134.054 416.691 134.234 416.705 134.407H418.005V136.607H414.685L414.425 135.247H414.325C414.058 135.661 413.678 136.021 413.185 136.327C412.691 136.621 412.025 136.767 411.185 136.767C410.185 136.767 409.391 136.501 408.805 135.967C408.218 135.434 407.925 134.727 407.925 133.847C407.925 133.287 408.025 132.807 408.225 132.407C408.438 131.994 408.738 131.661 409.125 131.407C409.525 131.141 409.998 130.947 410.545 130.827C411.105 130.694 411.725 130.627 412.405 130.627C412.645 130.627 412.898 130.641 413.165 130.667C413.431 130.694 413.758 130.721 414.145 130.747C414.171 130.614 414.185 130.481 414.185 130.347V129.967C414.185 129.461 414.038 129.101 413.745 128.887C413.451 128.661 413.018 128.547 412.445 128.547C411.765 128.547 411.151 128.634 410.605 128.807C410.058 128.981 409.598 129.154 409.225 129.327L408.605 127.287ZM412.025 134.627C412.665 134.627 413.145 134.514 413.465 134.287C413.785 134.047 414.018 133.794 414.165 133.527V132.327C414.031 132.301 413.831 132.274 413.565 132.247C413.298 132.207 413.011 132.187 412.705 132.187C412.451 132.187 412.198 132.214 411.945 132.267C411.691 132.307 411.465 132.381 411.265 132.487C411.065 132.581 410.905 132.707 410.785 132.867C410.665 133.027 410.605 133.221 410.605 133.447C410.605 133.821 410.711 134.114 410.925 134.327C411.151 134.527 411.518 134.627 412.025 134.627ZM421.117 128.807H419.137V126.607H421.117V124.327L423.717 123.587V126.607H428.957V128.807H423.717V131.667C423.717 132.694 423.91 133.441 424.297 133.907C424.684 134.361 425.224 134.587 425.917 134.587C426.277 134.587 426.604 134.547 426.897 134.467C427.19 134.374 427.45 134.261 427.677 134.127C427.917 133.994 428.13 133.847 428.317 133.687C428.517 133.527 428.697 133.381 428.857 133.247L430.057 135.047C429.83 135.314 429.544 135.561 429.197 135.787C428.864 136.001 428.497 136.194 428.097 136.367C427.71 136.527 427.304 136.654 426.877 136.747C426.45 136.841 426.03 136.887 425.617 136.887C424.124 136.887 422.997 136.474 422.237 135.647C421.49 134.807 421.117 133.481 421.117 131.667V128.807ZM431.489 131.607C431.489 130.767 431.616 130.021 431.869 129.367C432.122 128.714 432.482 128.161 432.949 127.707C433.416 127.254 433.969 126.914 434.609 126.687C435.262 126.447 435.989 126.327 436.789 126.327C437.629 126.327 438.376 126.454 439.029 126.707C439.696 126.961 440.256 127.321 440.709 127.787C441.162 128.241 441.502 128.794 441.729 129.447C441.969 130.101 442.089 130.821 442.089 131.607C442.089 132.447 441.962 133.194 441.709 133.847C441.456 134.501 441.096 135.054 440.629 135.507C440.162 135.961 439.602 136.307 438.949 136.547C438.309 136.774 437.589 136.887 436.789 136.887C435.949 136.887 435.196 136.761 434.529 136.507C433.876 136.254 433.322 135.901 432.869 135.447C432.416 134.981 432.069 134.421 431.829 133.767C431.602 133.114 431.489 132.394 431.489 131.607ZM434.169 131.607C434.169 132.047 434.229 132.454 434.349 132.827C434.469 133.201 434.642 133.527 434.869 133.807C435.096 134.087 435.369 134.307 435.689 134.467C436.009 134.614 436.376 134.687 436.789 134.687C437.562 134.687 438.189 134.441 438.669 133.947C439.162 133.454 439.409 132.674 439.409 131.607C439.409 130.687 439.182 129.947 438.729 129.387C438.276 128.814 437.629 128.527 436.789 128.527C436.416 128.527 436.069 128.587 435.749 128.707C435.429 128.814 435.149 128.994 434.909 129.247C434.682 129.501 434.502 129.821 434.369 130.207C434.236 130.594 434.169 131.061 434.169 131.607ZM443.561 134.407H446.041V128.807H443.561V126.607H448.061L448.361 127.927H448.441C448.815 127.487 449.241 127.121 449.721 126.827C450.201 126.534 450.761 126.387 451.401 126.387C452.201 126.387 452.828 126.681 453.281 127.267C453.748 127.854 453.981 128.834 453.981 130.207H451.641C451.641 129.727 451.568 129.381 451.421 129.167C451.288 128.941 451.068 128.827 450.761 128.827C450.228 128.827 449.795 128.961 449.461 129.227C449.141 129.494 448.868 129.801 448.641 130.147V134.407H452.981V136.607H443.561V134.407Z" fill="white"/>
<path d="M92.184 170.311C92.1947 169.597 92.296 168.983 92.488 168.471C92.6907 167.949 92.9467 167.501 93.256 167.127C93.576 166.743 93.912 166.397 94.264 166.087C94.616 165.767 94.9467 165.453 95.256 165.143C95.5653 164.823 95.8213 164.482 96.024 164.119C96.2267 163.746 96.328 163.309 96.328 162.807C96.328 162.807 96.376 162.807 96.472 162.807C96.568 162.807 96.6853 162.807 96.824 162.807C96.9733 162.807 97.1227 162.807 97.272 162.807C97.4213 162.807 97.544 162.807 97.64 162.807C97.736 162.807 97.784 162.807 97.784 162.807C97.784 163.469 97.6827 164.034 97.48 164.503C97.2773 164.962 97.016 165.367 96.696 165.719C96.3867 166.071 96.0507 166.402 95.688 166.711C95.336 167.01 95 167.325 94.68 167.655C94.3707 167.986 94.1147 168.365 93.912 168.791C93.7093 169.207 93.6027 169.714 93.592 170.311H92.184ZM92.184 171.607V170.311H97.768V171.607H92.184ZM93.304 162.615L91.96 162.343C92.024 161.874 92.184 161.463 92.44 161.111C92.7067 160.749 93.048 160.466 93.464 160.263C93.88 160.061 94.3333 159.959 94.824 159.959V161.223C94.44 161.223 94.104 161.335 93.816 161.559C93.528 161.783 93.3573 162.135 93.304 162.615ZM97.784 162.823H96.328C96.328 162.354 96.184 161.97 95.896 161.671C95.608 161.373 95.2453 161.223 94.808 161.223V159.959C95.3733 159.959 95.88 160.087 96.328 160.343C96.776 160.589 97.128 160.93 97.384 161.367C97.6507 161.794 97.784 162.279 97.784 162.823ZM100.244 171.671C99.9773 171.671 99.7533 171.581 99.572 171.399C99.3907 171.218 99.3 170.994 99.3 170.727C99.3 170.461 99.3907 170.237 99.572 170.055C99.7533 169.863 99.9773 169.767 100.244 169.767C100.511 169.767 100.735 169.863 100.916 170.055C101.108 170.237 101.204 170.461 101.204 170.727C101.204 170.994 101.108 171.218 100.916 171.399C100.735 171.581 100.511 171.671 100.244 171.671ZM107.112 169.351V168.103H111.208V169.351H107.112ZM109.688 160.327L106.936 171.607H105.496L108.248 160.327H109.688ZM109.72 160.327L112.472 171.607H111.048L108.28 160.327H109.72ZM119.625 163.543H118.169V160.327H119.625V163.543ZM118.169 171.607V163.527H119.625V171.607H118.169ZM113.673 169.031V166.103H115.129V169.031H113.673ZM115.129 166.103H113.673C113.673 165.57 113.785 165.09 114.009 164.663C114.233 164.237 114.537 163.901 114.921 163.655C115.316 163.41 115.764 163.287 116.265 163.287L116.633 164.583C116.196 164.583 115.833 164.727 115.545 165.015C115.268 165.293 115.129 165.655 115.129 166.103ZM118.809 166.135H118.169C118.169 165.677 118.025 165.303 117.737 165.015C117.449 164.727 117.081 164.583 116.633 164.583L116.265 163.287C116.745 163.287 117.177 163.41 117.561 163.655C117.956 163.901 118.26 164.242 118.473 164.679C118.697 165.106 118.809 165.591 118.809 166.135ZM115.129 169.031C115.129 169.479 115.268 169.847 115.545 170.135C115.833 170.413 116.196 170.551 116.633 170.551L116.265 171.847C115.764 171.847 115.316 171.725 114.921 171.479C114.537 171.234 114.233 170.898 114.009 170.471C113.785 170.045 113.673 169.565 113.673 169.031H115.129ZM118.809 168.983C118.809 169.527 118.697 170.018 118.473 170.455C118.26 170.882 117.956 171.223 117.561 171.479C117.177 171.725 116.745 171.847 116.265 171.847L116.633 170.551C117.081 170.551 117.449 170.407 117.737 170.119C118.025 169.831 118.169 169.453 118.169 168.983H118.809ZM127.203 163.543H125.747V160.327H127.203V163.543ZM125.747 171.607V163.527H127.203V171.607H125.747ZM121.251 169.031V166.103H122.707V169.031H121.251ZM122.707 166.103H121.251C121.251 165.57 121.363 165.09 121.587 164.663C121.811 164.237 122.115 163.901 122.499 163.655C122.894 163.41 123.342 163.287 123.843 163.287L124.211 164.583C123.774 164.583 123.411 164.727 123.123 165.015C122.846 165.293 122.707 165.655 122.707 166.103ZM126.387 166.135H125.747C125.747 165.677 125.603 165.303 125.315 165.015C125.027 164.727 124.659 164.583 124.211 164.583L123.843 163.287C124.323 163.287 124.755 163.41 125.139 163.655C125.534 163.901 125.838 164.242 126.051 164.679C126.275 165.106 126.387 165.591 126.387 166.135ZM122.707 169.031C122.707 169.479 122.846 169.847 123.123 170.135C123.411 170.413 123.774 170.551 124.211 170.551L123.843 171.847C123.342 171.847 122.894 171.725 122.499 171.479C122.115 171.234 121.811 170.898 121.587 170.471C121.363 170.045 121.251 169.565 121.251 169.031H122.707ZM126.387 168.983C126.387 169.527 126.275 170.018 126.051 170.455C125.838 170.882 125.534 171.223 125.139 171.479C124.755 171.725 124.323 171.847 123.843 171.847L124.211 170.551C124.659 170.551 125.027 170.407 125.315 170.119C125.603 169.831 125.747 169.453 125.747 168.983H126.387ZM132.196 174.567L132.5 173.367C132.916 173.474 133.263 173.447 133.54 173.287C133.817 173.127 134.036 172.797 134.196 172.295H135.54C135.22 173.298 134.777 173.981 134.212 174.343C133.657 174.706 132.985 174.781 132.196 174.567ZM134.196 172.295L136.932 163.527H138.388L135.54 172.295H134.196ZM134.468 172.199L131.652 163.527H133.108L135.188 170.167L134.468 172.199ZM143.728 168.743V166.391H145.184V168.743H143.728ZM139.232 168.743V166.391H140.688V168.743H139.232ZM142.16 164.551V163.287H142.256V164.551H142.16ZM142.16 171.847V170.583H142.256V171.847H142.16ZM139.232 166.407C139.232 165.81 139.36 165.277 139.616 164.807C139.883 164.338 140.235 163.97 140.672 163.703C141.12 163.426 141.627 163.287 142.192 163.287V164.551C141.723 164.551 141.355 164.711 141.088 165.031C140.821 165.351 140.688 165.81 140.688 166.407H139.232ZM145.184 166.407H143.728C143.728 165.81 143.595 165.351 143.328 165.031C143.072 164.711 142.704 164.551 142.224 164.551V163.287C142.789 163.287 143.291 163.426 143.728 163.703C144.176 163.97 144.528 164.338 144.784 164.807C145.051 165.277 145.184 165.81 145.184 166.407ZM139.232 168.727H140.688C140.688 169.314 140.821 169.773 141.088 170.103C141.355 170.423 141.723 170.583 142.192 170.583V171.847C141.627 171.847 141.12 171.714 140.672 171.447C140.235 171.17 139.883 170.797 139.616 170.327C139.36 169.858 139.232 169.325 139.232 168.727ZM145.184 168.727C145.184 169.325 145.051 169.858 144.784 170.327C144.528 170.797 144.176 171.17 143.728 171.447C143.291 171.714 142.789 171.847 142.224 171.847V170.583C142.704 170.583 143.072 170.423 143.328 170.103C143.595 169.773 143.728 169.314 143.728 168.727H145.184ZM152.375 163.527V171.607H150.919V163.527H152.375ZM147.879 163.527V169.031H146.423V163.527H147.879ZM147.879 169.031C147.879 169.479 148.018 169.847 148.295 170.135C148.583 170.413 148.946 170.551 149.383 170.551L149.015 171.847C148.514 171.847 148.066 171.725 147.671 171.479C147.287 171.234 146.983 170.898 146.759 170.471C146.535 170.045 146.423 169.565 146.423 169.031H147.879ZM151.559 168.983C151.559 169.527 151.447 170.018 151.223 170.455C151.01 170.882 150.706 171.223 150.311 171.479C149.927 171.725 149.495 171.847 149.015 171.847L149.383 170.551C149.831 170.551 150.199 170.407 150.487 170.119C150.775 169.831 150.919 169.453 150.919 168.983H151.559ZM154.288 171.607V163.527H155.744V171.607H154.288ZM155.088 166.279C155.088 165.725 155.184 165.223 155.376 164.775C155.579 164.327 155.851 163.981 156.192 163.735C156.533 163.479 156.917 163.351 157.344 163.351L157.024 164.711C156.651 164.711 156.341 164.861 156.096 165.159C155.861 165.447 155.744 165.821 155.744 166.279H155.088ZM158.048 165.143C157.888 165.005 157.717 164.898 157.536 164.823C157.365 164.749 157.195 164.711 157.024 164.711L157.344 163.351C157.589 163.351 157.819 163.394 158.032 163.479C158.245 163.554 158.459 163.693 158.672 163.895L158.048 165.143ZM167.118 171.607L164.254 167.143L165.646 166.679L168.638 171.607H167.118ZM164.302 168.727L163.182 167.975L166.686 163.527H168.446L164.302 168.727ZM163.054 171.607V160.087H164.51V171.607H163.054ZM169.727 168.007V166.967H175.183V168.007H169.727ZM172.207 171.863V170.599H172.287V171.863H172.207ZM169.263 168.743V166.391H170.719V168.743H169.263ZM173.727 166.967V166.135H175.183V166.967H173.727ZM175.183 166.135H173.727C173.727 165.666 173.583 165.282 173.295 164.983C173.018 164.685 172.655 164.535 172.207 164.535V163.287C172.783 163.287 173.29 163.41 173.727 163.655C174.175 163.901 174.527 164.242 174.783 164.679C175.05 165.106 175.183 165.591 175.183 166.135ZM173.791 169.207L175.151 169.479C175.087 169.938 174.922 170.349 174.655 170.711C174.388 171.074 174.052 171.357 173.647 171.559C173.242 171.762 172.788 171.863 172.287 171.863V170.599C172.671 170.599 173.002 170.487 173.279 170.263C173.567 170.029 173.738 169.677 173.791 169.207ZM169.263 166.407C169.263 165.799 169.391 165.266 169.647 164.807C169.914 164.338 170.266 163.97 170.703 163.703C171.151 163.426 171.658 163.287 172.223 163.287V164.535C171.754 164.535 171.386 164.701 171.119 165.031C170.852 165.351 170.719 165.81 170.719 166.407H169.263ZM169.263 168.743H170.719C170.719 169.33 170.852 169.789 171.119 170.119C171.386 170.439 171.754 170.599 172.223 170.599V171.863C171.658 171.863 171.151 171.73 170.703 171.463C170.266 171.186 169.914 170.813 169.647 170.343C169.391 169.874 169.263 169.341 169.263 168.743ZM176.774 174.567L177.078 173.367C177.494 173.474 177.841 173.447 178.118 173.287C178.395 173.127 178.614 172.797 178.774 172.295H180.118C179.798 173.298 179.355 173.981 178.79 174.343C178.235 174.706 177.563 174.781 176.774 174.567ZM178.774 172.295L181.51 163.527H182.966L180.118 172.295H178.774ZM179.046 172.199L176.23 163.527H177.686L179.766 170.167L179.046 172.199ZM187.957 169.159V160.311L189.413 160.327V169.159H187.957ZM187.029 164.727V163.527H191.429V164.727H187.029ZM187.957 169.143H189.413C189.413 169.453 189.455 169.714 189.541 169.927C189.626 170.141 189.749 170.306 189.909 170.423C190.069 170.53 190.261 170.583 190.485 170.583L190.357 171.847C189.61 171.847 189.023 171.613 188.597 171.143C188.17 170.663 187.957 169.997 187.957 169.143ZM191.237 170.311L191.813 171.351C191.599 171.511 191.365 171.634 191.109 171.719C190.863 171.805 190.613 171.847 190.357 171.847L190.485 170.583C190.623 170.583 190.751 170.562 190.869 170.519C190.997 170.466 191.119 170.397 191.237 170.311ZM196.869 168.743V166.391H198.325V168.743H196.869ZM192.373 168.743V166.391H193.829V168.743H192.373ZM195.301 164.551V163.287H195.397V164.551H195.301ZM195.301 171.847V170.583H195.397V171.847H195.301ZM192.373 166.407C192.373 165.81 192.501 165.277 192.757 164.807C193.023 164.338 193.375 163.97 193.812 163.703C194.261 163.426 194.767 163.287 195.333 163.287V164.551C194.863 164.551 194.495 164.711 194.229 165.031C193.962 165.351 193.829 165.81 193.829 166.407H192.373ZM198.325 166.407H196.869C196.869 165.81 196.735 165.351 196.469 165.031C196.213 164.711 195.845 164.551 195.365 164.551V163.287C195.93 163.287 196.431 163.426 196.869 163.703C197.317 163.97 197.669 164.338 197.925 164.807C198.191 165.277 198.325 165.81 198.325 166.407ZM192.373 168.727H193.829C193.829 169.314 193.962 169.773 194.229 170.103C194.495 170.423 194.863 170.583 195.333 170.583V171.847C194.767 171.847 194.261 171.714 193.812 171.447C193.375 171.17 193.023 170.797 192.757 170.327C192.501 169.858 192.373 169.325 192.373 168.727ZM198.325 168.727C198.325 169.325 198.191 169.858 197.925 170.327C197.669 170.797 197.317 171.17 196.869 171.447C196.431 171.714 195.93 171.847 195.365 171.847V170.583C195.845 170.583 196.213 170.423 196.469 170.103C196.735 169.773 196.869 169.314 196.869 168.727H198.325ZM202.93 174.567L203.234 173.367C203.65 173.474 203.997 173.447 204.274 173.287C204.552 173.127 204.77 172.797 204.93 172.295H206.274C205.954 173.298 205.512 173.981 204.946 174.343C204.392 174.706 203.72 174.781 202.93 174.567ZM204.93 172.295L207.666 163.527H209.122L206.274 172.295H204.93ZM205.202 172.199L202.386 163.527H203.842L205.922 170.167L205.202 172.199ZM214.462 168.743V166.391H215.918V168.743H214.462ZM209.966 168.743V166.391H211.422V168.743H209.966ZM212.894 164.551V163.287H212.99V164.551H212.894ZM212.894 171.847V170.583H212.99V171.847H212.894ZM209.966 166.407C209.966 165.81 210.094 165.277 210.35 164.807C210.617 164.338 210.969 163.97 211.406 163.703C211.854 163.426 212.361 163.287 212.926 163.287V164.551C212.457 164.551 212.089 164.711 211.822 165.031C211.556 165.351 211.422 165.81 211.422 166.407H209.966ZM215.918 166.407H214.462C214.462 165.81 214.329 165.351 214.062 165.031C213.806 164.711 213.438 164.551 212.958 164.551V163.287C213.524 163.287 214.025 163.426 214.462 163.703C214.91 163.97 215.262 164.338 215.518 164.807C215.785 165.277 215.918 165.81 215.918 166.407ZM209.966 168.727H211.422C211.422 169.314 211.556 169.773 211.822 170.103C212.089 170.423 212.457 170.583 212.926 170.583V171.847C212.361 171.847 211.854 171.714 211.406 171.447C210.969 171.17 210.617 170.797 210.35 170.327C210.094 169.858 209.966 169.325 209.966 168.727ZM215.918 168.727C215.918 169.325 215.785 169.858 215.518 170.327C215.262 170.797 214.91 171.17 214.462 171.447C214.025 171.714 213.524 171.847 212.958 171.847V170.583C213.438 170.583 213.806 170.423 214.062 170.103C214.329 169.773 214.462 169.314 214.462 168.727H215.918ZM223.11 163.527V171.607H221.654V163.527H223.11ZM218.614 163.527V169.031H217.158V163.527H218.614ZM218.614 169.031C218.614 169.479 218.752 169.847 219.03 170.135C219.318 170.413 219.68 170.551 220.118 170.551L219.75 171.847C219.248 171.847 218.8 171.725 218.406 171.479C218.022 171.234 217.718 170.898 217.493 170.471C217.27 170.045 217.158 169.565 217.158 169.031H218.614ZM222.294 168.983C222.294 169.527 222.182 170.018 221.958 170.455C221.744 170.882 221.44 171.223 221.046 171.479C220.662 171.725 220.23 171.847 219.75 171.847L220.118 170.551C220.566 170.551 220.934 170.407 221.222 170.119C221.51 169.831 221.654 169.453 221.654 168.983H222.294ZM225.023 171.607V163.527H226.479V171.607H225.023ZM225.823 166.279C225.823 165.725 225.919 165.223 226.111 164.775C226.313 164.327 226.585 163.981 226.927 163.735C227.268 163.479 227.652 163.351 228.079 163.351L227.759 164.711C227.385 164.711 227.076 164.861 226.831 165.159C226.596 165.447 226.479 165.821 226.479 166.279H225.823ZM228.783 165.143C228.623 165.005 228.452 164.898 228.271 164.823C228.1 164.749 227.929 164.711 227.759 164.711L228.079 163.351C228.324 163.351 228.553 163.394 228.766 163.479C228.98 163.554 229.193 163.693 229.407 163.895L228.783 165.143ZM233.788 171.591H235.244V174.807H233.788V171.591ZM235.244 163.527V171.607H233.788V163.527H235.244ZM239.74 166.103V169.031H238.284V166.103H239.74ZM238.284 169.031H239.74C239.74 169.565 239.628 170.045 239.404 170.471C239.18 170.898 238.871 171.234 238.476 171.479C238.092 171.725 237.655 171.847 237.164 171.847L236.796 170.551C237.233 170.551 237.591 170.413 237.868 170.135C238.145 169.847 238.284 169.479 238.284 169.031ZM234.604 168.983H235.244C235.244 169.453 235.388 169.831 235.676 170.119C235.964 170.407 236.337 170.551 236.796 170.551L237.164 171.847C236.673 171.847 236.236 171.725 235.852 171.479C235.468 171.223 235.164 170.882 234.94 170.455C234.716 170.018 234.604 169.527 234.604 168.983ZM238.284 166.103C238.284 165.655 238.145 165.293 237.868 165.015C237.591 164.727 237.233 164.583 236.796 164.583L237.164 163.287C237.655 163.287 238.092 163.41 238.476 163.655C238.871 163.901 239.18 164.237 239.404 164.663C239.628 165.09 239.74 165.57 239.74 166.103H238.284ZM234.604 166.135C234.604 165.591 234.716 165.106 234.94 164.679C235.164 164.242 235.468 163.901 235.852 163.655C236.236 163.41 236.673 163.287 237.164 163.287L236.796 164.583C236.337 164.583 235.964 164.727 235.676 165.015C235.388 165.303 235.244 165.677 235.244 166.135H234.604ZM241.366 171.607V163.527H242.822V171.607H241.366ZM242.166 166.279C242.166 165.725 242.262 165.223 242.454 164.775C242.657 164.327 242.929 163.981 243.27 163.735C243.612 163.479 243.996 163.351 244.422 163.351L244.102 164.711C243.729 164.711 243.42 164.861 243.174 165.159C242.94 165.447 242.822 165.821 242.822 166.279H242.166ZM245.126 165.143C244.966 165.005 244.796 164.898 244.614 164.823C244.444 164.749 244.273 164.711 244.102 164.711L244.422 163.351C244.668 163.351 244.897 163.394 245.11 163.479C245.324 163.554 245.537 163.693 245.75 163.895L245.126 165.143ZM250.681 168.743V166.391H252.137V168.743H250.681ZM246.185 168.743V166.391H247.641V168.743H246.185ZM249.113 164.551V163.287H249.209V164.551H249.113ZM249.113 171.847V170.583H249.209V171.847H249.113ZM246.185 166.407C246.185 165.81 246.313 165.277 246.569 164.807C246.836 164.338 247.188 163.97 247.625 163.703C248.073 163.426 248.58 163.287 249.145 163.287V164.551C248.676 164.551 248.308 164.711 248.041 165.031C247.774 165.351 247.641 165.81 247.641 166.407H246.185ZM252.137 166.407H250.681C250.681 165.81 250.548 165.351 250.281 165.031C250.025 164.711 249.657 164.551 249.177 164.551V163.287C249.742 163.287 250.244 163.426 250.681 163.703C251.129 163.97 251.481 164.338 251.737 164.807C252.004 165.277 252.137 165.81 252.137 166.407ZM246.185 168.727H247.641C247.641 169.314 247.774 169.773 248.041 170.103C248.308 170.423 248.676 170.583 249.145 170.583V171.847C248.58 171.847 248.073 171.714 247.625 171.447C247.188 171.17 246.836 170.797 246.569 170.327C246.313 169.858 246.185 169.325 246.185 168.727ZM252.137 168.727C252.137 169.325 252.004 169.858 251.737 170.327C251.481 170.797 251.129 171.17 250.681 171.447C250.244 171.714 249.742 171.847 249.177 171.847V170.583C249.657 170.583 250.025 170.423 250.281 170.103C250.548 169.773 250.681 169.314 250.681 168.727H252.137ZM255.707 171.591C255.707 172.434 255.499 173.095 255.083 173.575C254.667 174.055 254.081 174.295 253.323 174.295L253.179 173.031C253.403 173.031 253.595 172.973 253.755 172.855C253.915 172.738 254.038 172.573 254.123 172.359C254.209 172.146 254.251 171.89 254.251 171.591H255.707ZM252.443 172.759C252.55 172.834 252.667 172.898 252.795 172.951C252.913 173.005 253.041 173.031 253.179 173.031L253.323 174.295C253.057 174.295 252.801 174.253 252.555 174.167C252.31 174.082 252.081 173.959 251.867 173.799L252.443 172.759ZM254.251 171.607V163.527H255.707V171.607H254.251ZM255.211 162.439C254.945 162.439 254.721 162.349 254.539 162.167C254.358 161.986 254.267 161.762 254.267 161.495C254.267 161.229 254.358 161.005 254.539 160.823C254.721 160.631 254.945 160.535 255.211 160.535C255.478 160.535 255.702 160.631 255.883 160.823C256.075 161.005 256.171 161.229 256.171 161.495C256.171 161.762 256.075 161.986 255.883 162.167C255.702 162.349 255.478 162.439 255.211 162.439ZM257.805 168.007V166.967H263.261V168.007H257.805ZM260.285 171.863V170.599H260.365V171.863H260.285ZM257.341 168.743V166.391H258.797V168.743H257.341ZM261.805 166.967V166.135H263.261V166.967H261.805ZM263.261 166.135H261.805C261.805 165.666 261.661 165.282 261.373 164.983C261.096 164.685 260.733 164.535 260.285 164.535V163.287C260.861 163.287 261.368 163.41 261.805 163.655C262.253 163.901 262.605 164.242 262.861 164.679C263.128 165.106 263.261 165.591 263.261 166.135ZM261.869 169.207L263.229 169.479C263.165 169.938 263 170.349 262.733 170.711C262.467 171.074 262.131 171.357 261.725 171.559C261.32 171.762 260.867 171.863 260.365 171.863V170.599C260.749 170.599 261.08 170.487 261.357 170.263C261.645 170.029 261.816 169.677 261.869 169.207ZM257.341 166.407C257.341 165.799 257.469 165.266 257.725 164.807C257.992 164.338 258.344 163.97 258.781 163.703C259.229 163.426 259.736 163.287 260.301 163.287V164.535C259.832 164.535 259.464 164.701 259.197 165.031C258.931 165.351 258.797 165.81 258.797 166.407H257.341ZM257.341 168.743H258.797C258.797 169.33 258.931 169.789 259.197 170.119C259.464 170.439 259.832 170.599 260.301 170.599V171.863C259.736 171.863 259.229 171.73 258.781 171.463C258.344 171.186 257.992 170.813 257.725 170.343C257.469 169.874 257.341 169.341 257.341 168.743ZM264.611 168.759V166.375H266.067V168.759H264.611ZM264.611 166.391C264.611 165.794 264.739 165.261 264.995 164.791C265.261 164.322 265.613 163.954 266.051 163.687C266.499 163.41 267.005 163.271 267.571 163.271V164.535C267.101 164.535 266.733 164.695 266.467 165.015C266.2 165.335 266.067 165.794 266.067 166.391H264.611ZM269.059 165.927C269.005 165.447 268.835 165.095 268.547 164.871C268.269 164.647 267.939 164.535 267.555 164.535V163.271C268.056 163.271 268.509 163.373 268.915 163.575C269.32 163.778 269.656 164.061 269.923 164.423C270.189 164.775 270.355 165.186 270.419 165.655L269.059 165.927ZM264.611 168.743H266.067C266.067 169.33 266.2 169.789 266.467 170.119C266.733 170.439 267.101 170.599 267.571 170.599V171.863C267.005 171.863 266.499 171.73 266.051 171.463C265.613 171.186 265.261 170.813 264.995 170.343C264.739 169.874 264.611 169.341 264.611 168.743ZM269.059 169.207L270.419 169.479C270.355 169.938 270.189 170.349 269.923 170.711C269.656 171.074 269.32 171.357 268.915 171.559C268.509 171.762 268.056 171.863 267.555 171.863V170.599C267.939 170.599 268.269 170.487 268.547 170.263C268.835 170.029 269.005 169.677 269.059 169.207ZM272.222 169.159V160.311L273.678 160.327V169.159H272.222ZM271.294 164.727V163.527H275.694V164.727H271.294ZM272.222 169.143H273.678C273.678 169.453 273.721 169.714 273.806 169.927C273.892 170.141 274.014 170.306 274.174 170.423C274.334 170.53 274.526 170.583 274.75 170.583L274.622 171.847C273.876 171.847 273.289 171.613 272.862 171.143C272.436 170.663 272.222 169.997 272.222 169.143ZM275.502 170.311L276.078 171.351C275.865 171.511 275.63 171.634 275.374 171.719C275.129 171.805 274.878 171.847 274.622 171.847L274.75 170.583C274.889 170.583 275.017 170.562 275.134 170.519C275.262 170.466 275.385 170.397 275.502 170.311Z" fill="white"/>
<rect x="91" y="182.607" width="332" height="30" rx="15" fill="#FAC7E1"/>
<path d="M108.46 190.747C109.02 190.641 109.633 190.561 110.3 190.507C110.98 190.441 111.653 190.407 112.32 190.407C113.013 190.407 113.707 190.467 114.4 190.587C115.107 190.694 115.74 190.921 116.3 191.267C116.86 191.601 117.313 192.074 117.66 192.687C118.02 193.287 118.2 194.074 118.2 195.047C118.2 195.901 118.047 196.634 117.74 197.247C117.433 197.847 117.027 198.347 116.52 198.747C116.013 199.134 115.433 199.421 114.78 199.607C114.14 199.781 113.473 199.867 112.78 199.867C112.713 199.867 112.607 199.867 112.46 199.867C112.313 199.867 112.16 199.867 112 199.867C111.84 199.854 111.68 199.841 111.52 199.827C111.373 199.814 111.267 199.801 111.2 199.787V204.607H108.46V190.747ZM112.54 192.767C112.273 192.767 112.02 192.781 111.78 192.807C111.54 192.821 111.347 192.841 111.2 192.867V197.407C111.253 197.421 111.333 197.434 111.44 197.447C111.547 197.461 111.66 197.474 111.78 197.487C111.9 197.487 112.013 197.487 112.12 197.487C112.24 197.487 112.327 197.487 112.38 197.487C112.74 197.487 113.093 197.454 113.44 197.387C113.8 197.321 114.12 197.201 114.4 197.027C114.68 196.841 114.9 196.587 115.06 196.267C115.233 195.947 115.32 195.527 115.32 195.007C115.32 194.567 115.24 194.207 115.08 193.927C114.92 193.634 114.707 193.401 114.44 193.227C114.187 193.054 113.893 192.934 113.56 192.867C113.227 192.801 112.887 192.767 112.54 192.767ZM120.072 202.167H123.612V193.047H120.072V190.607H129.912V193.047H126.352V202.167H129.912V204.607H120.072V202.167ZM136.104 198.767H134.684V204.607H131.944V190.607H134.684V196.327H136.104L139.304 190.607H142.424L138.484 197.367L142.924 204.607H139.544L136.104 198.767ZM144.217 190.747C144.523 190.694 144.85 190.647 145.197 190.607C145.557 190.554 145.91 190.514 146.257 190.487C146.617 190.461 146.963 190.441 147.297 190.427C147.63 190.414 147.937 190.407 148.217 190.407C148.87 190.407 149.51 190.474 150.137 190.607C150.777 190.727 151.343 190.941 151.837 191.247C152.343 191.554 152.743 191.967 153.037 192.487C153.343 193.007 153.497 193.654 153.497 194.427C153.497 195.001 153.437 195.501 153.317 195.927C153.21 196.341 153.057 196.707 152.857 197.027C152.657 197.347 152.41 197.627 152.117 197.867C151.837 198.094 151.53 198.301 151.197 198.487L154.577 204.607H151.417L148.597 199.127H146.957V204.607H144.217V190.747ZM148.417 192.847C148.137 192.847 147.857 192.854 147.577 192.867C147.31 192.881 147.103 192.907 146.957 192.947V197.007H148.037C148.797 197.007 149.417 196.834 149.897 196.487C150.377 196.141 150.617 195.567 150.617 194.767C150.617 194.167 150.43 193.701 150.057 193.367C149.683 193.021 149.137 192.847 148.417 192.847ZM156.369 190.607H165.549V193.047H159.109V196.307H165.049V198.747H159.109V202.167H165.649V204.607H156.369V190.607ZM171.361 197.427L167.401 190.607H170.601L172.641 194.407L173.101 195.427L173.541 194.407L175.621 190.607H178.721L174.701 197.447L178.841 204.607H175.641L173.501 200.607L172.961 199.527L172.441 200.607L170.201 204.607H167.101L171.361 197.427ZM180.513 206.947H189.393V209.087H180.513V206.947ZM198.945 201.507H194.765L193.805 204.607H191.065L195.585 190.607H198.325L202.825 204.607H199.945L198.945 201.507ZM195.405 199.307H198.405L196.985 194.627H196.805L195.405 199.307ZM204.398 190.747C204.958 190.641 205.571 190.561 206.238 190.507C206.918 190.441 207.591 190.407 208.258 190.407C208.951 190.407 209.644 190.467 210.338 190.587C211.044 190.694 211.678 190.921 212.238 191.267C212.798 191.601 213.251 192.074 213.598 192.687C213.958 193.287 214.138 194.074 214.138 195.047C214.138 195.901 213.984 196.634 213.678 197.247C213.371 197.847 212.964 198.347 212.458 198.747C211.951 199.134 211.371 199.421 210.718 199.607C210.078 199.781 209.411 199.867 208.718 199.867C208.651 199.867 208.544 199.867 208.398 199.867C208.251 199.867 208.098 199.867 207.938 199.867C207.778 199.854 207.618 199.841 207.458 199.827C207.311 199.814 207.204 199.801 207.138 199.787V204.607H204.398V190.747ZM208.478 192.767C208.211 192.767 207.958 192.781 207.718 192.807C207.478 192.821 207.284 192.841 207.138 192.867V197.407C207.191 197.421 207.271 197.434 207.378 197.447C207.484 197.461 207.598 197.474 207.718 197.487C207.838 197.487 207.951 197.487 208.058 197.487C208.178 197.487 208.264 197.487 208.318 197.487C208.678 197.487 209.031 197.454 209.378 197.387C209.738 197.321 210.058 197.201 210.338 197.027C210.618 196.841 210.838 196.587 210.998 196.267C211.171 195.947 211.258 195.527 211.258 195.007C211.258 194.567 211.178 194.207 211.018 193.927C210.858 193.634 210.644 193.401 210.378 193.227C210.124 193.054 209.831 192.934 209.498 192.867C209.164 192.801 208.824 192.767 208.478 192.767ZM216.39 190.747C216.95 190.641 217.563 190.561 218.23 190.507C218.91 190.441 219.583 190.407 220.25 190.407C220.943 190.407 221.636 190.467 222.33 190.587C223.036 190.694 223.67 190.921 224.23 191.267C224.79 191.601 225.243 192.074 225.59 192.687C225.95 193.287 226.13 194.074 226.13 195.047C226.13 195.901 225.976 196.634 225.67 197.247C225.363 197.847 224.956 198.347 224.45 198.747C223.943 199.134 223.363 199.421 222.71 199.607C222.07 199.781 221.403 199.867 220.71 199.867C220.643 199.867 220.536 199.867 220.39 199.867C220.243 199.867 220.09 199.867 219.93 199.867C219.77 199.854 219.61 199.841 219.45 199.827C219.303 199.814 219.196 199.801 219.13 199.787V204.607H216.39V190.747ZM220.47 192.767C220.203 192.767 219.95 192.781 219.71 192.807C219.47 192.821 219.276 192.841 219.13 192.867V197.407C219.183 197.421 219.263 197.434 219.37 197.447C219.476 197.461 219.59 197.474 219.71 197.487C219.83 197.487 219.943 197.487 220.05 197.487C220.17 197.487 220.256 197.487 220.31 197.487C220.67 197.487 221.023 197.454 221.37 197.387C221.73 197.321 222.05 197.201 222.33 197.027C222.61 196.841 222.83 196.587 222.99 196.267C223.163 195.947 223.25 195.527 223.25 195.007C223.25 194.567 223.17 194.207 223.01 193.927C222.85 193.634 222.636 193.401 222.37 193.227C222.116 193.054 221.823 192.934 221.49 192.867C221.156 192.801 220.816 192.767 220.47 192.767ZM228.482 206.947H237.362V209.087H228.482V206.947ZM244.034 198.767H242.614V204.607H239.874V190.607H242.614V196.327H244.034L247.234 190.607H250.354L246.414 197.367L250.854 204.607H247.474L244.034 198.767ZM252.306 190.607H261.486V193.047H255.046V196.307H260.986V198.747H255.046V202.167H261.586V204.607H252.306V190.607ZM267.538 199.447L263.018 190.607H266.278L268.978 196.387H269.078L271.838 190.607H274.778L270.278 199.427V204.607H267.538V199.447ZM276.071 194.807H285.711V197.047H276.071V194.807ZM276.071 198.647H285.711V200.887H276.071V198.647ZM289.503 190.607H291.783L291.063 196.927H289.503V190.607ZM293.823 190.607H296.103L295.383 196.927H293.823V190.607ZM303.995 198.767H302.575V204.607H299.835V190.607H302.575V196.327H303.995L307.195 190.607H310.315L306.375 197.367L310.815 204.607H307.435L303.995 198.767ZM312.267 190.607H321.447V193.047H315.007V196.307H320.947V198.747H315.007V202.167H321.547V204.607H312.267V190.607ZM327.499 199.447L322.979 190.607H326.239L328.939 196.387H329.039L331.799 190.607H334.739L330.239 199.427V204.607H327.499V199.447ZM336.412 206.947H345.292V209.087H336.412V206.947ZM348.304 190.747C348.864 190.641 349.477 190.561 350.144 190.507C350.824 190.441 351.497 190.407 352.164 190.407C352.857 190.407 353.55 190.467 354.244 190.587C354.95 190.694 355.584 190.921 356.144 191.267C356.704 191.601 357.157 192.074 357.504 192.687C357.864 193.287 358.044 194.074 358.044 195.047C358.044 195.901 357.89 196.634 357.584 197.247C357.277 197.847 356.87 198.347 356.364 198.747C355.857 199.134 355.277 199.421 354.624 199.607C353.984 199.781 353.317 199.867 352.624 199.867C352.557 199.867 352.45 199.867 352.304 199.867C352.157 199.867 352.004 199.867 351.844 199.867C351.684 199.854 351.524 199.841 351.364 199.827C351.217 199.814 351.11 199.801 351.044 199.787V204.607H348.304V190.747ZM352.384 192.767C352.117 192.767 351.864 192.781 351.624 192.807C351.384 192.821 351.19 192.841 351.044 192.867V197.407C351.097 197.421 351.177 197.434 351.284 197.447C351.39 197.461 351.504 197.474 351.624 197.487C351.744 197.487 351.857 197.487 351.964 197.487C352.084 197.487 352.17 197.487 352.224 197.487C352.584 197.487 352.937 197.454 353.284 197.387C353.644 197.321 353.964 197.201 354.244 197.027C354.524 196.841 354.744 196.587 354.904 196.267C355.077 195.947 355.164 195.527 355.164 195.007C355.164 194.567 355.084 194.207 354.924 193.927C354.764 193.634 354.55 193.401 354.284 193.227C354.03 193.054 353.737 192.934 353.404 192.867C353.07 192.801 352.73 192.767 352.384 192.767ZM366.836 201.507H362.656L361.696 204.607H358.956L363.476 190.607H366.216L370.716 204.607H367.836L366.836 201.507ZM363.296 199.307H366.296L364.876 194.627H364.696L363.296 199.307ZM373.188 202.407H375.468V192.807H373.548V195.227H371.348V190.607H382.308V195.227H380.108V192.807H378.208V202.407H380.468V204.607H373.188V202.407ZM391.08 198.747H386.56V204.607H383.82V190.607H386.56V196.307H391.08V190.607H393.82V204.607H391.08V198.747ZM397.433 190.607H399.713L398.993 196.927H397.433V190.607ZM401.753 190.607H404.033L403.313 196.927H401.753V190.607Z" fill="#121212"/>
<path d="M94.648 234.311V233.047C95.0533 233.047 95.384 232.871 95.64 232.519C95.9067 232.167 96.04 231.714 96.04 231.159H97.496C97.496 231.767 97.3733 232.311 97.128 232.791C96.8933 233.261 96.5627 233.634 96.136 233.911C95.7093 234.178 95.2133 234.311 94.648 234.311ZM96.2 237.015V235.895H97.656V237.015H96.2ZM93.672 234.311V233.047H94.664V234.311H93.672ZM96.04 231.175C96.04 230.642 95.9067 230.205 95.64 229.863C95.384 229.522 95.0533 229.351 94.648 229.351V228.087C95.2133 228.087 95.7093 228.221 96.136 228.487C96.5627 228.743 96.8933 229.106 97.128 229.575C97.3733 230.034 97.496 230.567 97.496 231.175H96.04ZM97.656 236.999C97.656 237.543 97.528 238.034 97.272 238.471C97.016 238.898 96.664 239.239 96.216 239.495C95.768 239.741 95.2613 239.863 94.696 239.863V238.599C95.1333 238.599 95.4907 238.45 95.768 238.151C96.056 237.842 96.2 237.458 96.2 236.999H97.656ZM97.656 235.911H96.2C96.2 235.442 96.056 235.058 95.768 234.759C95.4907 234.461 95.1333 234.311 94.696 234.311V233.047C95.2613 233.047 95.768 233.17 96.216 233.415C96.664 233.661 97.016 234.002 97.272 234.439C97.528 234.877 97.656 235.367 97.656 235.911ZM93.144 230.743L91.8 230.471C91.864 230.002 92.024 229.591 92.28 229.239C92.5467 228.877 92.888 228.594 93.304 228.391C93.72 228.189 94.1733 228.087 94.664 228.087V229.351C94.28 229.351 93.944 229.463 93.656 229.687C93.368 229.911 93.1973 230.263 93.144 230.743ZM93.192 237.207C93.2453 237.677 93.4107 238.029 93.688 238.263C93.976 238.487 94.3173 238.599 94.712 238.599V239.863C94.2107 239.863 93.752 239.762 93.336 239.559C92.9307 239.357 92.5947 239.074 92.328 238.711C92.072 238.349 91.912 237.938 91.848 237.479L93.192 237.207ZM100.119 239.671C99.8523 239.671 99.6283 239.581 99.447 239.399C99.2657 239.218 99.175 238.994 99.175 238.727C99.175 238.461 99.2657 238.237 99.447 238.055C99.6283 237.863 99.8523 237.767 100.119 237.767C100.386 237.767 100.61 237.863 100.791 238.055C100.983 238.237 101.079 238.461 101.079 238.727C101.079 238.994 100.983 239.218 100.791 239.399C100.61 239.581 100.386 239.671 100.119 239.671ZM110.155 239.607L108.107 234.103H109.595L111.643 239.607H110.155ZM106.795 234.823V233.575H108.427V234.823H106.795ZM106.795 229.591V228.327H108.427V229.591H106.795ZM110.123 231.847V231.303H111.579V231.847H110.123ZM111.579 231.319H110.123C110.123 230.765 109.968 230.338 109.659 230.039C109.36 229.741 108.944 229.591 108.411 229.591V228.327C109.04 228.327 109.589 228.455 110.059 228.711C110.539 228.957 110.912 229.309 111.179 229.767C111.445 230.215 111.579 230.733 111.579 231.319ZM111.579 231.831C111.579 232.418 111.445 232.941 111.179 233.399C110.912 233.847 110.539 234.199 110.059 234.455C109.589 234.701 109.04 234.823 108.411 234.823V233.575C108.944 233.575 109.36 233.421 109.659 233.111C109.968 232.802 110.123 232.375 110.123 231.831H111.579ZM105.851 239.607V228.327H107.307V239.607H105.851ZM118.953 231.527V239.607H117.497V231.527H118.953ZM114.457 231.527V237.031H113.001V231.527H114.457ZM114.457 237.031C114.457 237.479 114.596 237.847 114.873 238.135C115.161 238.413 115.524 238.551 115.961 238.551L115.593 239.847C115.092 239.847 114.644 239.725 114.249 239.479C113.865 239.234 113.561 238.898 113.337 238.471C113.113 238.045 113.001 237.565 113.001 237.031H114.457ZM118.137 236.983C118.137 237.527 118.025 238.018 117.801 238.455C117.588 238.882 117.284 239.223 116.889 239.479C116.505 239.725 116.073 239.847 115.593 239.847L115.961 238.551C116.409 238.551 116.777 238.407 117.065 238.119C117.353 237.831 117.497 237.453 117.497 236.983H118.137ZM120.866 239.607V231.527H122.322V239.607H120.866ZM125.362 239.607V234.103H126.818V239.607H125.362ZM125.362 234.103C125.362 233.655 125.224 233.293 124.946 233.015C124.669 232.727 124.312 232.583 123.874 232.583L124.242 231.287C124.733 231.287 125.17 231.41 125.554 231.655C125.949 231.901 126.258 232.237 126.482 232.663C126.706 233.09 126.818 233.57 126.818 234.103H125.362ZM121.682 234.135C121.682 233.591 121.794 233.106 122.018 232.679C122.242 232.242 122.546 231.901 122.93 231.655C123.314 231.41 123.752 231.287 124.242 231.287L123.874 232.583C123.416 232.583 123.042 232.727 122.754 233.015C122.466 233.303 122.322 233.677 122.322 234.135H121.682ZM131.571 242.567L131.875 241.367C132.291 241.474 132.638 241.447 132.915 241.287C133.192 241.127 133.411 240.797 133.571 240.295H134.915C134.595 241.298 134.152 241.981 133.587 242.343C133.032 242.706 132.36 242.781 131.571 242.567ZM133.571 240.295L136.307 231.527H137.763L134.915 240.295H133.571ZM133.843 240.199L131.027 231.527H132.483L134.563 238.167L133.843 240.199ZM143.103 236.743V234.391H144.559V236.743H143.103ZM138.607 236.743V234.391H140.063V236.743H138.607ZM141.535 232.551V231.287H141.631V232.551H141.535ZM141.535 239.847V238.583H141.631V239.847H141.535ZM138.607 234.407C138.607 233.81 138.735 233.277 138.991 232.807C139.258 232.338 139.61 231.97 140.047 231.703C140.495 231.426 141.002 231.287 141.567 231.287V232.551C141.098 232.551 140.73 232.711 140.463 233.031C140.196 233.351 140.063 233.81 140.063 234.407H138.607ZM144.559 234.407H143.103C143.103 233.81 142.97 233.351 142.703 233.031C142.447 232.711 142.079 232.551 141.599 232.551V231.287C142.164 231.287 142.666 231.426 143.103 231.703C143.551 231.97 143.903 232.338 144.159 232.807C144.426 233.277 144.559 233.81 144.559 234.407ZM138.607 236.727H140.063C140.063 237.314 140.196 237.773 140.463 238.103C140.73 238.423 141.098 238.583 141.567 238.583V239.847C141.002 239.847 140.495 239.714 140.047 239.447C139.61 239.17 139.258 238.797 138.991 238.327C138.735 237.858 138.607 237.325 138.607 236.727ZM144.559 236.727C144.559 237.325 144.426 237.858 144.159 238.327C143.903 238.797 143.551 239.17 143.103 239.447C142.666 239.714 142.164 239.847 141.599 239.847V238.583C142.079 238.583 142.447 238.423 142.703 238.103C142.97 237.773 143.103 237.314 143.103 236.727H144.559ZM151.75 231.527V239.607H150.294V231.527H151.75ZM147.254 231.527V237.031H145.798V231.527H147.254ZM147.254 237.031C147.254 237.479 147.393 237.847 147.67 238.135C147.958 238.413 148.321 238.551 148.758 238.551L148.39 239.847C147.889 239.847 147.441 239.725 147.046 239.479C146.662 239.234 146.358 238.898 146.134 238.471C145.91 238.045 145.798 237.565 145.798 237.031H147.254ZM150.934 236.983C150.934 237.527 150.822 238.018 150.598 238.455C150.385 238.882 150.081 239.223 149.686 239.479C149.302 239.725 148.87 239.847 148.39 239.847L148.758 238.551C149.206 238.551 149.574 238.407 149.862 238.119C150.15 237.831 150.294 237.453 150.294 236.983H150.934ZM153.663 239.607V231.527H155.119V239.607H153.663ZM154.463 234.279C154.463 233.725 154.559 233.223 154.751 232.775C154.954 232.327 155.226 231.981 155.567 231.735C155.908 231.479 156.292 231.351 156.719 231.351L156.399 232.711C156.026 232.711 155.716 232.861 155.471 233.159C155.236 233.447 155.119 233.821 155.119 234.279H154.463ZM157.423 233.143C157.263 233.005 157.092 232.898 156.911 232.823C156.74 232.749 156.57 232.711 156.399 232.711L156.719 231.351C156.964 231.351 157.194 231.394 157.407 231.479C157.62 231.554 157.834 231.693 158.047 231.895L157.423 233.143ZM166.749 239.607V234.103H168.205V239.607H166.749ZM164.797 239.847L164.909 238.647C165.293 238.647 165.618 238.551 165.885 238.359C166.162 238.167 166.375 237.885 166.525 237.511C166.674 237.138 166.749 236.695 166.749 236.183L167.469 236.151C167.469 236.877 167.351 237.517 167.117 238.071C166.882 238.626 166.562 239.063 166.157 239.383C165.762 239.693 165.309 239.847 164.797 239.847ZM164.797 239.847C164.317 239.847 163.879 239.735 163.485 239.511C163.09 239.287 162.775 238.983 162.541 238.599C162.306 238.205 162.189 237.767 162.189 237.287L163.565 237.239C163.565 237.645 163.698 237.981 163.965 238.247C164.242 238.514 164.557 238.647 164.909 238.647L164.797 239.847ZM162.189 237.287C162.189 236.786 162.311 236.349 162.557 235.975C162.813 235.591 163.154 235.287 163.581 235.063C164.007 234.839 164.493 234.727 165.037 234.727L165.117 235.847C164.669 235.847 164.295 235.981 163.997 236.247C163.709 236.503 163.565 236.834 163.565 237.239L162.189 237.287ZM165.117 235.847L165.037 234.727H167.501V235.847H165.117ZM166.749 236.183V234.119H167.469V236.151L166.749 236.183ZM168.205 234.135H166.749C166.749 233.666 166.605 233.282 166.317 232.983C166.039 232.685 165.677 232.535 165.229 232.535V231.287C165.805 231.287 166.311 231.41 166.749 231.655C167.197 231.901 167.549 232.242 167.805 232.679C168.071 233.106 168.205 233.591 168.205 234.135ZM163.725 233.943L162.381 233.671C162.445 233.191 162.605 232.775 162.861 232.423C163.127 232.071 163.463 231.794 163.869 231.591C164.285 231.389 164.743 231.287 165.245 231.287V232.535C164.85 232.535 164.509 232.653 164.221 232.887C163.943 233.111 163.778 233.463 163.725 233.943ZM169.835 239.591H171.291V242.807H169.835V239.591ZM171.291 231.527V239.607H169.835V231.527H171.291ZM175.787 234.103V237.031H174.331V234.103H175.787ZM174.331 237.031H175.787C175.787 237.565 175.675 238.045 175.451 238.471C175.227 238.898 174.918 239.234 174.523 239.479C174.139 239.725 173.702 239.847 173.211 239.847L172.843 238.551C173.28 238.551 173.638 238.413 173.915 238.135C174.192 237.847 174.331 237.479 174.331 237.031ZM170.651 236.983H171.291C171.291 237.453 171.435 237.831 171.723 238.119C172.011 238.407 172.384 238.551 172.843 238.551L173.211 239.847C172.72 239.847 172.283 239.725 171.899 239.479C171.515 239.223 171.211 238.882 170.987 238.455C170.763 238.018 170.651 237.527 170.651 236.983ZM174.331 234.103C174.331 233.655 174.192 233.293 173.915 233.015C173.638 232.727 173.28 232.583 172.843 232.583L173.211 231.287C173.702 231.287 174.139 231.41 174.523 231.655C174.918 231.901 175.227 232.237 175.451 232.663C175.675 233.09 175.787 233.57 175.787 234.103H174.331ZM170.651 234.135C170.651 233.591 170.763 233.106 170.987 232.679C171.211 232.242 171.515 231.901 171.899 231.655C172.283 231.41 172.72 231.287 173.211 231.287L172.843 232.583C172.384 232.583 172.011 232.727 171.723 233.015C171.435 233.303 171.291 233.677 171.291 234.135H170.651ZM177.413 239.591H178.869V242.807H177.413V239.591ZM178.869 231.527V239.607H177.413V231.527H178.869ZM183.365 234.103V237.031H181.909V234.103H183.365ZM181.909 237.031H183.365C183.365 237.565 183.253 238.045 183.029 238.471C182.805 238.898 182.496 239.234 182.101 239.479C181.717 239.725 181.28 239.847 180.789 239.847L180.421 238.551C180.858 238.551 181.216 238.413 181.493 238.135C181.77 237.847 181.909 237.479 181.909 237.031ZM178.229 236.983H178.869C178.869 237.453 179.013 237.831 179.301 238.119C179.589 238.407 179.962 238.551 180.421 238.551L180.789 239.847C180.298 239.847 179.861 239.725 179.477 239.479C179.093 239.223 178.789 238.882 178.565 238.455C178.341 238.018 178.229 237.527 178.229 236.983ZM181.909 234.103C181.909 233.655 181.77 233.293 181.493 233.015C181.216 232.727 180.858 232.583 180.421 232.583L180.789 231.287C181.28 231.287 181.717 231.41 182.101 231.655C182.496 231.901 182.805 232.237 183.029 232.663C183.253 233.09 183.365 233.57 183.365 234.103H181.909ZM178.229 234.135C178.229 233.591 178.341 233.106 178.565 232.679C178.789 232.242 179.093 231.901 179.477 231.655C179.861 231.41 180.298 231.287 180.789 231.287L180.421 232.583C179.962 232.583 179.589 232.727 179.301 233.015C179.013 233.303 178.869 233.677 178.869 234.135H178.229ZM185.23 236.231L185.102 228.327H186.558L186.414 236.231H185.23ZM185.822 239.671C185.555 239.671 185.331 239.581 185.15 239.399C184.969 239.218 184.878 238.994 184.878 238.727C184.878 238.461 184.969 238.237 185.15 238.055C185.331 237.863 185.555 237.767 185.822 237.767C186.089 237.767 186.313 237.863 186.494 238.055C186.686 238.237 186.782 238.461 186.782 238.727C186.782 238.994 186.686 239.218 186.494 239.399C186.313 239.581 186.089 239.671 185.822 239.671Z" fill="white"/>
<rect x="91" y="250.607" width="164" height="30" rx="15" fill="white"/>
<path d="M107.24 262.607H110.74L111.04 263.927H111.12C111.427 263.501 111.867 263.127 112.44 262.807C113.013 262.487 113.7 262.327 114.5 262.327C114.993 262.327 115.453 262.394 115.88 262.527C116.32 262.661 116.693 262.881 117 263.187C117.307 263.494 117.547 263.914 117.72 264.447C117.907 264.967 118 265.614 118 266.387V272.607H115.4V266.927C115.4 266.114 115.213 265.527 114.84 265.167C114.48 264.807 114.02 264.627 113.46 264.627C112.967 264.627 112.513 264.774 112.1 265.067C111.7 265.347 111.427 265.701 111.28 266.127V272.607H108.68V264.807H107.24V262.607ZM118.992 262.607H122.392L122.692 263.807H122.772C123.466 262.821 124.586 262.327 126.132 262.327C126.746 262.327 127.306 262.427 127.812 262.627C128.332 262.814 128.772 263.114 129.132 263.527C129.506 263.941 129.792 264.461 129.992 265.087C130.192 265.714 130.292 266.467 130.292 267.347C130.292 268.201 130.179 268.974 129.952 269.667C129.726 270.347 129.399 270.927 128.972 271.407C128.546 271.887 128.026 272.254 127.412 272.507C126.799 272.761 126.099 272.887 125.312 272.887C124.899 272.887 124.492 272.854 124.092 272.787C123.692 272.734 123.359 272.641 123.092 272.507V276.607H120.492V264.807H118.992V262.607ZM125.352 264.527C124.846 264.527 124.379 264.654 123.952 264.907C123.539 265.161 123.252 265.541 123.092 266.047V270.207C123.279 270.354 123.546 270.474 123.892 270.567C124.252 270.647 124.612 270.687 124.972 270.687C125.346 270.687 125.692 270.627 126.012 270.507C126.332 270.374 126.612 270.167 126.852 269.887C127.092 269.607 127.279 269.254 127.412 268.827C127.546 268.401 127.612 267.887 127.612 267.287C127.612 266.407 127.399 265.727 126.972 265.247C126.546 264.767 126.006 264.527 125.352 264.527ZM135.804 272.607V266.487C135.804 266.087 135.778 265.767 135.724 265.527C135.671 265.274 135.598 265.081 135.504 264.947C135.424 264.801 135.318 264.707 135.184 264.667C135.064 264.614 134.938 264.587 134.804 264.587C134.578 264.587 134.364 264.661 134.164 264.807C133.978 264.954 133.851 265.141 133.784 265.367V272.607H131.384V262.607H133.284L133.564 263.707H133.624C133.824 263.321 134.118 263.007 134.504 262.767C134.891 262.514 135.344 262.387 135.864 262.387C136.304 262.387 136.724 262.494 137.124 262.707C137.524 262.921 137.798 263.294 137.944 263.827C138.144 263.361 138.451 263.007 138.864 262.767C139.278 262.514 139.724 262.387 140.204 262.387C140.564 262.387 140.884 262.441 141.164 262.547C141.458 262.641 141.711 262.814 141.924 263.067C142.138 263.321 142.298 263.667 142.404 264.107C142.524 264.534 142.584 265.087 142.584 265.767V272.607H140.184V266.207C140.184 265.607 140.084 265.187 139.884 264.947C139.698 264.707 139.464 264.587 139.184 264.587C138.944 264.587 138.738 264.647 138.564 264.767C138.391 264.874 138.271 265.054 138.204 265.307V272.607H135.804ZM155.749 270.407H158.229V264.807H155.749V262.607H160.249L160.549 263.927H160.629C161.002 263.487 161.429 263.121 161.909 262.827C162.389 262.534 162.949 262.387 163.589 262.387C164.389 262.387 165.015 262.681 165.469 263.267C165.935 263.854 166.169 264.834 166.169 266.207H163.829C163.829 265.727 163.755 265.381 163.609 265.167C163.475 264.941 163.255 264.827 162.949 264.827C162.415 264.827 161.982 264.961 161.649 265.227C161.329 265.494 161.055 265.801 160.829 266.147V270.407H165.169V272.607H155.749V270.407ZM173.561 262.607H177.281V269.567C177.281 269.847 177.281 270.127 177.281 270.407H178.801V272.607H175.641L175.181 271.127H175.101C174.794 271.634 174.334 272.054 173.721 272.387C173.108 272.721 172.428 272.887 171.681 272.887C171.174 272.887 170.708 272.821 170.281 272.687C169.868 272.554 169.514 272.334 169.221 272.027C168.928 271.721 168.701 271.307 168.541 270.787C168.381 270.267 168.301 269.614 168.301 268.827V264.807H167.161V262.607H170.901V268.287C170.901 269.101 171.028 269.687 171.281 270.047C171.548 270.407 171.961 270.587 172.521 270.587C173.014 270.587 173.454 270.441 173.841 270.147C174.241 269.854 174.521 269.494 174.681 269.067V264.807H173.561V262.607ZM179.193 262.607H182.693L182.993 263.927H183.073C183.38 263.501 183.82 263.127 184.393 262.807C184.966 262.487 185.653 262.327 186.453 262.327C186.946 262.327 187.406 262.394 187.833 262.527C188.273 262.661 188.646 262.881 188.953 263.187C189.26 263.494 189.5 263.914 189.673 264.447C189.86 264.967 189.953 265.614 189.953 266.387V272.607H187.353V266.927C187.353 266.114 187.166 265.527 186.793 265.167C186.433 264.807 185.973 264.627 185.413 264.627C184.92 264.627 184.466 264.774 184.053 265.067C183.653 265.347 183.38 265.701 183.233 266.127V272.607H180.633V264.807H179.193V262.607ZM209.058 258.607H213.238V267.247C213.238 268.247 213.291 269.234 213.398 270.207C213.398 270.274 213.404 270.341 213.418 270.407H214.697V272.607H211.478L211.218 271.327H211.138C211.004 271.567 210.824 271.781 210.598 271.967C210.371 272.154 210.118 272.321 209.838 272.467C209.558 272.601 209.251 272.701 208.918 272.767C208.584 272.847 208.251 272.887 207.918 272.887C207.291 272.887 206.698 272.787 206.138 272.587C205.591 272.387 205.111 272.081 204.698 271.667C204.284 271.241 203.958 270.707 203.718 270.067C203.478 269.414 203.358 268.647 203.358 267.767C203.358 266.914 203.484 266.154 203.738 265.487C204.004 264.821 204.364 264.261 204.818 263.807C205.284 263.341 205.831 262.987 206.458 262.747C207.084 262.494 207.771 262.367 208.518 262.367C208.931 262.367 209.318 262.394 209.678 262.447C210.051 262.487 210.371 262.561 210.638 262.667V260.807H209.058V258.607ZM208.518 270.687C209.024 270.687 209.471 270.567 209.858 270.327C210.258 270.074 210.518 269.714 210.638 269.247V265.007C210.451 264.861 210.191 264.754 209.858 264.687C209.538 264.607 209.198 264.567 208.838 264.567C208.478 264.567 208.124 264.627 207.778 264.747C207.444 264.867 207.144 265.061 206.878 265.327C206.624 265.581 206.418 265.914 206.258 266.327C206.111 266.741 206.038 267.247 206.038 267.847C206.038 268.701 206.251 269.387 206.678 269.907C207.104 270.427 207.718 270.687 208.518 270.687ZM225.61 271.547C225.436 271.707 225.21 271.867 224.93 272.027C224.663 272.174 224.343 272.314 223.97 272.447C223.61 272.581 223.21 272.687 222.77 272.767C222.33 272.847 221.863 272.887 221.37 272.887C220.516 272.887 219.75 272.767 219.07 272.527C218.403 272.287 217.836 271.941 217.37 271.487C216.903 271.021 216.543 270.467 216.29 269.827C216.05 269.174 215.93 268.434 215.93 267.607C215.93 266.727 216.07 265.961 216.35 265.307C216.63 264.641 217.01 264.087 217.49 263.647C217.983 263.207 218.556 262.881 219.21 262.667C219.863 262.441 220.57 262.327 221.33 262.327C221.836 262.327 222.356 262.394 222.89 262.527C223.436 262.661 223.936 262.894 224.39 263.227C224.843 263.547 225.21 263.981 225.49 264.527C225.783 265.074 225.93 265.767 225.93 266.607C225.93 267.181 225.863 267.801 225.73 268.467H218.53C218.543 268.894 218.63 269.254 218.79 269.547C218.963 269.841 219.183 270.081 219.45 270.267C219.73 270.454 220.043 270.594 220.39 270.687C220.75 270.767 221.13 270.807 221.53 270.807C222.33 270.807 222.983 270.714 223.49 270.527C224.01 270.341 224.43 270.114 224.75 269.847L225.61 271.547ZM221.29 264.407C220.943 264.407 220.616 264.454 220.31 264.547C220.003 264.641 219.723 264.781 219.47 264.967C219.23 265.141 219.03 265.361 218.87 265.627C218.71 265.894 218.616 266.194 218.59 266.527H223.51C223.51 265.874 223.323 265.361 222.95 264.987C222.59 264.601 222.036 264.407 221.29 264.407ZM233.182 269.587H233.322L235.562 262.607H238.362L234.542 272.607H231.762L227.462 262.607H230.482L233.182 269.587Z" fill="#121212"/>
</g>
<defs>
<clipPath id="clip0_120_1531">
<rect width="480" height="333" fill="white" transform="translate(0 0.607422)"/>
</clipPath>
</defs>
</svg>
