<svg width="620" height="465" viewBox="0 0 620 465" fill="none" xmlns="http://www.w3.org/2000/svg">
<path d="M220.914 260.413V295.607C220.914 300.64 216.845 304.705 211.807 304.705H205.879C200.841 304.705 196.772 308.771 196.772 313.804V327.587C196.772 332.62 200.841 336.686 205.879 336.686H349.021C354.059 336.686 358.127 340.751 358.127 345.784V357.283C358.127 362.317 362.196 366.382 367.234 366.382H374.519C379.556 366.382 383.625 362.317 383.625 357.283V332.001C383.625 326.968 387.694 322.902 392.731 322.902H510.144C515.181 322.902 519.25 318.837 519.25 313.804V272.531" stroke="white" stroke-width="4" stroke-linecap="round" stroke-linejoin="round"/>
<path d="M148.3 134.624C158.189 124.743 158.189 108.722 148.3 98.8453C138.407 88.9608 122.376 88.9608 112.487 98.8453C102.598 108.722 102.598 124.743 112.487 134.624C122.376 144.505 138.407 144.505 148.3 134.624Z" fill="#ED3996"/>
<path d="M116.223 116.028C116.223 116.028 119.951 107.499 130.746 107.499C140.872 107.499 144.596 116.028 144.596 116.028" stroke="#121212" stroke-width="2" stroke-linecap="round" stroke-linejoin="round"/>
<path d="M122.648 121.63C122.648 121.63 124.232 115.56 130.746 115.56C136.47 115.56 138.144 121.63 138.144 121.63" stroke="#121212" stroke-width="2" stroke-linecap="round" stroke-linejoin="round"/>
<path d="M128.049 126.466C128.049 126.466 130.394 122.715 132.742 126.466" stroke="#121212" stroke-width="2" stroke-linecap="round" stroke-linejoin="round"/>
<path d="M274.044 161.869L249.976 154.347V142.476H241.823L199.698 180.024L241.823 222.384H249.976V210.514L274.044 202.991V161.869Z" fill="#ED3996"/>
<path opacity="0.3" d="M252.731 155.198L249.976 154.346V210.514L259.408 207.567L252.731 155.198Z" fill="#121212"/>
<path d="M225.517 214.238H183.973V242.556H225.517V214.238Z" fill="#F3EBE9"/>
<path d="M214.257 214.238H172.717V242.556H214.257V214.238Z" fill="#ED3996"/>
<path d="M234.058 237.124H274.823V263.889H234.058L208.742 251.864L234.058 237.124Z" fill="#ED3996"/>
<path d="M234.058 237.124H137.388V263.889H234.058V237.124Z" fill="white"/>
<path d="M241.823 142.476H145.15V222.384H241.823V142.476Z" fill="white"/>
<path d="M230.175 154.114H156.798V210.746H230.175V154.114Z" fill="#F3EBE9"/>
<path d="M228.234 242.943H194.847V249.924H228.234V242.943Z" fill="#3C3C3C"/>
<path d="M249.976 154.346V210.514" stroke="#121212" stroke-width="2" stroke-linecap="round" stroke-linejoin="round"/>
<path d="M167.28 165.362H193.68" stroke="white" stroke-width="2" stroke-linecap="round" stroke-linejoin="round"/>
<path d="M167.28 173.121H179.703" stroke="white" stroke-width="2" stroke-linecap="round" stroke-linejoin="round"/>
<path d="M167.28 184.759H186.694" stroke="white" stroke-width="2" stroke-linecap="round" stroke-linejoin="round"/>
<path d="M548.533 96.2666L564.89 259.685C566.149 272.291 554.547 282.532 538.896 282.574L302.723 283.19C287.13 283.229 273.482 273.054 272.223 260.447L255.866 97.0294C254.603 84.423 266.209 74.1823 281.802 74.1436L517.971 73.528C533.564 73.4854 547.27 83.6603 548.533 96.2666Z" fill="white"/>
<path d="M298.154 109.148H381.517C386.818 109.148 391.611 113.461 392.196 118.758C392.782 124.054 388.941 128.371 383.64 128.371H300.278C294.977 128.371 290.183 124.054 289.594 118.758C289.009 113.461 292.853 109.148 298.154 109.148Z" fill="#ED3996"/>
<path d="M302.545 148.872H351.28C356.581 148.872 361.375 153.185 361.96 158.481C362.545 163.778 358.705 168.095 353.404 168.095H304.668C299.367 168.095 294.574 163.778 293.989 158.481C293.403 153.185 297.244 148.872 302.545 148.872Z" fill="#BE94AA"/>
<path d="M383.342 148.872H398.73C404.031 148.872 408.828 153.185 409.413 158.481C409.998 163.778 406.158 168.095 400.857 168.095H385.466C380.165 168.095 375.371 163.778 374.786 158.481C374.201 153.185 378.041 148.872 383.342 148.872Z" fill="#ED3996"/>
<path d="M306.935 188.596H318.905C324.206 188.596 328.999 192.909 329.584 198.206C330.169 203.502 326.329 207.819 321.028 207.819H309.058C303.757 207.819 298.964 203.502 298.379 198.206C297.794 192.909 301.634 188.596 306.935 188.596Z" fill="#BE94AA"/>
<path d="M350.966 188.596H422.79C428.091 188.596 432.884 192.909 433.469 198.206C434.054 203.502 430.214 207.819 424.913 207.819H353.094C347.793 207.819 342.996 203.502 342.411 198.206C341.825 192.909 345.665 188.596 350.966 188.596Z" fill="#ED3996"/>
<path d="M454.851 188.596H516.41C521.711 188.596 526.508 192.909 527.093 198.206C527.678 203.502 523.838 207.819 518.537 207.819H456.975C451.674 207.819 446.881 203.502 446.295 198.206C445.71 192.909 449.55 188.596 454.851 188.596Z" fill="#D5BAC8"/>
<path d="M311.325 228.32H349.8C355.101 228.32 359.898 232.633 360.484 237.929C361.069 243.226 357.225 247.543 351.924 247.543H313.449C308.148 247.543 303.354 243.226 302.769 237.929C302.184 232.633 306.024 228.32 311.325 228.32Z" fill="#535353"/>
<path d="M381.862 228.32H390.414C395.715 228.32 400.508 232.633 401.093 237.929C401.679 243.226 397.838 247.543 392.537 247.543H383.989C378.688 247.543 373.891 243.226 373.306 237.929C372.721 232.633 376.561 228.32 381.862 228.32Z" fill="#BE94AA"/>
<path d="M422.476 228.32H473.351C478.652 228.32 483.445 232.633 484.03 237.929C484.615 243.226 480.775 247.543 475.474 247.543H424.599C419.298 247.543 414.505 243.226 413.92 237.929C413.335 232.633 417.175 228.32 422.476 228.32Z" fill="#ED3996"/>
<path d="M405.895 185.413L406.065 183.052C398.598 175.347 393.526 170.693 390.987 169.187C383.555 164.769 373.581 161.482 369.605 161.482C368.443 161.482 367.792 161.757 367.722 162.338C367.416 164.769 375.398 168.502 376.565 169.013C374.232 170.248 374.782 173.124 374.883 173.535C372.314 175.827 373.751 178.123 373.992 178.464C373.686 178.804 371.733 181.236 374.402 183.907C376.049 185.553 377.627 185.893 378.618 185.893C379.235 185.893 379.645 185.758 379.785 185.723C382.389 190.106 387.256 191.473 387.698 191.577C387.802 191.817 388.523 193.459 389.685 195.821L392.053 196.37L405.895 185.413Z" fill="#E59763"/>
<path d="M472.816 171.309V171.239C473.847 166.755 475.385 159.736 476.896 151.861C478.163 145.116 477.307 139.572 474.358 135.805C471.719 132.413 467.538 130.532 461.954 130.156C461.408 130.121 460.892 130.121 460.377 130.121C449.515 130.121 445.609 137.481 443.381 143.92C443.04 144.946 442.665 145.972 442.355 146.998C441.944 147.033 439.27 147.308 438.929 148.643C438.584 149.944 440.367 151.826 440.642 152.101C439.375 156.313 438.995 158.776 438.894 160.146C438.824 161.172 438.859 163.743 440.743 165.795C442.424 167.611 445.094 168.502 448.694 168.502C449.686 168.502 450.748 168.432 451.844 168.296L451.298 171.479L472.816 171.309Z" fill="#E59763"/>
<path opacity="0.2" d="M456.231 167.201C456.231 167.201 453.902 167.952 452.395 168.192L451.844 168.296L451.333 171.343L453.011 173.395L456.231 167.201Z" fill="#030202"/>
<path d="M486.25 239.439C493.958 238.618 499.34 233.655 500.607 226.09C501.77 219.206 497.627 199.897 489.711 188.29C482.139 177.197 472.851 175.107 471.925 174.936C471.994 174.63 472.335 173.295 472.816 171.239L472.851 171.169L451.368 171.103L450.852 173.945C446.156 174.185 441.599 175.176 437.212 176.888C430.462 179.559 418.643 194.349 417.752 195.445C417.167 194.794 411.893 189.01 406.065 183.017L406.03 182.982L389.654 195.755L389.686 195.82C393.766 204.075 404.387 223.248 414.702 223.623C414.943 223.623 415.214 223.623 415.454 223.623C422.17 223.623 428.269 220.266 432.21 217.459C436.05 214.722 438.619 211.946 439.134 211.4L445.745 239.029L486.25 239.439Z" fill="#F3EBE9"/>
<path opacity="0.2" d="M486.25 239.439C488.75 239.199 491.183 238.448 493.342 237.182L493.446 237.113L493.342 237.043C487.618 232.97 486.522 227.251 485.63 222.628C485.014 219.376 484.503 216.604 482.48 215.303L482.41 215.233L478.675 232.73L486.25 239.439Z" fill="#A6A6A6"/>
<path opacity="0.2" d="M443.106 207.052L439.134 211.4L445.745 239.099L456.196 239.439L443.106 207.052Z" fill="#A6A6A6"/>
<path d="M503.452 184.933C504.409 172.06 497.558 167.406 490.943 162.853C485.84 159.36 481.008 156.073 479.806 149.294C477.342 135.53 473.161 130.977 461.919 129.711C461.168 129.641 460.412 129.571 459.66 129.571C451.023 129.571 447.047 135.325 445.474 138.817C445.474 138.817 446.09 142.925 452.189 142.925C452.635 142.925 453.115 142.89 453.057 142.948C452.635 145.871 453.243 149.038 454.999 151.725L455.018 151.76L455.103 151.729C455.099 151.725 458.734 150.39 461.989 150.39C464.694 150.39 466.376 151.28 466.992 153.061C468.774 158.365 460.583 163.879 460.517 163.948H460.482V163.979C460.447 164.084 457.773 175.416 461.854 184.898L461.884 184.933H503.452Z" fill="#010005"/>
<path d="M483.336 138.441C475.443 138.441 469.049 132.049 469.049 124.163C469.049 116.28 475.443 109.887 483.336 109.887C491.23 109.887 497.627 116.28 497.627 124.163C497.627 132.049 491.23 138.441 483.336 138.441Z" fill="#010005"/>
<path d="M461.234 167.541C459.118 167.541 457.397 165.826 457.397 163.708C457.397 161.587 459.118 159.872 461.234 159.872C463.357 159.872 465.074 161.587 465.074 163.708C465.074 165.826 463.357 167.541 461.234 167.541Z" fill="white"/>
<path d="M444.172 232.525V232.455H451.538H478.71H478.745C496.562 246.289 500.367 258.957 504.409 272.376C506.707 280.011 509.07 287.886 514.073 296.513C516.576 300.861 519.351 304.082 522.571 307.845C527.883 314.044 534.494 321.78 543.883 338.625C544.124 339.071 544.364 339.516 544.604 339.961L544.534 343.659L517.673 355.677L514.689 354.236C511.194 348.762 506.571 343.008 502.08 337.429C499.27 333.937 496.357 330.305 493.718 326.747L493.582 326.542C487.859 318.802 482.926 312.127 476.687 299.149C476.551 300.965 476.451 302.847 476.416 304.763C476.245 314.249 477.373 319.658 478.78 326.542C480.182 333.457 481.965 342.048 482.926 357.833V358.108L480.492 361.736L453.627 361.36L450.922 358.209C449.961 350.334 448.349 341.432 446.776 332.806C445.745 327.018 444.753 321.508 444.032 316.781C441.053 296.753 438.173 277.855 444.172 232.525Z" fill="#FAC7E1"/>
<path opacity="0.2" d="M486.351 316.406C486.316 316.336 484.604 309.386 484.263 296.892C484.158 293.195 484.158 289.873 484.158 286.961C484.158 277.135 484.949 272.101 481.248 268.679L476.586 298.979C481.453 308.941 484.158 313.018 484.158 313.018L486.351 316.406Z" fill="#646464"/>
<path d="M481.488 264.811C480.903 275.594 477.478 286.45 476.687 299.149" stroke="#646464" stroke-width="2" stroke-linecap="round" stroke-linejoin="round"/>
<path d="M480.833 394.773L481.829 393.097C482.755 384.676 483.712 371.767 482.926 358.174V358.108H450.887L450.922 358.348C452.224 369.061 451.984 375.535 450.201 378.411C447.187 383.235 443.862 385.977 440.948 388.373C438.995 389.949 437.317 391.316 436.05 393.062L436.29 395.288L480.833 394.773Z" fill="#F3EBE9"/>
<path d="M480.833 400.662V400.596C480.833 400.562 481.314 397.72 481.829 393.097V393.027H436.05L436.015 393.062C434.473 395.153 433.752 397.549 433.752 400.596V400.662H480.833Z" fill="#6F6F6F"/>
<path d="M555.981 374.95L556.496 372.588C554.543 364.202 550.909 351.704 544.604 339.961L544.569 339.891L514.623 354.17L514.654 354.236C519.626 362.045 521.579 368.174 520.788 373.548C520.002 378.992 518.254 382.79 516.712 386.147C515.615 388.509 514.759 390.63 514.348 392.791L516.131 394.227L555.981 374.95Z" fill="#F3EBE9"/>
<path d="M558.105 380.393C558.105 380.328 557.624 377.315 556.527 372.623L556.496 372.553L514.348 392.756C513.868 395.358 514.278 397.89 515.65 400.662L515.685 400.732L558.105 380.393Z" fill="#6F6F6F"/>
<path d="M442.664 155.868C443.211 156.244 444.924 156.313 445.985 155.113" stroke="#030202" stroke-width="2" stroke-linecap="round" stroke-linejoin="round"/>
<path d="M445.985 150.32C446.571 150.32 447.016 149.84 447.016 149.294C447.016 148.744 446.536 148.268 445.985 148.268C445.404 148.268 444.959 148.744 444.959 149.294C444.959 149.84 445.439 150.32 445.985 150.32Z" fill="#171314"/>
<path d="M451.674 168.362C453.972 168.056 455.785 167.541 455.785 167.541" stroke="#030202" stroke-width="2" stroke-linecap="round" stroke-linejoin="round"/>
<path d="M457.122 158.23L460.207 156.859" stroke="#030202" stroke-width="2" stroke-linecap="round" stroke-linejoin="round"/>
<path d="M483.336 211.981L478.71 232.525H444.273" stroke="#A6A6A6" stroke-width="2" stroke-linecap="round" stroke-linejoin="round"/>
<path d="M486.25 223.964L481.043 222.253" stroke="#A6A6A6" stroke-width="2" stroke-linecap="round" stroke-linejoin="round"/>
<path d="M439.169 211.331C441.703 208.899 444.102 206.162 444.102 206.162" stroke="#A6A6A6" stroke-width="2" stroke-linecap="round" stroke-linejoin="round"/>
<path d="M417.752 195.58V201.539" stroke="#A6A6A6" stroke-width="2" stroke-linecap="round" stroke-linejoin="round"/>
<path d="M406.03 183.086L389.79 195.79" stroke="#A6A6A6" stroke-width="2" stroke-linecap="round" stroke-linejoin="round"/>
<path d="M451.631 373.823L458.149 374.609" stroke="#6F6F6F" stroke-width="2" stroke-linecap="round" stroke-linejoin="round"/>
<path d="M450.24 378.628L455.274 382.209" stroke="#6F6F6F" stroke-width="2" stroke-linecap="round" stroke-linejoin="round"/>
<path d="M519.994 364.736L527.027 362.967" stroke="#6F6F6F" stroke-width="2" stroke-linecap="round" stroke-linejoin="round"/>
<path d="M521.323 371.558L528.395 370.842" stroke="#6F6F6F" stroke-width="2" stroke-linecap="round" stroke-linejoin="round"/>
<path d="M482.856 358.174H450.988" stroke="#6F6F6F" stroke-width="2" stroke-linecap="round" stroke-linejoin="round"/>
<path d="M514.759 354.205L544.534 339.996" stroke="#6F6F6F" stroke-width="2" stroke-linecap="round" stroke-linejoin="round"/>
<path d="M376.77 169.013C378.929 168.912 381.052 169.187 383.11 169.868" stroke="#030202" stroke-width="2" stroke-linecap="round" stroke-linejoin="round"/>
<path d="M374.988 173.535C377.627 172.95 381.393 174.321 381.393 174.321" stroke="#030202" stroke-width="2" stroke-linecap="round" stroke-linejoin="round"/>
<path d="M374.096 178.464C376.941 178.088 380.025 179.114 380.025 179.114" stroke="#030202" stroke-width="2" stroke-linecap="round" stroke-linejoin="round"/>
<path d="M274.776 294.639H346.58V399.563H274.776L265.399 351.011L274.776 294.639Z" fill="#F3EBE9"/>
<path d="M274.776 294.639H234.438V399.563H274.776V294.639Z" fill="white"/>
<path d="M266.794 305.983H242.42V316.32H266.794V305.983Z" fill="#ED3996"/>
<path d="M254.82 377.765C256.103 377.765 257.145 376.723 257.145 375.442C257.145 374.16 256.103 373.119 254.82 373.119C253.537 373.119 252.495 374.16 252.495 375.442C252.495 376.723 253.537 377.765 254.82 377.765Z" fill="#7C7C7C"/>
<path d="M254.82 386.979C256.103 386.979 257.145 385.938 257.145 384.656C257.145 383.375 256.103 382.333 254.82 382.333C253.537 382.333 252.495 383.375 252.495 384.656C252.495 385.938 253.537 386.979 254.82 386.979Z" fill="#7C7C7C"/>
<path d="M260.71 323.251V328.942" stroke="#3C3C3C" stroke-width="2" stroke-linecap="round" stroke-linejoin="round"/>
<path d="M254.587 323.251V328.942" stroke="#3C3C3C" stroke-width="2" stroke-linecap="round" stroke-linejoin="round"/>
<path d="M248.504 323.251V328.942" stroke="#3C3C3C" stroke-width="2" stroke-linecap="round" stroke-linejoin="round"/>
<path d="M308.45 368.976H334.606" stroke="#3E3E3E" stroke-width="2" stroke-linecap="round" stroke-linejoin="round"/>
<path d="M308.45 377.494H334.606" stroke="#3E3E3E" stroke-width="2" stroke-linecap="round" stroke-linejoin="round"/>
<path d="M308.45 386.011H334.606" stroke="#3E3E3E" stroke-width="2" stroke-linecap="round" stroke-linejoin="round"/>
<path d="M254.82 366.382C258.18 366.382 260.904 363.66 260.904 360.303C260.904 356.946 258.18 354.225 254.82 354.225C251.46 354.225 248.736 356.946 248.736 360.303C248.736 363.66 251.46 366.382 254.82 366.382Z" fill="#ED3996"/>
<path d="M546.057 328.586L539.625 291.557L576.685 297.984L568.087 306.571L583.629 322.101L570.195 335.524L554.652 319.994L546.057 328.586Z" fill="white"/>
<path d="M158.046 392.729C157.41 389.101 156.736 385.102 156.438 381.323H175.042C174.867 380.386 174.363 377.362 174.398 376.836C174.398 374.52 176.27 372.65 178.591 372.65L184.729 372.275C185.14 373.471 185.589 374.633 186.302 375.717C189.371 380.278 192.289 382.407 195.133 384.428C197.117 385.849 199.024 387.231 200.71 389.326C201.457 390.298 202.058 391.122 202.542 392.241C202.542 392.241 202.504 392.466 202.205 392.466C197.455 392.504 158.046 392.729 158.046 392.729Z" fill="#404040"/>
<path d="M159.282 398.486C158.832 396.543 158.383 394.526 158.007 392.431V392.353L202.542 392.241L202.694 392.504C204.077 395.532 203.74 398.002 203.666 398.486C203.666 398.564 203.589 398.486 203.554 398.486H159.282Z" fill="#121212"/>
<path d="M190.681 286.872C187.724 286.872 182.334 283.844 181.137 283.171C181.846 284.328 182.295 286.609 179.939 286.497C174.1 286.086 160.367 277.785 160.03 277.712C159.956 277.746 165.68 263.239 165.792 263.502C167.512 264.435 169.686 263.874 171.969 263.653C179.002 266.642 186.488 271.765 191.204 275.656C194.01 278.048 194.982 279.694 194.273 281.003C194.947 282.048 195.133 282.946 194.835 283.693C194.385 284.777 193.037 285.153 192.739 285.227C192.661 286.349 191.952 286.872 190.681 286.872Z" fill="#E59763"/>
<path d="M156.438 381.474C155.914 375.751 155.69 369.92 155.837 364.159C155.837 364.272 184.318 362.181 184.093 362.518C183.458 365.956 183.718 369.51 184.915 372.797H178.63C177.281 372.797 176.045 373.471 175.297 374.594C174.7 375.492 174.348 376.142 175.371 381.35L174.91 381.354H156.438V381.474Z" fill="#E59763"/>
<path opacity="0.2" d="M156.438 381.474V381.4C155.915 375.717 165.156 361.732 165.156 361.732L178.331 361.957L166.652 381.547L156.438 381.474Z" fill="#030202"/>
<path d="M188.922 379.155L184.318 381.435" stroke="#121212" stroke-width="2" stroke-linecap="round" stroke-linejoin="round"/>
<path d="M132.897 381.474C132.335 375.751 132.11 369.921 132.261 364.16C132.261 364.237 167.551 362.255 167.4 362.479C166.73 366.254 165.904 370.819 165.904 372.763H158.534C157.185 372.763 155.949 373.436 155.201 374.555C154.605 375.453 154.38 376.537 154.566 377.587L155.314 381.435C154.38 381.737 133.459 381.884 132.897 381.474Z" fill="#E59763"/>
<path d="M102.133 210.367C101.874 204.722 101.537 196.382 101.312 190.849C101.312 190.474 101.463 190.102 101.723 189.839C105.28 186.586 106.101 178.022 106.702 172.64C106.776 171.816 107.636 171.293 108.423 171.591C111.639 172.826 114.262 172.9 117.777 172.9C121.408 172.9 125.635 170.883 128.669 172.528C134.583 175.707 134.92 178.549 136.489 186.362C136.567 186.811 136.939 187.221 137.388 187.334C140.682 188.344 139.969 189.877 138.175 191.972C137.911 192.344 137.838 192.642 137.95 193.203C139.597 202.29 137.652 207.378 129.53 207.676C128.108 207.676 126.647 207.451 125.523 207.002C125.414 206.963 125.376 207.041 125.376 207.114C125.376 207.188 125.337 209.995 125.337 210.219C124.477 211.153 103.633 211.64 102.133 210.367Z" fill="#E59763"/>
<path d="M134.47 392.431C133.831 388.842 133.273 385.326 132.936 381.586C132.936 381.513 132.971 381.474 133.048 381.474L155.016 381.323C155.089 381.323 155.128 381.249 155.128 381.211C154.977 380.39 154.303 377.323 154.38 376.835C154.38 374.52 156.248 372.65 158.569 372.65H165.869C165.943 372.65 165.978 372.685 165.978 372.762C165.978 379.008 170.395 382.035 174.774 384.877C178.029 386.972 180.614 388.915 182.148 392.206C182.183 392.28 182.148 392.353 182.071 392.353C180.087 392.617 158.945 395.644 158.344 395.722C158.344 395.722 158.344 395.722 158.309 395.722C157.67 395.644 136.117 392.768 134.618 392.504C134.505 392.504 134.47 392.466 134.47 392.431Z" fill="#404040"/>
<path opacity="0.2" d="M132.335 373.285C132.223 370.331 132.188 367.265 132.261 364.237V364.159L160.181 361.02L160.293 363.637L132.335 373.359V373.285Z" fill="#030202"/>
<path d="M190.867 364.31C190.867 364.086 189.705 341.986 188.209 328.675C186.713 315.364 183.493 304.744 172.643 296.257C152.094 281.897 134.505 281.637 118.377 278.083C118.377 278.083 86.6024 276.925 86.6024 276.999C78.7826 293.713 76.2019 318.132 103.11 322.542H138.737C138.248 324.002 132.746 341.428 132.262 364.349C139.035 364.608 183.718 364.423 190.867 364.31Z" fill="#F3EBE9"/>
<path opacity="0.2" d="M173.426 364.384C173.391 364.384 173.054 364.384 172.492 364.384C176.495 364.384 179.676 364.384 179.754 364.384C179.715 364.272 176.421 355.599 178.63 331.594C179.49 321.609 177.281 310.091 170.023 306.018C173.503 312.859 173.65 320.711 173.802 327.405C174.177 345.018 173.426 364.198 173.426 364.384Z" fill="#BB3413"/>
<path opacity="0.2" d="M136.714 313.42C140.794 309.943 142.666 310.203 143.15 310.466C143.228 310.505 143.263 310.617 143.228 310.691C140.643 316.971 138.771 322.43 138.737 322.542H120.024C120.024 322.542 133.273 316.189 136.714 313.42Z" fill="#BB3413"/>
<path d="M173.352 364.272C173.352 364.272 174.1 345.091 173.728 327.293C173.538 318.206 173.352 306.839 164.633 298.874C161.301 295.847 156.999 293.078 152.357 290.647" stroke="#BB3413" stroke-width="2" stroke-linecap="round" stroke-linejoin="round"/>
<path d="M131.998 194.736C132.448 195.971 134.168 196.382 135.106 196.196" stroke="#030202" stroke-width="2" stroke-linecap="round" stroke-linejoin="round"/>
<path d="M132.413 189.053C132.951 189.053 133.385 188.619 133.385 188.081C133.385 187.543 132.951 187.109 132.413 187.109C131.874 187.109 131.436 187.543 131.436 188.081C131.436 188.619 131.874 189.053 132.413 189.053Z" fill="#010005"/>
<path d="M119.838 204.795C119.838 204.795 123.206 206.104 125.523 207.002" stroke="#030202" stroke-width="2" stroke-linecap="round" stroke-linejoin="round"/>
<path d="M138.737 322.469C140.008 318.504 143.228 310.691 143.228 310.691" stroke="#BB3413" stroke-width="2" stroke-linecap="round" stroke-linejoin="round"/>
<path d="M128.107 286.833C116.544 287.023 108.085 284.406 101.761 278.946C101.723 278.946 101.723 278.908 101.688 278.908C100.901 278.908 87.203 278.869 85.8545 278.869C85.7809 278.869 85.7421 278.834 85.7421 278.757V272.101C85.7421 272.063 85.7072 272.028 85.7072 272.028C79.0074 267.951 81.5145 260.025 83.2001 254.864C83.9092 252.696 84.4324 251.012 84.2076 250.079C78.7439 226.856 86.1567 216.348 102.06 214.107C102.098 214.107 102.133 214.068 102.133 213.994C102.133 213.472 102.133 210.854 102.133 210.293C102.133 210.219 102.172 210.181 102.246 210.181H125.224C125.302 210.181 125.337 210.219 125.337 210.293V213.921C125.337 213.956 125.376 213.994 125.414 214.033C127.883 214.742 130.239 215.752 132.447 217.022C138.322 220.39 142.178 225.586 146.146 235.606C151.047 248.023 153.07 252.808 153.33 253.331C153.33 253.37 153.369 253.37 153.369 253.37C154.19 253.819 164.633 259.611 171.891 263.541C171.93 263.576 171.969 263.614 171.93 263.688L163.246 280.329C163.211 280.367 163.172 280.402 163.134 280.402L150.784 279.655C150.71 279.655 150.672 279.694 150.672 279.729C150.598 280.367 150.412 283.918 150.3 284.44C150.3 284.479 150.261 284.518 150.226 284.518C149.401 284.739 139.109 286.833 128.107 286.833Z" fill="#FAC7E1"/>
<path opacity="0.2" d="M85.7421 278.869V272.14C85.7421 272.101 85.7073 272.063 85.7073 272.063C79.0461 268.137 81.5533 260.06 83.2001 254.903C83.7969 253.145 84.2076 251.798 84.2464 250.826C84.2464 250.714 84.3975 250.675 84.4324 250.788C91.0586 269.333 101.688 278.947 101.688 278.947L85.7421 278.869Z" fill="#CDA4B9"/>
<path d="M177.618 296.296C173.84 296.296 169.76 290.647 168.411 288.591C169.648 293.601 167.214 299.138 163.773 291.359C159.619 282.385 157.034 283.879 148.052 285.075L146.483 285.265L147.045 263.165C152.431 263.165 160.553 264.474 164.37 265.372C171.93 267.389 183.121 271.242 182.559 274.796C182.148 276.178 179.044 276.894 179.153 276.925C181.474 279.43 184.318 284.293 185.403 286.125C187.349 289.079 187.422 292.106 184.392 292.482C184.431 293.903 184.167 294.91 183.605 295.51C182.745 296.633 180.389 295.959 179.788 295.548C179.153 296.032 178.405 296.296 177.618 296.296Z" fill="#E59763"/>
<path d="M184.353 292.443C179.564 284.104 172.976 277.301 172.976 277.301" stroke="#030202" stroke-width="2" stroke-linecap="round" stroke-linejoin="round"/>
<path d="M179.788 295.471C174.662 287.546 168.787 280.329 168.787 280.329" stroke="#030202" stroke-width="2" stroke-linecap="round" stroke-linejoin="round"/>
<path d="M168.411 288.591L165.307 283.132" stroke="#030202" stroke-width="2" stroke-linecap="round" stroke-linejoin="round"/>
<path d="M102.246 205.918C102.098 205.918 101.947 206.03 101.947 206.03L101.312 190.326C100.975 185.165 100.862 175.331 106.776 170.995C106.814 170.956 106.888 170.956 106.927 170.995C109.845 173.686 113.735 172.938 117.742 172.938C121.369 172.938 124.14 170.693 127.17 172.338C130.204 174.023 132.971 174.247 134.207 177.763C134.207 177.797 134.207 177.836 134.207 177.875C133.831 178.324 130.99 181.836 124.965 181.948C124.887 181.948 124.853 181.987 124.853 182.06C125.112 188.12 122.307 190.625 121.818 191.035C121.784 191.074 121.706 191.074 121.671 191.035C120.385 190.384 115.084 184.53 110.069 189.912C105.578 194.701 112.278 201.504 113.1 202.329C113.138 202.364 113.138 202.441 113.1 202.476C109.058 205.655 103.369 205.957 102.246 205.918Z" fill="#010005"/>
<path d="M114.971 195.484L117.742 197.691" stroke="#030202" stroke-width="2" stroke-linecap="round" stroke-linejoin="round"/>
<path d="M170.244 381.512L165.645 383.793" stroke="#121212" stroke-width="2" stroke-linecap="round" stroke-linejoin="round"/>
<path d="M84.2851 250.001C86.1916 257.184 93.7518 271.579 101.723 278.796" stroke="#CDA4B9" stroke-width="2" stroke-linecap="round" stroke-linejoin="round"/>
<path d="M85.7809 271.989H95.2475" stroke="#CDA4B9" stroke-width="2" stroke-linecap="round" stroke-linejoin="round"/>
<path d="M91.0935 278.796V271.989" stroke="#CDA4B9" stroke-width="2" stroke-linecap="round" stroke-linejoin="round"/>
<path d="M147.045 263.165C138.361 262.828 120.811 262.042 120.811 262.042" stroke="#CDA4B9" stroke-width="2" stroke-linecap="round" stroke-linejoin="round"/>
<path d="M120.811 262.043L112.088 242.374" stroke="#CDA4B9" stroke-width="2" stroke-linecap="round" stroke-linejoin="round"/>
<path d="M135.966 262.604L137.09 252.472" stroke="#CDA4B9" stroke-width="2" stroke-linecap="round" stroke-linejoin="round"/>
<path d="M102.133 214.107C102.133 214.107 100.153 214.293 98.0181 214.927" stroke="#CDA4B9" stroke-width="2" stroke-linecap="round" stroke-linejoin="round"/>
<path d="M101.199 190.214C101.199 189.912 101.238 189.277 101.238 189.053C101.238 189.018 101.273 188.979 101.312 188.979C102.06 188.681 107.709 185.986 108.422 185.649C108.461 185.615 108.496 185.576 108.496 185.541C108.085 183.295 106.477 177.763 102.622 177.798C102.47 177.763 102.397 177.65 102.436 177.499L102.885 176.191C104.268 173.163 104.865 172.265 106.888 170.844C109.883 168.788 113.735 167.665 117.777 167.665C126.162 167.665 133.42 171.928 135.179 180.268C135.179 180.303 135.179 180.38 135.144 180.38C134.021 180.976 119.086 189.018 119.086 189.018C118.974 189.053 118.862 189.091 118.788 189.018C117.629 188.456 116.281 188.007 114.971 188.046C111.976 187.934 109.883 189.165 108.686 192.681L101.796 196.045C101.688 196.123 101.537 196.045 101.537 195.898C101.424 194.961 101.238 191.596 101.199 190.214Z" fill="#404040"/>
<path opacity="0.2" d="M119.838 204.795C121.671 205.655 123.392 206.518 125.302 207.114C125.337 207.114 125.376 207.153 125.376 207.227C125.376 207.563 125.337 208.984 125.337 210.254C125.337 210.967 125.337 211.602 125.337 211.977C125.337 212.09 125.224 212.124 125.151 212.051L119.687 205.02C119.613 204.873 119.726 204.76 119.838 204.795Z" fill="#030202"/>
<path opacity="0.2" d="M120.811 262.043L112.166 242.525C112.127 242.452 112.201 242.374 112.278 242.374C112.987 242.413 116.056 243.122 120.547 250.602C122.57 253.966 124.887 256.808 127.697 256.994C130.688 257.184 132.858 255.348 134.544 253.668C135.517 252.731 136.64 252.51 137.012 252.472C137.09 252.472 137.125 252.51 137.125 252.584L135.966 262.79L120.811 262.043Z" fill="#CDA4B9"/>
<path d="M119.536 188.755L141.093 177.201" stroke="#404040" stroke-width="2" stroke-linecap="round" stroke-linejoin="round"/>
<path d="M135.741 398.486C135.331 396.616 134.881 394.638 134.505 392.655C134.505 392.578 134.544 392.543 134.618 392.543L182.11 392.392C182.148 392.392 182.183 392.431 182.222 392.466C183.57 395.497 183.268 398.037 183.233 398.525C183.233 398.564 183.195 398.525 183.121 398.525C180.873 398.525 138.062 398.525 135.892 398.525C135.78 398.486 135.741 398.525 135.741 398.486Z" fill="#121212"/>
<path d="M180.838 271.764C181.958 272.624 182.671 273.596 182.633 274.571C182.52 276.589 179.192 276.925 179.192 276.925C179.192 276.925 182.706 281.115 184.803 285.041" stroke="#030202" stroke-width="2" stroke-linecap="round" stroke-linejoin="round"/>
<path d="M194.273 281.003L187.837 278.083" stroke="#030202" stroke-width="2" stroke-linecap="round" stroke-linejoin="round"/>
<path d="M192.588 285.041L186.19 282.16" stroke="#030202" stroke-width="2" stroke-linecap="round" stroke-linejoin="round"/>
<path d="M97.9019 331.118C99.975 331.118 101.68 332.795 101.68 334.866L101.653 344.673V385.249C101.653 387.32 99.975 388.997 97.9019 388.997C95.8287 388.997 94.1509 387.32 94.1509 385.249V334.866C94.1199 332.795 95.7977 331.118 97.9019 331.118Z" fill="white"/>
<path opacity="0.2" d="M97.9019 331.118C95.7977 331.118 94.1199 332.795 94.1509 334.866V348.084L101.653 344.673L101.68 334.866C101.653 332.795 99.975 331.118 97.9019 331.118Z" fill="#2C2C2C"/>
<path d="M124.213 394.022C123.694 393.565 98.115 371.237 98.115 371.237H97.6578C97.6578 371.237 72.0789 393.565 71.5596 394.022C70.9202 394.386 70.2189 396.183 71.2264 397.34C72.0169 398.316 73.4196 398.56 74.4891 397.859C74.5472 397.828 88.5438 388.234 96.9254 382.477C97.5066 382.082 98.2351 382.082 98.8164 382.477C107.198 388.234 121.226 397.828 121.253 397.859C122.353 398.56 123.783 398.285 124.515 397.34C125.554 396.152 124.852 394.386 124.213 394.022Z" fill="white"/>
<path d="M91.8026 369.773H103.966C104.699 369.773 105.28 370.354 105.28 371.082V377.602H90.4619V371.082C90.4929 370.354 91.0741 369.773 91.8026 369.773Z" fill="#ED3996"/>
<path d="M90.4929 328.745H105.311V338.885C105.311 339.404 104.885 339.861 104.334 339.861H91.4384C90.9191 339.861 90.4929 339.435 90.4929 338.885V328.745Z" fill="#ED3996"/>
<path d="M75.981 322.713H119.792C122.717 322.713 125.066 325.086 125.066 327.982C125.066 330.905 122.686 333.251 119.792 333.251H75.981C73.0554 333.251 70.7071 330.874 70.7071 327.982C70.7071 325.086 73.0864 322.713 75.981 322.713Z" fill="white"/>
</svg>
