<svg width="480" height="361" viewBox="0 0 480 361" fill="none" xmlns="http://www.w3.org/2000/svg">
<path opacity="0.2" d="M84.5726 26.7935H172.293C175.863 26.7935 178.731 29.6855 178.731 33.2525V100.11C178.731 103.68 175.842 106.548 172.293 106.548H84.5726C81.0056 106.548 78.1136 103.659 78.1136 100.11V33.2525C78.1376 29.6855 81.0056 26.7935 84.5726 26.7935Z" fill="#BE94AA"/>
<path d="M81.3866 23.6074H169.107C172.677 23.6074 175.545 26.4964 175.545 30.0664V96.9244C175.545 100.491 172.656 103.359 169.107 103.359H81.3866C77.8166 103.359 74.9276 100.47 74.9276 96.9244V30.0664C74.9486 26.4964 77.8166 23.6074 81.3866 23.6074Z" fill="#FAC7E1"/>
<path d="M103.332 88.5962H112.596C114.231 88.5962 115.569 89.9342 115.569 91.5692V91.6982C115.569 93.3332 114.231 94.6712 112.596 94.6712H103.332C101.697 94.6712 100.359 93.3332 100.359 91.6982V91.5692C100.359 89.9132 101.697 88.5962 103.332 88.5962Z" fill="#FAC7E1"/>
<path d="M123.558 88.5962H141.51C143.145 88.5962 144.483 89.9342 144.483 91.5692V91.6982C144.483 93.3332 143.145 94.6712 141.51 94.6712H123.558C121.923 94.6712 120.585 93.3332 120.585 91.6982V91.5692C120.585 89.9132 121.902 88.5962 123.558 88.5962Z" fill="#FAC7E1"/>
<path d="M81.3866 23.6074H93.4106V103.359H81.3866C77.8166 103.359 74.9276 100.47 74.9276 96.9244V30.0664C74.9276 26.4964 77.8166 23.6074 81.3866 23.6074Z" fill="#FAC7E1"/>
<path opacity="0.2" d="M81.3866 23.6074H93.4106V103.359H81.3866C77.8166 103.359 74.9276 100.47 74.9276 96.9244V30.0664C74.9276 26.4964 77.8166 23.6074 81.3866 23.6074Z" fill="#F3EBE9"/>
<path d="M175.545 41.8774H93.6237" stroke="#F3EBE9" stroke-width="4" stroke-linejoin="round"/>
<path d="M175.545 56.2173H93.6237" stroke="#F3EBE9" stroke-width="4" stroke-linejoin="round"/>
<path d="M175.545 70.7705H93.6237" stroke="#F3EBE9" stroke-width="4" stroke-linejoin="round"/>
<path d="M175.545 84.4536H93.6237" stroke="#F3EBE9" stroke-width="4" stroke-linejoin="round"/>
<path d="M93.4106 23.6074V103.359" stroke="#F3EBE9" stroke-width="4" stroke-linejoin="round"/>
<path d="M82.1096 34.9116H86.2316" stroke="#F3EBE9" stroke-width="4" stroke-linecap="round" stroke-linejoin="round"/>
<path d="M82.1096 49.0386H86.2316" stroke="#F3EBE9" stroke-width="4" stroke-linecap="round" stroke-linejoin="round"/>
<path d="M82.1096 63.1655H86.2316" stroke="#F3EBE9" stroke-width="4" stroke-linecap="round" stroke-linejoin="round"/>
<path d="M82.1096 77.5054H86.2316" stroke="#F3EBE9" stroke-width="4" stroke-linecap="round" stroke-linejoin="round"/>
<path d="M82.1096 91.6323H86.2316" stroke="#F3EBE9" stroke-width="4" stroke-linecap="round" stroke-linejoin="round"/>
<path d="M105.09 54.5674C105.257 54.5674 105.397 54.6241 105.51 54.7374C105.63 54.8441 105.69 54.9841 105.69 55.1574C105.69 55.3241 105.63 55.4674 105.51 55.5874C105.397 55.7008 105.257 55.7574 105.09 55.7574C104.923 55.7574 104.783 55.7008 104.67 55.5874C104.557 55.4674 104.5 55.3241 104.5 55.1574C104.5 54.9841 104.557 54.8441 104.67 54.7374C104.783 54.6241 104.923 54.5674 105.09 54.5674ZM104.72 56.7174H105.46L105.55 61.6574H104.64L104.72 56.7174ZM107.448 58.4974V57.6874H109.468V58.4974H107.448ZM106.788 54.5574H107.698V61.6074H106.788V54.5574ZM107.398 54.5574H109.968V55.3474H107.398V54.5574ZM114.342 56.5574V61.6074H113.432V56.5574H114.342ZM111.532 56.5574V59.9974H110.622V56.5574H111.532ZM111.532 59.9974C111.532 60.2774 111.619 60.5074 111.792 60.6874C111.972 60.8608 112.199 60.9474 112.472 60.9474L112.242 61.7574C111.929 61.7574 111.649 61.6808 111.402 61.5274C111.162 61.3741 110.972 61.1641 110.832 60.8974C110.692 60.6308 110.622 60.3308 110.622 59.9974H111.532ZM113.832 59.9674C113.832 60.3074 113.762 60.6141 113.622 60.8874C113.489 61.1541 113.299 61.3674 113.052 61.5274C112.812 61.6808 112.542 61.7574 112.242 61.7574L112.472 60.9474C112.752 60.9474 112.982 60.8574 113.162 60.6774C113.342 60.4974 113.432 60.2608 113.432 59.9674H113.832ZM115.548 59.3574V58.7074H118.958V59.3574H115.548ZM117.098 61.7674V60.9774H117.148V61.7674H117.098ZM115.258 59.8174V58.3474H116.168V59.8174H115.258ZM118.048 58.7074V58.1874H118.958V58.7074H118.048ZM118.958 58.1874H118.048C118.048 57.8941 117.958 57.6541 117.778 57.4674C117.605 57.2808 117.378 57.1874 117.098 57.1874V56.4074C117.458 56.4074 117.775 56.4841 118.048 56.6374C118.328 56.7908 118.548 57.0041 118.708 57.2774C118.875 57.5441 118.958 57.8474 118.958 58.1874ZM118.088 60.1074L118.938 60.2774C118.898 60.5641 118.795 60.8208 118.628 61.0474C118.462 61.2741 118.252 61.4508 117.998 61.5774C117.745 61.7041 117.462 61.7674 117.148 61.7674V60.9774C117.388 60.9774 117.595 60.9074 117.768 60.7674C117.948 60.6208 118.055 60.4008 118.088 60.1074ZM115.258 58.3574C115.258 57.9774 115.338 57.6441 115.498 57.3574C115.665 57.0641 115.885 56.8341 116.158 56.6674C116.438 56.4941 116.755 56.4074 117.108 56.4074V57.1874C116.815 57.1874 116.585 57.2908 116.418 57.4974C116.252 57.6974 116.168 57.9841 116.168 58.3574H115.258ZM115.258 59.8174H116.168C116.168 60.1841 116.252 60.4708 116.418 60.6774C116.585 60.8774 116.815 60.9774 117.108 60.9774V61.7674C116.755 61.7674 116.438 61.6841 116.158 61.5174C115.885 61.3441 115.665 61.1108 115.498 60.8174C115.338 60.5241 115.258 60.1908 115.258 59.8174ZM124.457 61.7874V56.5574H125.367V61.7874H124.457ZM121.647 59.8674V58.1674H122.557V59.8674H121.647ZM122.557 58.1674H121.647C121.647 57.8341 121.717 57.5341 121.857 57.2674C121.997 57.0008 122.187 56.7908 122.427 56.6374C122.674 56.4841 122.954 56.4074 123.267 56.4074L123.497 57.2174C123.224 57.2174 122.997 57.3074 122.817 57.4874C122.644 57.6608 122.557 57.8874 122.557 58.1674ZM124.857 58.1874H124.457C124.457 57.9008 124.367 57.6674 124.187 57.4874C124.007 57.3074 123.777 57.2174 123.497 57.2174L123.267 56.4074C123.567 56.4074 123.837 56.4841 124.077 56.6374C124.324 56.7908 124.514 57.0041 124.647 57.2774C124.787 57.5441 124.857 57.8474 124.857 58.1874ZM122.557 59.8674C122.557 60.1474 122.644 60.3774 122.817 60.5574C122.997 60.7308 123.224 60.8174 123.497 60.8174L123.267 61.6274C122.954 61.6274 122.674 61.5508 122.427 61.3974C122.187 61.2441 121.997 61.0341 121.857 60.7674C121.717 60.5008 121.647 60.2008 121.647 59.8674H122.557ZM124.857 59.8374C124.857 60.1774 124.787 60.4841 124.647 60.7574C124.514 61.0241 124.324 61.2374 124.077 61.3974C123.837 61.5508 123.567 61.6274 123.267 61.6274L123.497 60.8174C123.777 60.8174 124.007 60.7274 124.187 60.5474C124.367 60.3674 124.457 60.1308 124.457 59.8374H124.857ZM125.367 61.7574C125.367 62.0974 125.287 62.4008 125.127 62.6674C124.967 62.9408 124.747 63.1541 124.467 63.3074C124.187 63.4674 123.871 63.5474 123.517 63.5474V62.7574C123.791 62.7574 124.014 62.6608 124.187 62.4674C124.367 62.2808 124.457 62.0441 124.457 61.7574H125.367ZM122.567 61.8874C122.601 62.1808 122.707 62.3974 122.887 62.5374C123.067 62.6841 123.277 62.7574 123.517 62.7574V63.5474C123.211 63.5474 122.927 63.4841 122.667 63.3574C122.407 63.2308 122.194 63.0541 122.027 62.8274C121.867 62.6008 121.767 62.3441 121.727 62.0574L122.567 61.8874ZM126.534 61.6074V56.5574H127.444V61.6074H126.534ZM127.034 58.2774C127.034 57.9308 127.094 57.6174 127.214 57.3374C127.34 57.0574 127.51 56.8408 127.724 56.6874C127.937 56.5274 128.177 56.4474 128.444 56.4474L128.244 57.2974C128.01 57.2974 127.817 57.3908 127.664 57.5774C127.517 57.7574 127.444 57.9908 127.444 58.2774H127.034ZM128.884 57.5674C128.784 57.4808 128.677 57.4141 128.564 57.3674C128.457 57.3208 128.35 57.2974 128.244 57.2974L128.444 56.4474C128.597 56.4474 128.74 56.4741 128.874 56.5274C129.007 56.5741 129.14 56.6608 129.274 56.7874L128.884 57.5674ZM132.495 61.6074V58.1674H133.405V61.6074H132.495ZM131.275 61.7574L131.345 61.0074C131.585 61.0074 131.789 60.9474 131.955 60.8274C132.129 60.7074 132.262 60.5308 132.355 60.2974C132.449 60.0641 132.495 59.7874 132.495 59.4674L132.945 59.4474C132.945 59.9008 132.872 60.3008 132.725 60.6474C132.579 60.9941 132.379 61.2674 132.125 61.4674C131.879 61.6608 131.595 61.7574 131.275 61.7574ZM131.275 61.7574C130.975 61.7574 130.702 61.6874 130.455 61.5474C130.209 61.4074 130.012 61.2174 129.865 60.9774C129.719 60.7308 129.645 60.4574 129.645 60.1574L130.505 60.1274C130.505 60.3808 130.589 60.5908 130.755 60.7574C130.929 60.9241 131.125 61.0074 131.345 61.0074L131.275 61.7574ZM129.645 60.1574C129.645 59.8441 129.722 59.5708 129.875 59.3374C130.035 59.0974 130.249 58.9074 130.515 58.7674C130.782 58.6274 131.085 58.5574 131.425 58.5574L131.475 59.2574C131.195 59.2574 130.962 59.3408 130.775 59.5074C130.595 59.6674 130.505 59.8741 130.505 60.1274L129.645 60.1574ZM131.475 59.2574L131.425 58.5574H132.965V59.2574H131.475ZM132.495 59.4674V58.1774H132.945V59.4474L132.495 59.4674ZM133.405 58.1874H132.495C132.495 57.8941 132.405 57.6541 132.225 57.4674C132.052 57.2808 131.825 57.1874 131.545 57.1874V56.4074C131.905 56.4074 132.222 56.4841 132.495 56.6374C132.775 56.7908 132.995 57.0041 133.155 57.2774C133.322 57.5441 133.405 57.8474 133.405 58.1874ZM130.605 58.0674L129.765 57.8974C129.805 57.5974 129.905 57.3374 130.065 57.1174C130.232 56.8974 130.442 56.7241 130.695 56.5974C130.955 56.4708 131.242 56.4074 131.555 56.4074V57.1874C131.309 57.1874 131.095 57.2608 130.915 57.4074C130.742 57.5474 130.639 57.7674 130.605 58.0674ZM134.424 61.6074V56.5574H135.334V61.6074H134.424ZM137.234 61.6074V58.1674H138.144V61.6074H137.234ZM137.234 58.1674C137.234 57.8874 137.148 57.6608 136.974 57.4874C136.801 57.3074 136.578 57.2174 136.304 57.2174L136.534 56.4074C136.841 56.4074 137.114 56.4841 137.354 56.6374C137.601 56.7908 137.794 57.0008 137.934 57.2674C138.074 57.5341 138.144 57.8341 138.144 58.1674H137.234ZM134.934 58.1874C134.934 57.8474 135.004 57.5441 135.144 57.2774C135.284 57.0041 135.474 56.7908 135.714 56.6374C135.954 56.4841 136.228 56.4074 136.534 56.4074L136.304 57.2174C136.018 57.2174 135.784 57.3074 135.604 57.4874C135.424 57.6674 135.334 57.9008 135.334 58.1874H134.934ZM142.799 56.5674H141.889V54.5574H142.799V56.5674ZM141.889 61.6074V56.5574H142.799V61.6074H141.889ZM139.079 59.9974V58.1674H139.989V59.9974H139.079ZM139.989 58.1674H139.079C139.079 57.8341 139.149 57.5341 139.289 57.2674C139.429 57.0008 139.619 56.7908 139.859 56.6374C140.106 56.4841 140.386 56.4074 140.699 56.4074L140.929 57.2174C140.656 57.2174 140.429 57.3074 140.249 57.4874C140.076 57.6608 139.989 57.8874 139.989 58.1674ZM142.289 58.1874H141.889C141.889 57.9008 141.799 57.6674 141.619 57.4874C141.439 57.3074 141.209 57.2174 140.929 57.2174L140.699 56.4074C140.999 56.4074 141.269 56.4841 141.509 56.6374C141.756 56.7908 141.946 57.0041 142.079 57.2774C142.219 57.5441 142.289 57.8474 142.289 58.1874ZM139.989 59.9974C139.989 60.2774 140.076 60.5074 140.249 60.6874C140.429 60.8608 140.656 60.9474 140.929 60.9474L140.699 61.7574C140.386 61.7574 140.106 61.6808 139.859 61.5274C139.619 61.3741 139.429 61.1641 139.289 60.8974C139.149 60.6308 139.079 60.3308 139.079 59.9974H139.989ZM142.289 59.9674C142.289 60.3074 142.219 60.6141 142.079 60.8874C141.946 61.1541 141.756 61.3674 141.509 61.5274C141.269 61.6808 140.999 61.7574 140.699 61.7574L140.929 60.9474C141.209 60.9474 141.439 60.8574 141.619 60.6774C141.799 60.4974 141.889 60.2608 141.889 59.9674H142.289ZM144.095 61.6074V56.5574H145.005V61.6074H144.095ZM144.545 55.8874C144.378 55.8874 144.238 55.8308 144.125 55.7174C144.011 55.6041 143.955 55.4641 143.955 55.2974C143.955 55.1308 144.011 54.9908 144.125 54.8774C144.238 54.7574 144.378 54.6974 144.545 54.6974C144.711 54.6974 144.851 54.7574 144.965 54.8774C145.085 54.9908 145.145 55.1308 145.145 55.2974C145.145 55.4641 145.085 55.6041 144.965 55.7174C144.851 55.8308 144.711 55.8874 144.545 55.8874ZM148.84 59.8174V58.3474H149.75V59.8174H148.84ZM146.03 59.8174V58.3474H146.94V59.8174H146.03ZM147.86 57.1974V56.4074H147.92V57.1974H147.86ZM147.86 61.7574V60.9674H147.92V61.7574H147.86ZM146.03 58.3574C146.03 57.9841 146.11 57.6508 146.27 57.3574C146.436 57.0641 146.656 56.8341 146.93 56.6674C147.21 56.4941 147.526 56.4074 147.88 56.4074V57.1974C147.586 57.1974 147.356 57.2974 147.19 57.4974C147.023 57.6974 146.94 57.9841 146.94 58.3574H146.03ZM149.75 58.3574H148.84C148.84 57.9841 148.756 57.6974 148.59 57.4974C148.43 57.2974 148.2 57.1974 147.9 57.1974V56.4074C148.253 56.4074 148.566 56.4941 148.84 56.6674C149.12 56.8341 149.34 57.0641 149.5 57.3574C149.666 57.6508 149.75 57.9841 149.75 58.3574ZM146.03 59.8074H146.94C146.94 60.1741 147.023 60.4608 147.19 60.6674C147.356 60.8674 147.586 60.9674 147.88 60.9674V61.7574C147.526 61.7574 147.21 61.6741 146.93 61.5074C146.656 61.3341 146.436 61.1008 146.27 60.8074C146.11 60.5141 146.03 60.1808 146.03 59.8074ZM149.75 59.8074C149.75 60.1808 149.666 60.5141 149.5 60.8074C149.34 61.1008 149.12 61.3341 148.84 61.5074C148.566 61.6741 148.253 61.7574 147.9 61.7574V60.9674C148.2 60.9674 148.43 60.8674 148.59 60.6674C148.756 60.4608 148.84 60.1741 148.84 59.8074H149.75ZM153.133 60.3074C153.133 60.1408 153.073 60.0041 152.953 59.8974C152.833 59.7841 152.676 59.6841 152.483 59.5974C152.296 59.5041 152.096 59.4108 151.883 59.3174C151.676 59.2241 151.476 59.1174 151.283 58.9974C151.096 58.8708 150.943 58.7141 150.823 58.5274C150.703 58.3341 150.643 58.1008 150.643 57.8274C150.643 57.8274 150.669 57.8274 150.723 57.8274C150.783 57.8274 150.856 57.8274 150.943 57.8274C151.036 57.8274 151.126 57.8274 151.213 57.8274C151.299 57.8274 151.373 57.8274 151.433 57.8274C151.493 57.8274 151.523 57.8274 151.523 57.8274C151.523 57.9941 151.583 58.1341 151.703 58.2474C151.823 58.3541 151.976 58.4508 152.163 58.5374C152.356 58.6241 152.559 58.7174 152.773 58.8174C152.986 58.9108 153.186 59.0208 153.373 59.1474C153.559 59.2741 153.713 59.4308 153.833 59.6174C153.959 59.7974 154.023 60.0274 154.023 60.3074C154.023 60.3074 153.993 60.3074 153.933 60.3074C153.873 60.3074 153.796 60.3074 153.703 60.3074C153.616 60.3074 153.529 60.3074 153.443 60.3074C153.356 60.3074 153.283 60.3074 153.223 60.3074C153.163 60.3074 153.133 60.3074 153.133 60.3074ZM152.283 61.7574V60.9674C152.529 60.9674 152.733 60.9074 152.893 60.7874C153.053 60.6608 153.133 60.5008 153.133 60.3074H154.023C154.023 60.5874 153.946 60.8374 153.793 61.0574C153.646 61.2774 153.443 61.4508 153.183 61.5774C152.923 61.6974 152.623 61.7574 152.283 61.7574ZM150.643 57.8274C150.643 57.5541 150.709 57.3108 150.843 57.0974C150.983 56.8774 151.176 56.7074 151.423 56.5874C151.669 56.4608 151.943 56.3974 152.243 56.3974V57.1874C152.036 57.1874 151.863 57.2474 151.723 57.3674C151.589 57.4874 151.523 57.6408 151.523 57.8274H150.643ZM151.333 60.0974C151.366 60.3908 151.473 60.6108 151.653 60.7574C151.833 60.8974 152.043 60.9674 152.283 60.9674V61.7574C151.976 61.7574 151.693 61.6941 151.433 61.5674C151.173 61.4408 150.959 61.2641 150.793 61.0374C150.633 60.8108 150.533 60.5541 150.493 60.2674L151.333 60.0974ZM153.183 58.0574C153.149 57.7574 153.043 57.5374 152.863 57.3974C152.689 57.2574 152.483 57.1874 152.243 57.1874V56.3974C152.556 56.3974 152.839 56.4608 153.093 56.5874C153.346 56.7141 153.556 56.8908 153.723 57.1174C153.889 57.3374 153.993 57.5941 154.033 57.8874L153.183 58.0574ZM157.58 59.8174V58.3474H158.49V59.8174H157.58ZM154.77 59.8174V58.3474H155.68V59.8174H154.77ZM156.6 57.1974V56.4074H156.66V57.1974H156.6ZM156.6 61.7574V60.9674H156.66V61.7574H156.6ZM154.77 58.3574C154.77 57.9841 154.85 57.6508 155.01 57.3574C155.177 57.0641 155.397 56.8341 155.67 56.6674C155.95 56.4941 156.267 56.4074 156.62 56.4074V57.1974C156.327 57.1974 156.097 57.2974 155.93 57.4974C155.763 57.6974 155.68 57.9841 155.68 58.3574H154.77ZM158.49 58.3574H157.58C157.58 57.9841 157.497 57.6974 157.33 57.4974C157.17 57.2974 156.94 57.1974 156.64 57.1974V56.4074C156.993 56.4074 157.307 56.4941 157.58 56.6674C157.86 56.8341 158.08 57.0641 158.24 57.3574C158.407 57.6508 158.49 57.9841 158.49 58.3574ZM154.77 59.8074H155.68C155.68 60.1741 155.763 60.4608 155.93 60.6674C156.097 60.8674 156.327 60.9674 156.62 60.9674V61.7574C156.267 61.7574 155.95 61.6741 155.67 61.5074C155.397 61.3341 155.177 61.1008 155.01 60.8074C154.85 60.5141 154.77 60.1808 154.77 59.8074ZM158.49 59.8074C158.49 60.1808 158.407 60.5141 158.24 60.8074C158.08 61.1008 157.86 61.3341 157.58 61.5074C157.307 61.6741 156.993 61.7574 156.64 61.7574V60.9674C156.94 60.9674 157.17 60.8674 157.33 60.6674C157.497 60.4608 157.58 60.1741 157.58 59.8074H158.49ZM159.564 59.4974L159.484 54.5574H160.394L160.304 59.4974H159.564ZM159.934 61.6474C159.767 61.6474 159.627 61.5908 159.514 61.4774C159.4 61.3641 159.344 61.2241 159.344 61.0574C159.344 60.8908 159.4 60.7508 159.514 60.6374C159.627 60.5174 159.767 60.4574 159.934 60.4574C160.1 60.4574 160.24 60.5174 160.354 60.6374C160.474 60.7508 160.534 60.8908 160.534 61.0574C160.534 61.2241 160.474 61.3641 160.354 61.4774C160.24 61.5908 160.1 61.6474 159.934 61.6474Z" fill="#121212"/>
<path d="M478.414 132.607H377.928V250.18H478.414V132.607Z" fill="#F3EBE9"/>
<path d="M397.189 154.38H417.956C419.696 154.38 421.137 155.821 421.137 157.561C421.137 159.302 419.696 160.743 417.956 160.743H397.189C395.444 160.743 394.003 159.302 394.003 157.561C394.003 155.821 395.444 154.38 397.189 154.38Z" fill="#FAC7E1"/>
<path d="M430.682 154.38H438.051C439.796 154.38 441.237 155.821 441.237 157.561C441.237 159.302 439.796 160.743 438.051 160.743H430.682C428.942 160.743 427.5 159.302 427.5 157.561C427.5 155.821 428.942 154.38 430.682 154.38Z" fill="#ED3996"/>
<path d="M450.446 154.38H457.816C459.556 154.38 460.997 155.821 460.997 157.561C460.997 159.302 459.556 160.743 457.816 160.743H450.446C448.706 160.743 447.265 159.302 447.265 157.561C447.265 155.821 448.706 154.38 450.446 154.38Z" fill="#FAC7E1"/>
<path d="M397.189 205.126H417.956C419.696 205.126 421.137 206.568 421.137 208.308C421.137 210.053 419.696 211.49 417.956 211.49H397.189C395.444 211.49 394.003 210.053 394.003 208.308C394.003 206.568 395.444 205.126 397.189 205.126Z" fill="#FAC7E1"/>
<path d="M397.189 188.212H429.345C431.085 188.212 432.526 189.654 432.526 191.394C432.526 193.134 431.085 194.576 429.345 194.576H397.189C395.444 194.576 394.003 193.134 394.003 191.394C394.003 189.654 395.444 188.212 397.189 188.212Z" fill="#ED3996"/>
<path d="M417.285 171.294H438.051C439.796 171.294 441.237 172.736 441.237 174.481C441.237 176.221 439.796 177.662 438.051 177.662H417.285C415.544 177.662 414.103 176.221 414.103 174.481C414.103 172.736 415.544 171.294 417.285 171.294Z" fill="white"/>
<path d="M397.189 171.294H404.559C406.299 171.294 407.74 172.736 407.74 174.481C407.74 176.221 406.299 177.662 404.559 177.662H397.189C395.444 177.662 394.003 176.221 394.003 174.481C394.003 172.736 395.444 171.294 397.189 171.294Z" fill="#D51477"/>
<path d="M450.446 171.294H457.816C459.556 171.294 460.997 172.736 460.997 174.481C460.997 176.221 459.556 177.662 457.816 177.662H450.446C448.706 177.662 447.265 176.221 447.265 174.481C447.265 172.736 448.706 171.294 450.446 171.294Z" fill="white"/>
<path d="M417.285 226.607H457.816C459.556 226.607 460.997 228.044 460.997 229.789C460.997 231.529 459.556 232.971 457.816 232.971H417.285C415.544 232.971 414.103 231.529 414.103 229.789C414.103 228.044 415.544 226.607 417.285 226.607Z" fill="white"/>
<path d="M397.189 226.607H404.559C406.299 226.607 407.74 228.044 407.74 229.789C407.74 231.529 406.299 232.971 404.559 232.971H397.189C395.444 232.971 394.003 231.529 394.003 229.789C394.003 228.044 395.444 226.607 397.189 226.607Z" fill="#ED3996"/>
<rect x="394" y="184.607" width="69" height="37" rx="8" fill="#FAC7E1"/>
<rect x="402" y="200.607" width="40" height="3" rx="1.5" fill="#ED3996"/>
<rect x="402" y="215.607" width="35" height="3" rx="1.5" fill="#ED3996"/>
<path d="M142.652 179.607H17.3443C8.85919 179.607 2 186.724 2 195.528V317.683C2 326.49 8.85919 333.607 17.3443 333.607H142.652C151.141 333.607 158 326.49 158 317.683V195.528C158 186.752 151.11 179.607 142.652 179.607Z" fill="#D5D5D5"/>
<path d="M18.6554 206.142C22.1381 206.142 24.9575 203.323 24.9575 199.84C24.9575 196.357 22.1381 193.535 18.6554 193.535C15.1761 193.535 12.35 196.357 12.35 199.84C12.35 203.323 15.1761 206.142 18.6554 206.142Z" fill="white"/>
<path d="M36.9625 206.142C40.4453 206.142 43.268 203.323 43.268 199.84C43.268 196.357 40.4453 193.535 36.9625 193.535C33.4832 193.535 30.6571 196.357 30.6571 199.84C30.6571 203.323 33.4832 206.142 36.9625 206.142Z" fill="white"/>
<path d="M55.2967 206.142C58.7794 206.142 61.6021 203.323 61.6021 199.84C61.6021 196.357 58.7794 193.535 55.2967 193.535C51.8174 193.535 48.9946 196.357 48.9946 199.84C48.9946 203.323 51.8174 206.142 55.2967 206.142Z" fill="white"/>
<path d="M35.7204 290.607H40.865C43.1394 290.607 44.9975 292.466 44.9975 294.74C44.9975 297.018 43.1394 298.876 40.865 298.876H35.7204C33.4426 298.876 31.5879 297.018 31.5879 294.74C31.5879 292.466 33.4426 290.607 35.7204 290.607Z" fill="#BE94AA"/>
<path d="M54.6401 290.607H85.4971C87.775 290.607 89.6297 292.466 89.6297 294.74C89.6297 297.018 87.775 298.876 85.4971 298.876H54.6401C52.3623 298.876 50.5076 297.018 50.5076 294.74C50.5076 292.466 52.3623 290.607 54.6401 290.607Z" fill="white"/>
<path d="M99.2723 290.607H125.719C127.997 290.607 129.855 292.466 129.855 294.74C129.855 297.018 127.997 298.876 125.719 298.876H99.2723C96.9945 298.876 95.1398 297.018 95.1398 294.74C95.1398 292.466 96.9945 290.607 99.2723 290.607Z" fill="#BE94AA"/>
<path d="M35.7204 307.688H52.2506C54.5284 307.688 56.3832 309.547 56.3832 311.821C56.3832 314.099 54.5284 315.954 52.2506 315.954H35.7204C33.4426 315.954 31.5879 314.099 31.5879 311.821C31.5879 309.547 33.4426 307.688 35.7204 307.688Z" fill="white"/>
<path d="M66.0259 307.688H69.7015C71.9793 307.688 73.834 309.547 73.834 311.821C73.834 314.099 71.9793 315.954 69.7015 315.954H66.0259C63.748 315.954 61.8933 314.099 61.8933 311.821C61.8933 309.547 63.748 307.688 66.0259 307.688Z" fill="#BE94AA"/>
<path d="M83.4766 307.688H105.334C107.612 307.688 109.467 309.547 109.467 311.821C109.467 314.099 107.612 315.954 105.334 315.954H83.4766C81.1987 315.954 79.344 314.099 79.344 311.821C79.344 309.547 81.1987 307.688 83.4766 307.688Z" fill="#ED3996"/>
<path d="M342.528 70.6074H164.123C152.043 70.6074 142.277 80.373 142.277 92.4535V260.07C142.277 272.155 152.043 281.921 164.123 281.921H342.528C354.613 281.921 364.379 272.155 364.379 260.07V92.4535C364.379 80.4116 354.57 70.6074 342.528 70.6074Z" fill="#121212"/>
<path d="M164.523 105.562C168.473 105.562 171.67 102.364 171.67 98.4138C171.67 94.4637 168.473 91.2622 164.523 91.2622C160.576 91.2622 157.371 94.4637 157.371 98.4138C157.371 102.364 160.576 105.562 164.523 105.562Z" fill="#D5D5D5"/>
<path d="M184.381 105.562C188.33 105.562 191.531 102.364 191.531 98.4138C191.531 94.4637 188.33 91.2622 184.381 91.2622C180.436 91.2622 177.231 94.4637 177.231 98.4138C177.231 102.364 180.436 105.562 184.381 105.562Z" fill="#D5D5D5"/>
<path d="M205.034 105.562C208.984 105.562 212.185 102.364 212.185 98.4138C212.185 94.4637 208.984 91.2622 205.034 91.2622C201.088 91.2622 197.886 94.4637 197.886 98.4138C197.886 102.364 201.088 105.562 205.034 105.562Z" fill="#D5D5D5"/>
<path d="M101 39.4742L104.91 40.5173L107.784 36.6074L106.868 41.4324L111.041 41.6875L106.732 43.9095V48.6074L104.782 44.5618L101.263 46.1228L103.476 42.7306L101 39.4742Z" fill="white"/>
<path d="M113.041 39.4742L116.951 40.5173L119.825 36.6074L118.909 41.4324L123.081 41.6875L118.773 43.9095V48.6074L116.823 44.5618L113.303 46.1228L115.517 42.7306L113.041 39.4742Z" fill="white"/>
<path d="M125.081 39.4742L128.991 40.5173L131.866 36.6074L130.95 41.4324L135.122 41.6875L130.814 43.9095V48.6074L128.863 44.5618L125.344 46.1228L127.557 42.7306L125.081 39.4742Z" fill="white"/>
<path d="M35.7204 221.118H71.5359C73.8137 221.118 75.6684 222.973 75.6684 225.251C75.6684 227.525 73.8137 229.383 71.5359 229.383H35.7204C33.4426 229.383 31.5879 227.525 31.5879 225.251C31.5879 222.973 33.4426 221.118 35.7204 221.118Z" fill="#ED3996"/>
<path d="M36 222.474L39.9099 223.517L42.7843 219.607L41.8681 224.432L46.0407 224.687L41.7324 226.909V231.607L39.7818 227.562L36.2627 229.123L38.476 225.731L36 222.474Z" fill="white"/>
<path d="M48.0408 222.474L51.9507 223.517L54.825 219.607L53.9089 224.432L58.0815 224.687L53.7732 226.909V231.607L51.8226 227.562L48.3034 229.123L50.5167 225.731L48.0408 222.474Z" fill="white"/>
<path d="M60.0814 222.474L63.9913 223.517L66.8657 219.607L65.9495 224.432L70.1221 224.687L65.8138 226.909V231.607L63.8632 227.562L60.3441 229.123L62.5574 225.731L60.0814 222.474Z" fill="white"/>
<path d="M424 171.474L427.91 172.517L430.784 168.607L429.868 173.432L434.041 173.687L429.732 175.909V180.607L427.782 176.562L424.263 178.123L426.476 174.731L424 171.474Z" fill="#FFC930"/>
<path d="M436.041 171.474L439.951 172.517L442.825 168.607L441.909 173.432L446.081 173.687L441.773 175.909V180.607L439.823 176.562L436.303 178.123L438.517 174.731L436.041 171.474Z" fill="#FFC930"/>
<path d="M448.081 171.474L451.991 172.517L454.866 168.607L453.95 173.432L458.122 173.687L453.814 175.909V180.607L451.863 176.562L448.344 178.123L450.557 174.731L448.081 171.474Z" fill="#FFC930"/>
<rect x="30" y="235.607" width="98" height="49" rx="8" fill="white"/>
<path d="M38.208 244.927H47.52V245.999H38.208V244.927ZM36.8 254.639H49.872V255.743H36.8V254.639ZM46.816 244.927H48.112V246.367C48.112 248.223 48.112 250.287 47.568 253.407L46.24 253.279C46.816 250.319 46.816 248.159 46.816 246.367V244.927ZM62.0788 243.391H63.4068V253.183H62.0788V243.391ZM58.9748 247.471H62.3508V248.559H58.9748V247.471ZM57.5348 244.527H58.9268C58.9268 248.271 56.4628 250.927 52.3188 252.271L51.7588 251.215C55.4227 250.063 57.5348 247.887 57.5348 245.055V244.527ZM52.4468 244.527H58.4788V245.615H52.4468V244.527ZM58.0788 251.935H59.2148V252.591C59.2148 255.359 56.6868 257.231 53.7908 257.823L53.2628 256.767C55.8228 256.303 58.0788 254.703 58.0788 252.591V251.935ZM58.2708 251.935H59.4068V252.591C59.4068 254.671 61.6308 256.271 64.2068 256.735L63.6468 257.791C60.7668 257.215 58.2708 255.343 58.2708 252.591V251.935ZM66.2215 250.991H79.2935V252.079H66.2215V250.991ZM67.9175 256.447H77.8535V257.535H67.9175V256.447ZM67.9175 253.343H69.2455V256.783H67.9175V253.343ZM72.7655 243.871C75.8535 243.871 77.8535 244.959 77.8535 246.767C77.8535 248.559 75.8535 249.647 72.7655 249.647C69.6615 249.647 67.6775 248.559 67.6775 246.767C67.6775 244.959 69.6615 243.871 72.7655 243.871ZM72.7655 244.959C70.4935 244.959 69.0375 245.631 69.0375 246.767C69.0375 247.903 70.4935 248.575 72.7655 248.575C75.0375 248.575 76.4935 247.903 76.4935 246.767C76.4935 245.631 75.0375 244.959 72.7655 244.959ZM42.672 269.831H43.984V271.847H42.672V269.831ZM37.472 263.415H49.104V264.391H37.472V263.415ZM43.328 264.967C46.352 264.967 48 265.575 48 266.839C48 268.087 46.352 268.695 43.328 268.695C40.288 268.695 38.656 268.087 38.656 266.839C38.656 265.575 40.288 264.967 43.328 264.967ZM43.328 265.863C41.168 265.863 40.048 266.199 40.048 266.839C40.048 267.479 41.168 267.815 43.328 267.815C45.488 267.815 46.592 267.479 46.592 266.839C46.592 266.199 45.488 265.863 43.328 265.863ZM42.672 262.151H43.984V264.183H42.672V262.151ZM36.784 269.495H49.856V270.503H36.784V269.495ZM38.368 271.591H48.192V274.535H39.744V275.975H38.4V273.623H46.848V272.551H38.368V271.591ZM38.4 275.735H48.624V276.695H38.4V275.735ZM54.7668 270.359H56.0788V272.999H54.7668V270.359ZM60.0308 270.359H61.3428V272.999H60.0308V270.359ZM51.5028 269.783H64.6228V270.839H51.5028V269.783ZM53.1668 262.807H62.9108V266.231H54.5108V268.199H53.1988V265.271H61.5988V263.847H53.1668V262.807ZM53.1988 267.687H63.2468V268.743H53.1988V267.687ZM58.0308 272.167C61.1988 272.167 63.0388 272.983 63.0388 274.503C63.0388 276.023 61.1988 276.823 58.0308 276.823C54.8628 276.823 53.0388 276.023 53.0388 274.503C53.0388 272.983 54.8628 272.167 58.0308 272.167ZM58.0308 273.159C55.6948 273.159 54.3828 273.639 54.3828 274.503C54.3828 275.351 55.6948 275.831 58.0308 275.831C60.3668 275.831 61.6948 275.351 61.6948 274.503C61.6948 273.639 60.3668 273.159 58.0308 273.159ZM77.1495 262.407H78.4135V271.351H77.1495V262.407ZM74.7975 266.359H77.5335V267.447H74.7975V266.359ZM74.0775 262.615H75.3415V271.143H74.0775V262.615ZM66.1575 264.039H73.4855V265.095H66.1575V264.039ZM69.8375 265.815C71.6455 265.815 72.9095 266.791 72.9095 268.295C72.9095 269.799 71.6455 270.775 69.8375 270.775C68.0135 270.775 66.7495 269.799 66.7495 268.295C66.7495 266.791 68.0135 265.815 69.8375 265.815ZM69.8375 266.823C68.7015 266.823 67.9335 267.399 67.9335 268.295C67.9335 269.191 68.7015 269.783 69.8375 269.783C70.9575 269.783 71.7255 269.191 71.7255 268.295C71.7255 267.399 70.9575 266.823 69.8375 266.823ZM69.1815 262.455H70.4775V264.663H69.1815V262.455ZM70.0455 271.783H71.0695V272.279C71.0695 274.103 69.8695 275.927 67.7735 276.679L67.1495 275.687C68.9575 275.079 70.0455 273.591 70.0455 272.279V271.783ZM70.3495 271.783H71.3255V272.279C71.3255 273.671 72.1735 275.143 73.9015 275.799L73.3415 276.807C71.2775 276.039 70.3495 274.119 70.3495 272.279V271.783ZM75.3575 271.783H76.3335V272.279C76.3335 273.911 75.3895 275.975 73.3415 276.807L72.7975 275.799C74.4775 275.063 75.3575 273.479 75.3575 272.279V271.783ZM75.6295 271.783H76.6535V272.279C76.6535 273.687 77.7415 275.111 79.5655 275.687L78.9255 276.679C76.8135 275.959 75.6295 274.199 75.6295 272.279V271.783ZM90.7323 262.375H92.0763V276.871H90.7323V262.375ZM91.7563 268.087H94.4443V269.207H91.7563V268.087ZM81.5643 272.151H82.7003C85.3723 272.151 87.2443 272.055 89.4043 271.655L89.5483 272.775C87.3243 273.191 85.4203 273.271 82.7003 273.271H81.5643V272.151ZM81.5643 263.783H88.2843V264.871H82.8763V272.647H81.5643V263.783ZM97.875 263.971L97.7614 272.335H96.4432L96.3295 263.971H97.875ZM97.1023 275.698C96.822 275.698 96.5814 275.598 96.3807 275.397C96.1799 275.196 96.0795 274.956 96.0795 274.676C96.0795 274.395 96.1799 274.155 96.3807 273.954C96.5814 273.753 96.822 273.653 97.1023 273.653C97.3826 273.653 97.6231 273.753 97.8239 273.954C98.0246 274.155 98.125 274.395 98.125 274.676C98.125 274.861 98.0777 275.032 97.983 275.187C97.892 275.342 97.7689 275.467 97.6136 275.562C97.4621 275.653 97.2917 275.698 97.1023 275.698Z" fill="#121212"/>
<path d="M399.7 199.213V194.131H400.974V199.213H399.7ZM399.7 194.131C399.7 193.618 399.817 193.165 400.05 192.773C400.283 192.372 400.61 192.064 401.03 191.849C401.45 191.625 401.931 191.513 402.472 191.513V192.619C402.005 192.619 401.637 192.75 401.366 193.011C401.105 193.273 400.974 193.646 400.974 194.131H399.7ZM399.7 199.199H400.974C400.974 199.685 401.105 200.063 401.366 200.333C401.637 200.595 402.005 200.725 402.472 200.725V201.831C401.931 201.831 401.45 201.719 401.03 201.495C400.61 201.271 400.283 200.963 400.05 200.571C399.817 200.179 399.7 199.722 399.7 199.199ZM404.138 194.495C404.082 193.907 403.905 193.45 403.606 193.123C403.317 192.787 402.934 192.619 402.458 192.619V191.513C403.251 191.513 403.895 191.756 404.39 192.241C404.894 192.727 405.197 193.399 405.3 194.257L404.138 194.495ZM404.138 198.849L405.3 199.073C405.197 199.941 404.894 200.618 404.39 201.103C403.895 201.589 403.251 201.831 402.458 201.831V200.725C402.934 200.725 403.317 200.562 403.606 200.235C403.905 199.899 404.082 199.437 404.138 198.849ZM406.777 194.537L406.567 191.527H407.771L407.575 194.537H406.777ZM411.901 193.809H410.837L411.747 191.947H413.049L411.901 193.809ZM409.507 198.457V197.547H414.281V198.457H409.507ZM411.677 201.831V200.725H411.747V201.831H411.677ZM409.101 199.101V197.043H410.375V199.101H409.101ZM413.007 197.547V196.819H414.281V197.547H413.007ZM414.281 196.819H413.007C413.007 196.409 412.881 196.073 412.629 195.811C412.387 195.55 412.069 195.419 411.677 195.419V194.327C412.181 194.327 412.625 194.435 413.007 194.649C413.399 194.864 413.707 195.163 413.931 195.545C414.165 195.919 414.281 196.343 414.281 196.819ZM413.063 199.507L414.253 199.745C414.197 200.147 414.053 200.506 413.819 200.823C413.586 201.141 413.292 201.388 412.937 201.565C412.583 201.743 412.186 201.831 411.747 201.831V200.725C412.083 200.725 412.373 200.627 412.615 200.431C412.867 200.226 413.017 199.918 413.063 199.507ZM409.101 197.057C409.101 196.525 409.213 196.059 409.437 195.657C409.671 195.247 409.979 194.925 410.361 194.691C410.753 194.449 411.197 194.327 411.691 194.327V195.419C411.281 195.419 410.959 195.564 410.725 195.853C410.492 196.133 410.375 196.535 410.375 197.057H409.101ZM409.101 199.101H410.375C410.375 199.615 410.492 200.016 410.725 200.305C410.959 200.585 411.281 200.725 411.691 200.725V201.831C411.197 201.831 410.753 201.715 410.361 201.481C409.979 201.239 409.671 200.912 409.437 200.501C409.213 200.091 409.101 199.624 409.101 199.101ZM416.038 199.465V191.723L417.312 191.737V199.465H416.038ZM415.226 195.587V194.537H419.076V195.587H415.226ZM416.038 199.451H417.312C417.312 199.722 417.35 199.951 417.424 200.137C417.499 200.324 417.606 200.469 417.746 200.571C417.886 200.665 418.054 200.711 418.25 200.711L418.138 201.817C417.485 201.817 416.972 201.612 416.598 201.201C416.225 200.781 416.038 200.198 416.038 199.451ZM418.908 200.473L419.412 201.383C419.226 201.523 419.02 201.631 418.796 201.705C418.582 201.78 418.362 201.817 418.138 201.817L418.25 200.711C418.372 200.711 418.484 200.693 418.586 200.655C418.698 200.609 418.806 200.548 418.908 200.473ZM424.032 201.607V196.791H425.306V201.607H424.032ZM422.324 201.817L422.422 200.767C422.758 200.767 423.043 200.683 423.276 200.515C423.519 200.347 423.705 200.1 423.836 199.773C423.967 199.447 424.032 199.059 424.032 198.611L424.662 198.583C424.662 199.218 424.559 199.778 424.354 200.263C424.149 200.749 423.869 201.131 423.514 201.411C423.169 201.682 422.772 201.817 422.324 201.817ZM422.324 201.817C421.904 201.817 421.521 201.719 421.176 201.523C420.831 201.327 420.555 201.061 420.35 200.725C420.145 200.38 420.042 199.997 420.042 199.577L421.246 199.535C421.246 199.89 421.363 200.184 421.596 200.417C421.839 200.651 422.114 200.767 422.422 200.767L422.324 201.817ZM420.042 199.577C420.042 199.139 420.149 198.756 420.364 198.429C420.588 198.093 420.887 197.827 421.26 197.631C421.633 197.435 422.058 197.337 422.534 197.337L422.604 198.317C422.212 198.317 421.885 198.434 421.624 198.667C421.372 198.891 421.246 199.181 421.246 199.535L420.042 199.577ZM422.604 198.317L422.534 197.337H424.69V198.317H422.604ZM424.032 198.611V196.805H424.662V198.583L424.032 198.611ZM425.306 196.819H424.032C424.032 196.409 423.906 196.073 423.654 195.811C423.411 195.55 423.094 195.419 422.702 195.419V194.327C423.206 194.327 423.649 194.435 424.032 194.649C424.424 194.864 424.732 195.163 424.956 195.545C425.189 195.919 425.306 196.343 425.306 196.819ZM421.386 196.651L420.21 196.413C420.266 195.993 420.406 195.629 420.63 195.321C420.863 195.013 421.157 194.771 421.512 194.593C421.876 194.416 422.277 194.327 422.716 194.327V195.419C422.371 195.419 422.072 195.522 421.82 195.727C421.577 195.923 421.433 196.231 421.386 196.651ZM426.873 201.607V194.537H428.147V201.607H426.873ZM427.503 193.599C427.269 193.599 427.073 193.52 426.915 193.361C426.756 193.203 426.677 193.007 426.677 192.773C426.677 192.54 426.756 192.344 426.915 192.185C427.073 192.017 427.269 191.933 427.503 191.933C427.736 191.933 427.932 192.017 428.091 192.185C428.259 192.344 428.343 192.54 428.343 192.773C428.343 193.007 428.259 193.203 428.091 193.361C427.932 193.52 427.736 193.599 427.503 193.599ZM430.435 199.465V191.723L431.709 191.737V199.465H430.435ZM429.623 195.587V194.537H433.473V195.587H429.623ZM430.435 199.451H431.709C431.709 199.722 431.746 199.951 431.821 200.137C431.895 200.324 432.003 200.469 432.143 200.571C432.283 200.665 432.451 200.711 432.647 200.711L432.535 201.817C431.881 201.817 431.368 201.612 430.995 201.201C430.621 200.781 430.435 200.198 430.435 199.451ZM433.305 200.473L433.809 201.383C433.622 201.523 433.417 201.631 433.193 201.705C432.978 201.78 432.759 201.817 432.535 201.817L432.647 200.711C432.768 200.711 432.88 200.693 432.983 200.655C433.095 200.609 433.202 200.548 433.305 200.473ZM403.186 214.787C403.186 214.554 403.102 214.363 402.934 214.213C402.766 214.055 402.547 213.915 402.276 213.793C402.015 213.663 401.735 213.532 401.436 213.401C401.147 213.271 400.867 213.121 400.596 212.953C400.335 212.776 400.12 212.557 399.952 212.295C399.784 212.025 399.7 211.698 399.7 211.315C399.7 211.315 399.737 211.315 399.812 211.315C399.896 211.315 399.999 211.315 400.12 211.315C400.251 211.315 400.377 211.315 400.498 211.315C400.619 211.315 400.722 211.315 400.806 211.315C400.89 211.315 400.932 211.315 400.932 211.315C400.932 211.549 401.016 211.745 401.184 211.903C401.352 212.053 401.567 212.188 401.828 212.309C402.099 212.431 402.383 212.561 402.682 212.701C402.981 212.832 403.261 212.986 403.522 213.163C403.783 213.341 403.998 213.56 404.166 213.821C404.343 214.073 404.432 214.395 404.432 214.787C404.432 214.787 404.39 214.787 404.306 214.787C404.222 214.787 404.115 214.787 403.984 214.787C403.863 214.787 403.741 214.787 403.62 214.787C403.499 214.787 403.396 214.787 403.312 214.787C403.228 214.787 403.186 214.787 403.186 214.787ZM401.996 216.817V215.711C402.341 215.711 402.626 215.627 402.85 215.459C403.074 215.282 403.186 215.058 403.186 214.787H404.432C404.432 215.179 404.325 215.529 404.11 215.837C403.905 216.145 403.62 216.388 403.256 216.565C402.892 216.733 402.472 216.817 401.996 216.817ZM399.7 211.315C399.7 210.933 399.793 210.592 399.98 210.293C400.176 209.985 400.447 209.747 400.792 209.579C401.137 209.402 401.52 209.313 401.94 209.313V210.419C401.651 210.419 401.408 210.503 401.212 210.671C401.025 210.839 400.932 211.054 400.932 211.315H399.7ZM400.666 214.493C400.713 214.904 400.862 215.212 401.114 215.417C401.366 215.613 401.66 215.711 401.996 215.711V216.817C401.567 216.817 401.17 216.729 400.806 216.551C400.442 216.374 400.143 216.127 399.91 215.809C399.686 215.492 399.546 215.133 399.49 214.731L400.666 214.493ZM403.256 211.637C403.209 211.217 403.06 210.909 402.808 210.713C402.565 210.517 402.276 210.419 401.94 210.419V209.313C402.379 209.313 402.775 209.402 403.13 209.579C403.485 209.757 403.779 210.004 404.012 210.321C404.245 210.629 404.39 210.989 404.446 211.399L403.256 211.637ZM410.731 209.537V216.607H409.457V209.537H410.731ZM406.797 209.537V214.353H405.523V209.537H406.797ZM406.797 214.353C406.797 214.745 406.918 215.067 407.161 215.319C407.413 215.562 407.73 215.683 408.113 215.683L407.791 216.817C407.352 216.817 406.96 216.71 406.615 216.495C406.279 216.281 406.013 215.987 405.817 215.613C405.621 215.24 405.523 214.82 405.523 214.353H406.797ZM410.017 214.311C410.017 214.787 409.919 215.217 409.723 215.599C409.536 215.973 409.27 216.271 408.925 216.495C408.589 216.71 408.211 216.817 407.791 216.817L408.113 215.683C408.505 215.683 408.827 215.557 409.079 215.305C409.331 215.053 409.457 214.722 409.457 214.311H410.017ZM412.404 216.593H413.678V219.407H412.404V216.593ZM413.678 209.537V216.607H412.404V209.537H413.678ZM417.612 211.791V214.353H416.338V211.791H417.612ZM416.338 214.353H417.612C417.612 214.82 417.514 215.24 417.318 215.613C417.122 215.987 416.852 216.281 416.506 216.495C416.17 216.71 415.788 216.817 415.358 216.817L415.036 215.683C415.419 215.683 415.732 215.562 415.974 215.319C416.217 215.067 416.338 214.745 416.338 214.353ZM413.118 214.311H413.678C413.678 214.722 413.804 215.053 414.056 215.305C414.308 215.557 414.635 215.683 415.036 215.683L415.358 216.817C414.929 216.817 414.546 216.71 414.21 216.495C413.874 216.271 413.608 215.973 413.412 215.599C413.216 215.217 413.118 214.787 413.118 214.311ZM416.338 211.791C416.338 211.399 416.217 211.082 415.974 210.839C415.732 210.587 415.419 210.461 415.036 210.461L415.358 209.327C415.788 209.327 416.17 209.435 416.506 209.649C416.852 209.864 417.122 210.158 417.318 210.531C417.514 210.905 417.612 211.325 417.612 211.791H416.338ZM413.118 211.819C413.118 211.343 413.216 210.919 413.412 210.545C413.608 210.163 413.874 209.864 414.21 209.649C414.546 209.435 414.929 209.327 415.358 209.327L415.036 210.461C414.635 210.461 414.308 210.587 414.056 210.839C413.804 211.091 413.678 211.418 413.678 211.819H413.118ZM419.187 213.457V212.547H423.961V213.457H419.187ZM421.357 216.831V215.725H421.427V216.831H421.357ZM418.781 214.101V212.043H420.055V214.101H418.781ZM422.687 212.547V211.819H423.961V212.547H422.687ZM423.961 211.819H422.687C422.687 211.409 422.561 211.073 422.309 210.811C422.066 210.55 421.749 210.419 421.357 210.419V209.327C421.861 209.327 422.304 209.435 422.687 209.649C423.079 209.864 423.387 210.163 423.611 210.545C423.844 210.919 423.961 211.343 423.961 211.819ZM422.743 214.507L423.933 214.745C423.877 215.147 423.732 215.506 423.499 215.823C423.266 216.141 422.972 216.388 422.617 216.565C422.262 216.743 421.866 216.831 421.427 216.831V215.725C421.763 215.725 422.052 215.627 422.295 215.431C422.547 215.226 422.696 214.918 422.743 214.507ZM418.781 212.057C418.781 211.525 418.893 211.059 419.117 210.657C419.35 210.247 419.658 209.925 420.041 209.691C420.433 209.449 420.876 209.327 421.371 209.327V210.419C420.96 210.419 420.638 210.564 420.405 210.853C420.172 211.133 420.055 211.535 420.055 212.057H418.781ZM418.781 214.101H420.055C420.055 214.615 420.172 215.016 420.405 215.305C420.638 215.585 420.96 215.725 421.371 215.725V216.831C420.876 216.831 420.433 216.715 420.041 216.481C419.658 216.239 419.35 215.912 419.117 215.501C418.893 215.091 418.781 214.624 418.781 214.101ZM425.256 216.607V209.537H426.53V216.607H425.256ZM425.956 211.945C425.956 211.46 426.04 211.021 426.208 210.629C426.385 210.237 426.623 209.934 426.922 209.719C427.221 209.495 427.557 209.383 427.93 209.383L427.65 210.573C427.323 210.573 427.053 210.704 426.838 210.965C426.633 211.217 426.53 211.544 426.53 211.945H425.956ZM428.546 210.951C428.406 210.83 428.257 210.737 428.098 210.671C427.949 210.606 427.799 210.573 427.65 210.573L427.93 209.383C428.145 209.383 428.345 209.421 428.532 209.495C428.719 209.561 428.905 209.682 429.092 209.859L428.546 210.951ZM430.455 213.653L430.343 206.737H431.617L431.491 213.653H430.455ZM430.973 216.663C430.74 216.663 430.544 216.584 430.385 216.425C430.227 216.267 430.147 216.071 430.147 215.837C430.147 215.604 430.227 215.408 430.385 215.249C430.544 215.081 430.74 214.997 430.973 214.997C431.207 214.997 431.403 215.081 431.561 215.249C431.729 215.408 431.813 215.604 431.813 215.837C431.813 216.071 431.729 216.267 431.561 216.425C431.403 216.584 431.207 216.663 430.973 216.663Z" fill="#121212"/>
<path d="M170.76 181.152H183.528V183.432H170.76V181.152ZM175.32 174.552H178.344V178.152H175.32V174.552ZM166.56 194.136C169.368 193.8 173.616 193.152 177.552 192.528L177.744 195.216C174.072 195.84 170.112 196.464 167.232 196.92L166.56 194.136ZM177.528 186.552C179.088 190.92 182.496 193.656 188.28 194.592C187.656 195.216 186.864 196.44 186.456 197.208C180.168 195.912 176.832 192.672 174.84 187.176L177.528 186.552ZM184.944 186.96L187.2 188.712C185.28 190.2 182.736 191.784 180.816 192.744L178.896 191.112C180.792 190.128 183.36 188.376 184.944 186.96ZM170.64 176.856H185.328V187.848H170.64V185.328H182.376V179.352H170.64V176.856ZM169.104 176.856H172.056V194.568L169.104 194.808V176.856ZM200.064 176.064C199.92 176.688 199.776 177.456 199.632 178.056C199.416 179.136 199.104 180.624 198.864 181.848C198.072 185.232 196.128 192.072 193.632 196.128L190.488 194.88C193.344 191.04 195.144 184.704 195.816 181.68C196.272 179.52 196.536 177.48 196.512 175.68L200.064 176.064ZM208.344 178.296C209.808 180.384 211.824 184.944 212.568 187.248L209.52 188.664C208.896 185.976 207.192 181.656 205.464 179.52L208.344 178.296ZM190.344 180.984C191.208 181.032 192.024 181.008 192.912 180.984C194.832 180.936 199.368 180.408 201.168 180.408C203.688 180.408 205.488 181.536 205.488 185.016C205.488 187.848 205.152 191.736 204.144 193.8C203.328 195.48 202.008 196.008 200.208 196.008C199.272 196.008 198.144 195.864 197.304 195.672L196.8 192.504C197.736 192.768 199.104 193.008 199.728 193.008C200.544 193.008 201.144 192.768 201.528 191.976C202.2 190.632 202.512 187.704 202.512 185.352C202.512 183.432 201.672 183.144 200.184 183.144C198.744 183.144 194.616 183.672 193.296 183.84C192.6 183.936 191.352 184.104 190.632 184.224L190.344 180.984ZM216.408 184.848C217.128 184.728 218.232 184.44 218.952 184.2C220.608 183.72 224.664 182.328 227.568 182.328C231.384 182.328 233.928 184.584 233.928 188.232C233.928 192.552 230.088 195.528 222.48 195.984L221.208 193.032C226.68 192.888 230.736 191.424 230.736 188.16C230.736 186.384 229.392 185.112 227.28 185.112C224.496 185.112 219.72 187.104 217.656 187.968L216.408 184.848ZM248.352 175.848C248.184 176.52 247.968 177.6 247.848 178.128C247.512 179.76 246.912 182.688 246.264 185.136C245.4 188.496 243.792 193.392 242.472 196.248L239.136 195.12C240.552 192.696 242.376 187.68 243.288 184.32C243.888 182.064 244.44 179.424 244.608 178.008C244.728 177.12 244.752 176.136 244.68 175.56L248.352 175.848ZM242.232 179.448C245.16 179.448 248.544 178.992 251.664 178.248V181.248C248.688 181.944 244.92 182.352 242.208 182.352C241.032 182.352 240.144 182.304 239.304 182.256L239.208 179.256C240.456 179.4 241.248 179.448 242.232 179.448ZM249.768 183.12C251.112 182.976 252.84 182.88 254.4 182.88C255.768 182.88 257.208 182.952 258.6 183.096L258.552 185.976C257.328 185.832 255.864 185.664 254.424 185.664C252.768 185.664 251.28 185.736 249.768 185.928V183.12ZM251.064 189.144C250.896 189.84 250.752 190.608 250.752 191.136C250.752 192.192 251.448 192.984 254.04 192.984C255.648 192.984 257.304 192.816 259.008 192.504L258.888 195.552C257.544 195.744 255.936 195.888 254.016 195.888C249.96 195.888 247.8 194.52 247.8 192.096C247.8 190.968 248.016 189.816 248.208 188.88L251.064 189.144ZM262.656 178.56C263.592 178.536 264.552 178.488 265.008 178.44C267 178.248 270.96 177.912 275.352 177.528C277.848 177.336 280.464 177.168 282.168 177.096L282.192 180.192C280.896 180.192 278.832 180.216 277.536 180.504C274.656 181.272 272.472 184.392 272.472 187.248C272.472 191.184 276.168 192.624 280.224 192.816L279.096 196.104C274.08 195.792 269.328 193.08 269.328 187.872C269.328 184.44 271.272 181.704 272.88 180.48C270.648 180.72 265.728 181.248 262.968 181.848L262.656 178.56ZM278.76 182.544C279.336 183.384 280.2 184.848 280.656 185.808L278.856 186.6C278.232 185.304 277.728 184.344 276.984 183.288L278.76 182.544ZM281.424 181.44C282.048 182.28 282.96 183.696 283.464 184.632L281.664 185.496C281.016 184.2 280.464 183.288 279.696 182.232L281.424 181.44ZM300.672 175.656C300.6 176.064 300.528 177.336 300.504 177.72C300.432 179.304 300.48 184.2 300.504 186.12L297.504 185.112C297.504 183.624 297.504 179.016 297.408 177.744C297.336 176.784 297.24 175.968 297.192 175.656H300.672ZM287.088 178.656C290.664 178.656 297 178.464 300 178.464C302.448 178.464 306.096 178.44 307.44 178.464L307.392 181.296C305.904 181.224 303.456 181.152 299.928 181.152C295.56 181.152 290.784 181.344 287.16 181.536L287.088 178.656ZM300.096 185.76C300.096 189.672 298.656 191.616 295.896 191.616C294.048 191.616 291.744 190.152 291.744 187.224C291.744 184.512 293.952 182.736 296.544 182.736C299.712 182.736 301.368 185.064 301.368 188.04C301.368 191.184 299.52 195.144 293.664 196.8L291.12 194.256C295.2 193.368 298.392 191.76 298.392 187.56C298.392 186 297.552 185.256 296.496 185.256C295.56 185.256 294.624 185.904 294.624 187.176C294.624 188.256 295.512 188.952 296.496 188.952C297.624 188.952 298.608 187.992 297.84 185.136L300.096 185.76ZM319.752 188.832L319.128 180.624L319.008 177.048H322.968L322.848 180.624L322.224 188.832H319.752ZM321 195.24C319.752 195.24 318.864 194.352 318.864 193.104C318.864 191.856 319.776 190.992 321 190.992C322.2 190.992 323.112 191.856 323.112 193.104C323.112 194.352 322.2 195.24 321 195.24Z" fill="white"/>
<path d="M340.332 238.817L307 233L320.103 264.132L323.54 255.472L333.552 263.467L342.646 252.083L332.634 244.087L340.332 238.817Z" fill="#FAC7E1"/>
<path d="M167.587 221.48V219.9H169.627V221.48H167.587ZM167.587 228.58V227H169.627V228.58H167.587ZM171.747 224.84V223.64H173.567V224.84H171.747ZM173.567 223.64H171.747C171.747 222.947 171.554 222.413 171.167 222.04C170.794 221.667 170.274 221.48 169.607 221.48V219.9C170.394 219.9 171.08 220.06 171.667 220.38C172.267 220.687 172.734 221.127 173.067 221.7C173.4 222.26 173.567 222.907 173.567 223.64ZM173.567 224.82C173.567 225.567 173.4 226.22 173.067 226.78C172.734 227.34 172.267 227.78 171.667 228.1C171.08 228.42 170.394 228.58 169.607 228.58V227C170.274 227 170.794 226.807 171.167 226.42C171.554 226.033 171.747 225.5 171.747 224.82H173.567ZM166.407 234V219.9H168.227V234H166.407ZM175.572 234V223.9H177.392V234H175.572ZM176.472 222.56C176.139 222.56 175.859 222.447 175.632 222.22C175.405 221.993 175.292 221.713 175.292 221.38C175.292 221.047 175.405 220.767 175.632 220.54C175.859 220.3 176.139 220.18 176.472 220.18C176.805 220.18 177.085 220.3 177.312 220.54C177.552 220.767 177.672 221.047 177.672 221.38C177.672 221.713 177.552 221.993 177.312 222.22C177.085 222.447 176.805 222.56 176.472 222.56ZM185.081 234L181.501 228.42L183.241 227.84L186.981 234H185.081ZM181.561 230.4L180.161 229.46L184.541 223.9H186.741L181.561 230.4ZM180.001 234V219.6H181.821V234H180.001ZM188.614 234V223.9H190.434V234H188.614ZM189.614 227.34C189.614 226.647 189.734 226.02 189.974 225.46C190.227 224.9 190.567 224.467 190.994 224.16C191.421 223.84 191.901 223.68 192.434 223.68L192.034 225.38C191.567 225.38 191.181 225.567 190.874 225.94C190.581 226.3 190.434 226.767 190.434 227.34H189.614ZM193.314 225.92C193.114 225.747 192.901 225.613 192.674 225.52C192.461 225.427 192.247 225.38 192.034 225.38L192.434 223.68C192.741 223.68 193.027 223.733 193.294 223.84C193.561 223.933 193.827 224.107 194.094 224.36L193.314 225.92ZM195.218 229.5V228.2H202.038V229.5H195.218ZM198.318 234.32V232.74H198.418V234.32H198.318ZM194.638 230.42V227.48H196.458V230.42H194.638ZM200.218 228.2V227.16H202.038V228.2H200.218ZM202.038 227.16H200.218C200.218 226.573 200.038 226.093 199.678 225.72C199.331 225.347 198.878 225.16 198.318 225.16V223.6C199.038 223.6 199.671 223.753 200.218 224.06C200.778 224.367 201.218 224.793 201.538 225.34C201.871 225.873 202.038 226.48 202.038 227.16ZM200.298 231L201.998 231.34C201.918 231.913 201.711 232.427 201.378 232.88C201.044 233.333 200.624 233.687 200.118 233.94C199.611 234.193 199.044 234.32 198.418 234.32V232.74C198.898 232.74 199.311 232.6 199.658 232.32C200.018 232.027 200.231 231.587 200.298 231ZM194.638 227.5C194.638 226.74 194.798 226.073 195.118 225.5C195.451 224.913 195.891 224.453 196.438 224.12C196.998 223.773 197.631 223.6 198.338 223.6V225.16C197.751 225.16 197.291 225.367 196.958 225.78C196.624 226.18 196.458 226.753 196.458 227.5H194.638ZM194.638 230.42H196.458C196.458 231.153 196.624 231.727 196.958 232.14C197.291 232.54 197.751 232.74 198.338 232.74V234.32C197.631 234.32 196.998 234.153 196.438 233.82C195.891 233.473 195.451 233.007 195.118 232.42C194.798 231.833 194.638 231.167 194.638 230.42ZM208.775 234L202.955 223.9H204.895L210.715 234H208.775ZM202.955 234L205.875 228.94H207.795L204.895 234H202.955ZM205.875 228.94L208.775 223.9H210.715L207.795 228.94H205.875ZM215.49 221.48V219.9H223.79V221.48H215.49ZM218.73 234V219.9H220.55V234H218.73ZM224.493 234V223.9H226.313V234H224.493ZM225.493 227.34C225.493 226.647 225.613 226.02 225.853 225.46C226.106 224.9 226.446 224.467 226.873 224.16C227.3 223.84 227.78 223.68 228.313 223.68L227.913 225.38C227.446 225.38 227.06 225.567 226.753 225.94C226.46 226.3 226.313 226.767 226.313 227.34H225.493ZM229.193 225.92C228.993 225.747 228.78 225.613 228.553 225.52C228.34 225.427 228.126 225.38 227.913 225.38L228.313 223.68C228.62 223.68 228.906 223.733 229.173 223.84C229.44 223.933 229.706 224.107 229.973 224.36L229.193 225.92ZM236.416 234V227.12H238.236V234H236.416ZM233.976 234.3L234.116 232.8C234.596 232.8 235.003 232.68 235.336 232.44C235.683 232.2 235.95 231.847 236.136 231.38C236.323 230.913 236.416 230.36 236.416 229.72L237.316 229.68C237.316 230.587 237.17 231.387 236.876 232.08C236.583 232.773 236.183 233.32 235.676 233.72C235.183 234.107 234.616 234.3 233.976 234.3ZM233.976 234.3C233.376 234.3 232.83 234.16 232.336 233.88C231.843 233.6 231.45 233.22 231.156 232.74C230.863 232.247 230.716 231.7 230.716 231.1L232.436 231.04C232.436 231.547 232.603 231.967 232.936 232.3C233.283 232.633 233.676 232.8 234.116 232.8L233.976 234.3ZM230.716 231.1C230.716 230.473 230.87 229.927 231.176 229.46C231.496 228.98 231.923 228.6 232.456 228.32C232.99 228.04 233.596 227.9 234.276 227.9L234.376 229.3C233.816 229.3 233.35 229.467 232.976 229.8C232.616 230.12 232.436 230.533 232.436 231.04L230.716 231.1ZM234.376 229.3L234.276 227.9H237.356V229.3H234.376ZM236.416 229.72V227.14H237.316V229.68L236.416 229.72ZM238.236 227.16H236.416C236.416 226.573 236.236 226.093 235.876 225.72C235.53 225.347 235.076 225.16 234.516 225.16V223.6C235.236 223.6 235.87 223.753 236.416 224.06C236.976 224.367 237.416 224.793 237.736 225.34C238.07 225.873 238.236 226.48 238.236 227.16ZM232.636 226.92L230.956 226.58C231.036 225.98 231.236 225.46 231.556 225.02C231.89 224.58 232.31 224.233 232.816 223.98C233.336 223.727 233.91 223.6 234.536 223.6V225.16C234.043 225.16 233.616 225.307 233.256 225.6C232.91 225.88 232.703 226.32 232.636 226.92ZM240.274 234V223.9H242.094V234H240.274ZM245.894 234V227.12H247.714V234H245.894ZM245.894 227.12C245.894 226.56 245.721 226.107 245.374 225.76C245.028 225.4 244.581 225.22 244.034 225.22L244.494 223.6C245.108 223.6 245.654 223.753 246.134 224.06C246.628 224.367 247.014 224.787 247.294 225.32C247.574 225.853 247.714 226.453 247.714 227.12H245.894ZM241.294 227.16C241.294 226.48 241.434 225.873 241.714 225.34C241.994 224.793 242.374 224.367 242.854 224.06C243.334 223.753 243.881 223.6 244.494 223.6L244.034 225.22C243.461 225.22 242.994 225.4 242.634 225.76C242.274 226.12 242.094 226.587 242.094 227.16H241.294ZM254.664 231.4C254.664 231.067 254.544 230.793 254.304 230.58C254.064 230.353 253.75 230.153 253.364 229.98C252.99 229.793 252.59 229.607 252.164 229.42C251.75 229.233 251.35 229.02 250.964 228.78C250.59 228.527 250.284 228.213 250.044 227.84C249.804 227.453 249.684 226.987 249.684 226.44C249.684 226.44 249.737 226.44 249.844 226.44C249.964 226.44 250.11 226.44 250.284 226.44C250.47 226.44 250.65 226.44 250.824 226.44C250.997 226.44 251.144 226.44 251.264 226.44C251.384 226.44 251.444 226.44 251.444 226.44C251.444 226.773 251.564 227.053 251.804 227.28C252.044 227.493 252.35 227.687 252.724 227.86C253.11 228.033 253.517 228.22 253.944 228.42C254.37 228.607 254.77 228.827 255.144 229.08C255.517 229.333 255.824 229.647 256.064 230.02C256.317 230.38 256.444 230.84 256.444 231.4C256.444 231.4 256.384 231.4 256.264 231.4C256.144 231.4 255.99 231.4 255.804 231.4C255.63 231.4 255.457 231.4 255.284 231.4C255.11 231.4 254.964 231.4 254.844 231.4C254.724 231.4 254.664 231.4 254.664 231.4ZM252.964 234.3V232.72C253.457 232.72 253.864 232.6 254.184 232.36C254.504 232.107 254.664 231.787 254.664 231.4H256.444C256.444 231.96 256.29 232.46 255.984 232.9C255.69 233.34 255.284 233.687 254.764 233.94C254.244 234.18 253.644 234.3 252.964 234.3ZM249.684 226.44C249.684 225.893 249.817 225.407 250.084 224.98C250.364 224.54 250.75 224.2 251.244 223.96C251.737 223.707 252.284 223.58 252.884 223.58V225.16C252.47 225.16 252.124 225.28 251.844 225.52C251.577 225.76 251.444 226.067 251.444 226.44H249.684ZM251.064 230.98C251.13 231.567 251.344 232.007 251.704 232.3C252.064 232.58 252.484 232.72 252.964 232.72V234.3C252.35 234.3 251.784 234.173 251.264 233.92C250.744 233.667 250.317 233.313 249.984 232.86C249.664 232.407 249.464 231.893 249.384 231.32L251.064 230.98ZM254.764 226.9C254.697 226.3 254.484 225.86 254.124 225.58C253.777 225.3 253.364 225.16 252.884 225.16V223.58C253.51 223.58 254.077 223.707 254.584 223.96C255.09 224.213 255.51 224.567 255.844 225.02C256.177 225.46 256.384 225.973 256.464 226.56L254.764 226.9ZM258.502 234V219.6H260.322V234H258.502ZM268.272 234V227.12H270.092V234H268.272ZM265.832 234.3L265.972 232.8C266.452 232.8 266.859 232.68 267.192 232.44C267.539 232.2 267.805 231.847 267.992 231.38C268.179 230.913 268.272 230.36 268.272 229.72L269.172 229.68C269.172 230.587 269.025 231.387 268.732 232.08C268.439 232.773 268.039 233.32 267.532 233.72C267.039 234.107 266.472 234.3 265.832 234.3ZM265.832 234.3C265.232 234.3 264.685 234.16 264.192 233.88C263.699 233.6 263.305 233.22 263.012 232.74C262.719 232.247 262.572 231.7 262.572 231.1L264.292 231.04C264.292 231.547 264.459 231.967 264.792 232.3C265.139 232.633 265.532 232.8 265.972 232.8L265.832 234.3ZM262.572 231.1C262.572 230.473 262.725 229.927 263.032 229.46C263.352 228.98 263.779 228.6 264.312 228.32C264.845 228.04 265.452 227.9 266.132 227.9L266.232 229.3C265.672 229.3 265.205 229.467 264.832 229.8C264.472 230.12 264.292 230.533 264.292 231.04L262.572 231.1ZM266.232 229.3L266.132 227.9H269.212V229.3H266.232ZM268.272 229.72V227.14H269.172V229.68L268.272 229.72ZM270.092 227.16H268.272C268.272 226.573 268.092 226.093 267.732 225.72C267.385 225.347 266.932 225.16 266.372 225.16V223.6C267.092 223.6 267.725 223.753 268.272 224.06C268.832 224.367 269.272 224.793 269.592 225.34C269.925 225.873 270.092 226.48 270.092 227.16ZM264.492 226.92L262.812 226.58C262.892 225.98 263.092 225.46 263.412 225.02C263.745 224.58 264.165 224.233 264.672 223.98C265.192 223.727 265.765 223.6 266.392 223.6V225.16C265.899 225.16 265.472 225.307 265.112 225.6C264.765 225.88 264.559 226.32 264.492 226.92ZM272.79 230.94V219.88L274.61 219.9V230.94H272.79ZM271.63 225.4V223.9H277.13V225.4H271.63ZM272.79 230.92H274.61C274.61 231.307 274.663 231.633 274.77 231.9C274.876 232.167 275.03 232.373 275.23 232.52C275.43 232.653 275.67 232.72 275.95 232.72L275.79 234.3C274.856 234.3 274.123 234.007 273.59 233.42C273.056 232.82 272.79 231.987 272.79 230.92ZM276.89 232.38L277.61 233.68C277.343 233.88 277.05 234.033 276.73 234.14C276.423 234.247 276.11 234.3 275.79 234.3L275.95 232.72C276.123 232.72 276.283 232.693 276.43 232.64C276.59 232.573 276.743 232.487 276.89 232.38ZM279.302 234V223.9H281.122V234H279.302ZM280.202 222.56C279.869 222.56 279.589 222.447 279.362 222.22C279.136 221.993 279.022 221.713 279.022 221.38C279.022 221.047 279.136 220.767 279.362 220.54C279.589 220.3 279.869 220.18 280.202 220.18C280.536 220.18 280.816 220.3 281.042 220.54C281.282 220.767 281.402 221.047 281.402 221.38C281.402 221.713 281.282 221.993 281.042 222.22C280.816 222.447 280.536 222.56 280.202 222.56ZM288.793 230.42V227.48H290.613V230.42H288.793ZM283.173 230.42V227.48H284.993V230.42H283.173ZM286.833 225.18V223.6H286.953V225.18H286.833ZM286.833 234.3V232.72H286.953V234.3H286.833ZM283.173 227.5C283.173 226.753 283.333 226.087 283.653 225.5C283.986 224.913 284.426 224.453 284.973 224.12C285.533 223.773 286.166 223.6 286.873 223.6V225.18C286.286 225.18 285.826 225.38 285.493 225.78C285.159 226.18 284.993 226.753 284.993 227.5H283.173ZM290.613 227.5H288.793C288.793 226.753 288.626 226.18 288.293 225.78C287.973 225.38 287.513 225.18 286.913 225.18V223.6C287.619 223.6 288.246 223.773 288.793 224.12C289.353 224.453 289.793 224.913 290.113 225.5C290.446 226.087 290.613 226.753 290.613 227.5ZM283.173 230.4H284.993C284.993 231.133 285.159 231.707 285.493 232.12C285.826 232.52 286.286 232.72 286.873 232.72V234.3C286.166 234.3 285.533 234.133 284.973 233.8C284.426 233.453 283.986 232.987 283.653 232.4C283.333 231.813 283.173 231.147 283.173 230.4ZM290.613 230.4C290.613 231.147 290.446 231.813 290.113 232.4C289.793 232.987 289.353 233.453 288.793 233.8C288.246 234.133 287.619 234.3 286.913 234.3V232.72C287.513 232.72 287.973 232.52 288.293 232.12C288.626 231.707 288.793 231.133 288.793 230.4H290.613ZM292.462 234V223.9H294.282V234H292.462ZM298.082 234V227.12H299.902V234H298.082ZM298.082 227.12C298.082 226.56 297.908 226.107 297.562 225.76C297.215 225.4 296.768 225.22 296.222 225.22L296.682 223.6C297.295 223.6 297.842 223.753 298.322 224.06C298.815 224.367 299.202 224.787 299.482 225.32C299.762 225.853 299.902 226.453 299.902 227.12H298.082ZM293.482 227.16C293.482 226.48 293.622 225.873 293.902 225.34C294.182 224.793 294.562 224.367 295.042 224.06C295.522 223.753 296.068 223.6 296.682 223.6L296.222 225.22C295.648 225.22 295.182 225.4 294.822 225.76C294.462 226.12 294.282 226.587 294.282 227.16H293.482Z" fill="#ED3996"/>
<path d="M165.207 236.5H300.802V237.5H165.207V236.5Z" fill="#ED3996"/>
<path d="M165 142.734L172.82 144.82L178.569 137L176.736 146.65L185.081 147.16L176.465 151.604V161L172.564 152.909L165.525 156.031L169.952 149.246L165 142.734Z" fill="#FFC930"/>
<path d="M189.081 142.734L196.901 144.82L202.65 137L200.818 146.65L209.163 147.16L200.546 151.604V161L196.645 152.909L189.607 156.031L194.033 149.246L189.081 142.734Z" fill="#FFC930"/>
<path d="M213.163 142.734L220.983 144.82L226.731 137L224.899 146.65L233.244 147.16L224.628 151.604V161L220.726 152.909L213.688 156.031L218.115 149.246L213.163 142.734Z" fill="#FFC930"/>
</svg>
