<svg width="480" height="361" viewBox="0 0 480 361" fill="none" xmlns="http://www.w3.org/2000/svg">
<path opacity="0.2" d="M84.5726 26.7935H172.293C175.863 26.7935 178.731 29.6855 178.731 33.2525V100.11C178.731 103.68 175.842 106.548 172.293 106.548H84.5726C81.0056 106.548 78.1136 103.659 78.1136 100.11V33.2525C78.1376 29.6855 81.0056 26.7935 84.5726 26.7935Z" fill="#BE94AA"/>
<path d="M81.3866 23.6074H169.107C172.677 23.6074 175.545 26.4964 175.545 30.0664V96.9244C175.545 100.491 172.656 103.359 169.107 103.359H81.3866C77.8166 103.359 74.9276 100.47 74.9276 96.9244V30.0664C74.9486 26.4964 77.8166 23.6074 81.3866 23.6074Z" fill="#FAC7E1"/>
<path d="M103.332 88.5962H112.596C114.231 88.5962 115.569 89.9342 115.569 91.5692V91.6982C115.569 93.3332 114.231 94.6712 112.596 94.6712H103.332C101.697 94.6712 100.359 93.3332 100.359 91.6982V91.5692C100.359 89.9132 101.697 88.5962 103.332 88.5962Z" fill="#FAC7E1"/>
<path d="M123.558 88.5962H141.51C143.145 88.5962 144.483 89.9342 144.483 91.5692V91.6982C144.483 93.3332 143.145 94.6712 141.51 94.6712H123.558C121.923 94.6712 120.585 93.3332 120.585 91.6982V91.5692C120.585 89.9132 121.902 88.5962 123.558 88.5962Z" fill="#FAC7E1"/>
<path d="M81.3866 23.6074H93.4106V103.359H81.3866C77.8166 103.359 74.9276 100.47 74.9276 96.9244V30.0664C74.9276 26.4964 77.8166 23.6074 81.3866 23.6074Z" fill="#FAC7E1"/>
<path opacity="0.2" d="M81.3866 23.6074H93.4106V103.359H81.3866C77.8166 103.359 74.9276 100.47 74.9276 96.9244V30.0664C74.9276 26.4964 77.8166 23.6074 81.3866 23.6074Z" fill="#F3EBE9"/>
<path d="M175.545 41.8774H93.6237" stroke="#F3EBE9" stroke-width="4" stroke-linejoin="round"/>
<path d="M175.545 56.2173H93.6237" stroke="#F3EBE9" stroke-width="4" stroke-linejoin="round"/>
<path d="M175.545 70.7705H93.6237" stroke="#F3EBE9" stroke-width="4" stroke-linejoin="round"/>
<path d="M175.545 84.4536H93.6237" stroke="#F3EBE9" stroke-width="4" stroke-linejoin="round"/>
<path d="M93.4106 23.6074V103.359" stroke="#F3EBE9" stroke-width="4" stroke-linejoin="round"/>
<path d="M82.1096 34.9116H86.2317" stroke="#F3EBE9" stroke-width="4" stroke-linecap="round" stroke-linejoin="round"/>
<path d="M82.1096 49.0386H86.2317" stroke="#F3EBE9" stroke-width="4" stroke-linecap="round" stroke-linejoin="round"/>
<path d="M82.1096 63.1655H86.2317" stroke="#F3EBE9" stroke-width="4" stroke-linecap="round" stroke-linejoin="round"/>
<path d="M82.1096 77.5054H86.2317" stroke="#F3EBE9" stroke-width="4" stroke-linecap="round" stroke-linejoin="round"/>
<path d="M82.1096 91.6323H86.2317" stroke="#F3EBE9" stroke-width="4" stroke-linecap="round" stroke-linejoin="round"/>
<path d="M105.09 54.5674C105.257 54.5674 105.397 54.6241 105.51 54.7374C105.63 54.8441 105.69 54.9841 105.69 55.1574C105.69 55.3241 105.63 55.4674 105.51 55.5874C105.397 55.7008 105.257 55.7574 105.09 55.7574C104.923 55.7574 104.783 55.7008 104.67 55.5874C104.557 55.4674 104.5 55.3241 104.5 55.1574C104.5 54.9841 104.557 54.8441 104.67 54.7374C104.783 54.6241 104.923 54.5674 105.09 54.5674ZM104.72 56.7174H105.46L105.55 61.6574H104.64L104.72 56.7174ZM107.448 58.4974V57.6874H109.468V58.4974H107.448ZM106.788 54.5574H107.698V61.6074H106.788V54.5574ZM107.398 54.5574H109.968V55.3474H107.398V54.5574ZM114.342 56.5574V61.6074H113.432V56.5574H114.342ZM111.532 56.5574V59.9974H110.622V56.5574H111.532ZM111.532 59.9974C111.532 60.2774 111.619 60.5074 111.792 60.6874C111.972 60.8608 112.199 60.9474 112.472 60.9474L112.242 61.7574C111.929 61.7574 111.649 61.6808 111.402 61.5274C111.162 61.3741 110.972 61.1641 110.832 60.8974C110.692 60.6308 110.622 60.3308 110.622 59.9974H111.532ZM113.832 59.9674C113.832 60.3074 113.762 60.6141 113.622 60.8874C113.489 61.1541 113.299 61.3674 113.052 61.5274C112.812 61.6808 112.542 61.7574 112.242 61.7574L112.472 60.9474C112.752 60.9474 112.982 60.8574 113.162 60.6774C113.342 60.4974 113.432 60.2608 113.432 59.9674H113.832ZM115.548 59.3574V58.7074H118.958V59.3574H115.548ZM117.098 61.7674V60.9774H117.148V61.7674H117.098ZM115.258 59.8174V58.3474H116.168V59.8174H115.258ZM118.048 58.7074V58.1874H118.958V58.7074H118.048ZM118.958 58.1874H118.048C118.048 57.8941 117.958 57.6541 117.778 57.4674C117.605 57.2808 117.378 57.1874 117.098 57.1874V56.4074C117.458 56.4074 117.775 56.4841 118.048 56.6374C118.328 56.7908 118.548 57.0041 118.708 57.2774C118.875 57.5441 118.958 57.8474 118.958 58.1874ZM118.088 60.1074L118.938 60.2774C118.898 60.5641 118.795 60.8208 118.628 61.0474C118.462 61.2741 118.252 61.4508 117.998 61.5774C117.745 61.7041 117.462 61.7674 117.148 61.7674V60.9774C117.388 60.9774 117.595 60.9074 117.768 60.7674C117.948 60.6208 118.055 60.4008 118.088 60.1074ZM115.258 58.3574C115.258 57.9774 115.338 57.6441 115.498 57.3574C115.665 57.0641 115.885 56.8341 116.158 56.6674C116.438 56.4941 116.755 56.4074 117.108 56.4074V57.1874C116.815 57.1874 116.585 57.2908 116.418 57.4974C116.252 57.6974 116.168 57.9841 116.168 58.3574H115.258ZM115.258 59.8174H116.168C116.168 60.1841 116.252 60.4708 116.418 60.6774C116.585 60.8774 116.815 60.9774 117.108 60.9774V61.7674C116.755 61.7674 116.438 61.6841 116.158 61.5174C115.885 61.3441 115.665 61.1108 115.498 60.8174C115.338 60.5241 115.258 60.1908 115.258 59.8174ZM124.457 61.7874V56.5574H125.367V61.7874H124.457ZM121.647 59.8674V58.1674H122.557V59.8674H121.647ZM122.557 58.1674H121.647C121.647 57.8341 121.717 57.5341 121.857 57.2674C121.997 57.0008 122.187 56.7908 122.427 56.6374C122.674 56.4841 122.954 56.4074 123.267 56.4074L123.497 57.2174C123.224 57.2174 122.997 57.3074 122.817 57.4874C122.644 57.6608 122.557 57.8874 122.557 58.1674ZM124.857 58.1874H124.457C124.457 57.9008 124.367 57.6674 124.187 57.4874C124.007 57.3074 123.777 57.2174 123.497 57.2174L123.267 56.4074C123.567 56.4074 123.837 56.4841 124.077 56.6374C124.324 56.7908 124.514 57.0041 124.647 57.2774C124.787 57.5441 124.857 57.8474 124.857 58.1874ZM122.557 59.8674C122.557 60.1474 122.644 60.3774 122.817 60.5574C122.997 60.7308 123.224 60.8174 123.497 60.8174L123.267 61.6274C122.954 61.6274 122.674 61.5508 122.427 61.3974C122.187 61.2441 121.997 61.0341 121.857 60.7674C121.717 60.5008 121.647 60.2008 121.647 59.8674H122.557ZM124.857 59.8374C124.857 60.1774 124.787 60.4841 124.647 60.7574C124.514 61.0241 124.324 61.2374 124.077 61.3974C123.837 61.5508 123.567 61.6274 123.267 61.6274L123.497 60.8174C123.777 60.8174 124.007 60.7274 124.187 60.5474C124.367 60.3674 124.457 60.1308 124.457 59.8374H124.857ZM125.367 61.7574C125.367 62.0974 125.287 62.4008 125.127 62.6674C124.967 62.9408 124.747 63.1541 124.467 63.3074C124.187 63.4674 123.871 63.5474 123.517 63.5474V62.7574C123.791 62.7574 124.014 62.6608 124.187 62.4674C124.367 62.2808 124.457 62.0441 124.457 61.7574H125.367ZM122.567 61.8874C122.601 62.1808 122.707 62.3974 122.887 62.5374C123.067 62.6841 123.277 62.7574 123.517 62.7574V63.5474C123.211 63.5474 122.927 63.4841 122.667 63.3574C122.407 63.2308 122.194 63.0541 122.027 62.8274C121.867 62.6008 121.767 62.3441 121.727 62.0574L122.567 61.8874ZM126.534 61.6074V56.5574H127.444V61.6074H126.534ZM127.034 58.2774C127.034 57.9308 127.094 57.6174 127.214 57.3374C127.34 57.0574 127.51 56.8408 127.724 56.6874C127.937 56.5274 128.177 56.4474 128.444 56.4474L128.244 57.2974C128.01 57.2974 127.817 57.3908 127.664 57.5774C127.517 57.7574 127.444 57.9908 127.444 58.2774H127.034ZM128.884 57.5674C128.784 57.4808 128.677 57.4141 128.564 57.3674C128.457 57.3208 128.35 57.2974 128.244 57.2974L128.444 56.4474C128.597 56.4474 128.74 56.4741 128.874 56.5274C129.007 56.5741 129.14 56.6608 129.274 56.7874L128.884 57.5674ZM132.495 61.6074V58.1674H133.405V61.6074H132.495ZM131.275 61.7574L131.345 61.0074C131.585 61.0074 131.789 60.9474 131.955 60.8274C132.129 60.7074 132.262 60.5308 132.355 60.2974C132.449 60.0641 132.495 59.7874 132.495 59.4674L132.945 59.4474C132.945 59.9008 132.872 60.3008 132.725 60.6474C132.579 60.9941 132.379 61.2674 132.125 61.4674C131.879 61.6608 131.595 61.7574 131.275 61.7574ZM131.275 61.7574C130.975 61.7574 130.702 61.6874 130.455 61.5474C130.209 61.4074 130.012 61.2174 129.865 60.9774C129.719 60.7308 129.645 60.4574 129.645 60.1574L130.505 60.1274C130.505 60.3808 130.589 60.5908 130.755 60.7574C130.929 60.9241 131.125 61.0074 131.345 61.0074L131.275 61.7574ZM129.645 60.1574C129.645 59.8441 129.722 59.5708 129.875 59.3374C130.035 59.0974 130.249 58.9074 130.515 58.7674C130.782 58.6274 131.085 58.5574 131.425 58.5574L131.475 59.2574C131.195 59.2574 130.962 59.3408 130.775 59.5074C130.595 59.6674 130.505 59.8741 130.505 60.1274L129.645 60.1574ZM131.475 59.2574L131.425 58.5574H132.965V59.2574H131.475ZM132.495 59.4674V58.1774H132.945V59.4474L132.495 59.4674ZM133.405 58.1874H132.495C132.495 57.8941 132.405 57.6541 132.225 57.4674C132.052 57.2808 131.825 57.1874 131.545 57.1874V56.4074C131.905 56.4074 132.222 56.4841 132.495 56.6374C132.775 56.7908 132.995 57.0041 133.155 57.2774C133.322 57.5441 133.405 57.8474 133.405 58.1874ZM130.605 58.0674L129.765 57.8974C129.805 57.5974 129.905 57.3374 130.065 57.1174C130.232 56.8974 130.442 56.7241 130.695 56.5974C130.955 56.4708 131.242 56.4074 131.555 56.4074V57.1874C131.309 57.1874 131.095 57.2608 130.915 57.4074C130.742 57.5474 130.639 57.7674 130.605 58.0674ZM134.424 61.6074V56.5574H135.334V61.6074H134.424ZM137.234 61.6074V58.1674H138.144V61.6074H137.234ZM137.234 58.1674C137.234 57.8874 137.148 57.6608 136.974 57.4874C136.801 57.3074 136.578 57.2174 136.304 57.2174L136.534 56.4074C136.841 56.4074 137.114 56.4841 137.354 56.6374C137.601 56.7908 137.794 57.0008 137.934 57.2674C138.074 57.5341 138.144 57.8341 138.144 58.1674H137.234ZM134.934 58.1874C134.934 57.8474 135.004 57.5441 135.144 57.2774C135.284 57.0041 135.474 56.7908 135.714 56.6374C135.954 56.4841 136.228 56.4074 136.534 56.4074L136.304 57.2174C136.018 57.2174 135.784 57.3074 135.604 57.4874C135.424 57.6674 135.334 57.9008 135.334 58.1874H134.934ZM142.799 56.5674H141.889V54.5574H142.799V56.5674ZM141.889 61.6074V56.5574H142.799V61.6074H141.889ZM139.079 59.9974V58.1674H139.989V59.9974H139.079ZM139.989 58.1674H139.079C139.079 57.8341 139.149 57.5341 139.289 57.2674C139.429 57.0008 139.619 56.7908 139.859 56.6374C140.106 56.4841 140.386 56.4074 140.699 56.4074L140.929 57.2174C140.656 57.2174 140.429 57.3074 140.249 57.4874C140.076 57.6608 139.989 57.8874 139.989 58.1674ZM142.289 58.1874H141.889C141.889 57.9008 141.799 57.6674 141.619 57.4874C141.439 57.3074 141.209 57.2174 140.929 57.2174L140.699 56.4074C140.999 56.4074 141.269 56.4841 141.509 56.6374C141.756 56.7908 141.946 57.0041 142.079 57.2774C142.219 57.5441 142.289 57.8474 142.289 58.1874ZM139.989 59.9974C139.989 60.2774 140.076 60.5074 140.249 60.6874C140.429 60.8608 140.656 60.9474 140.929 60.9474L140.699 61.7574C140.386 61.7574 140.106 61.6808 139.859 61.5274C139.619 61.3741 139.429 61.1641 139.289 60.8974C139.149 60.6308 139.079 60.3308 139.079 59.9974H139.989ZM142.289 59.9674C142.289 60.3074 142.219 60.6141 142.079 60.8874C141.946 61.1541 141.756 61.3674 141.509 61.5274C141.269 61.6808 140.999 61.7574 140.699 61.7574L140.929 60.9474C141.209 60.9474 141.439 60.8574 141.619 60.6774C141.799 60.4974 141.889 60.2608 141.889 59.9674H142.289ZM144.095 61.6074V56.5574H145.005V61.6074H144.095ZM144.545 55.8874C144.378 55.8874 144.238 55.8308 144.125 55.7174C144.011 55.6041 143.955 55.4641 143.955 55.2974C143.955 55.1308 144.011 54.9908 144.125 54.8774C144.238 54.7574 144.378 54.6974 144.545 54.6974C144.711 54.6974 144.851 54.7574 144.965 54.8774C145.085 54.9908 145.145 55.1308 145.145 55.2974C145.145 55.4641 145.085 55.6041 144.965 55.7174C144.851 55.8308 144.711 55.8874 144.545 55.8874ZM148.84 59.8174V58.3474H149.75V59.8174H148.84ZM146.03 59.8174V58.3474H146.94V59.8174H146.03ZM147.86 57.1974V56.4074H147.92V57.1974H147.86ZM147.86 61.7574V60.9674H147.92V61.7574H147.86ZM146.03 58.3574C146.03 57.9841 146.11 57.6508 146.27 57.3574C146.436 57.0641 146.656 56.8341 146.93 56.6674C147.21 56.4941 147.526 56.4074 147.88 56.4074V57.1974C147.586 57.1974 147.356 57.2974 147.19 57.4974C147.023 57.6974 146.94 57.9841 146.94 58.3574H146.03ZM149.75 58.3574H148.84C148.84 57.9841 148.756 57.6974 148.59 57.4974C148.43 57.2974 148.2 57.1974 147.9 57.1974V56.4074C148.253 56.4074 148.566 56.4941 148.84 56.6674C149.12 56.8341 149.34 57.0641 149.5 57.3574C149.666 57.6508 149.75 57.9841 149.75 58.3574ZM146.03 59.8074H146.94C146.94 60.1741 147.023 60.4608 147.19 60.6674C147.356 60.8674 147.586 60.9674 147.88 60.9674V61.7574C147.526 61.7574 147.21 61.6741 146.93 61.5074C146.656 61.3341 146.436 61.1008 146.27 60.8074C146.11 60.5141 146.03 60.1808 146.03 59.8074ZM149.75 59.8074C149.75 60.1808 149.666 60.5141 149.5 60.8074C149.34 61.1008 149.12 61.3341 148.84 61.5074C148.566 61.6741 148.253 61.7574 147.9 61.7574V60.9674C148.2 60.9674 148.43 60.8674 148.59 60.6674C148.756 60.4608 148.84 60.1741 148.84 59.8074H149.75ZM153.133 60.3074C153.133 60.1408 153.073 60.0041 152.953 59.8974C152.833 59.7841 152.676 59.6841 152.483 59.5974C152.296 59.5041 152.096 59.4108 151.883 59.3174C151.676 59.2241 151.476 59.1174 151.283 58.9974C151.096 58.8708 150.943 58.7141 150.823 58.5274C150.703 58.3341 150.643 58.1008 150.643 57.8274C150.643 57.8274 150.669 57.8274 150.723 57.8274C150.783 57.8274 150.856 57.8274 150.943 57.8274C151.036 57.8274 151.126 57.8274 151.213 57.8274C151.299 57.8274 151.373 57.8274 151.433 57.8274C151.493 57.8274 151.523 57.8274 151.523 57.8274C151.523 57.9941 151.583 58.1341 151.703 58.2474C151.823 58.3541 151.976 58.4508 152.163 58.5374C152.356 58.6241 152.559 58.7174 152.773 58.8174C152.986 58.9108 153.186 59.0208 153.373 59.1474C153.559 59.2741 153.713 59.4308 153.833 59.6174C153.959 59.7974 154.023 60.0274 154.023 60.3074C154.023 60.3074 153.993 60.3074 153.933 60.3074C153.873 60.3074 153.796 60.3074 153.703 60.3074C153.616 60.3074 153.529 60.3074 153.443 60.3074C153.356 60.3074 153.283 60.3074 153.223 60.3074C153.163 60.3074 153.133 60.3074 153.133 60.3074ZM152.283 61.7574V60.9674C152.529 60.9674 152.733 60.9074 152.893 60.7874C153.053 60.6608 153.133 60.5008 153.133 60.3074H154.023C154.023 60.5874 153.946 60.8374 153.793 61.0574C153.646 61.2774 153.443 61.4508 153.183 61.5774C152.923 61.6974 152.623 61.7574 152.283 61.7574ZM150.643 57.8274C150.643 57.5541 150.709 57.3108 150.843 57.0974C150.983 56.8774 151.176 56.7074 151.423 56.5874C151.669 56.4608 151.943 56.3974 152.243 56.3974V57.1874C152.036 57.1874 151.863 57.2474 151.723 57.3674C151.589 57.4874 151.523 57.6408 151.523 57.8274H150.643ZM151.333 60.0974C151.366 60.3908 151.473 60.6108 151.653 60.7574C151.833 60.8974 152.043 60.9674 152.283 60.9674V61.7574C151.976 61.7574 151.693 61.6941 151.433 61.5674C151.173 61.4408 150.959 61.2641 150.793 61.0374C150.633 60.8108 150.533 60.5541 150.493 60.2674L151.333 60.0974ZM153.183 58.0574C153.149 57.7574 153.043 57.5374 152.863 57.3974C152.689 57.2574 152.483 57.1874 152.243 57.1874V56.3974C152.556 56.3974 152.839 56.4608 153.093 56.5874C153.346 56.7141 153.556 56.8908 153.723 57.1174C153.889 57.3374 153.993 57.5941 154.033 57.8874L153.183 58.0574ZM157.58 59.8174V58.3474H158.49V59.8174H157.58ZM154.77 59.8174V58.3474H155.68V59.8174H154.77ZM156.6 57.1974V56.4074H156.66V57.1974H156.6ZM156.6 61.7574V60.9674H156.66V61.7574H156.6ZM154.77 58.3574C154.77 57.9841 154.85 57.6508 155.01 57.3574C155.177 57.0641 155.397 56.8341 155.67 56.6674C155.95 56.4941 156.267 56.4074 156.62 56.4074V57.1974C156.327 57.1974 156.097 57.2974 155.93 57.4974C155.763 57.6974 155.68 57.9841 155.68 58.3574H154.77ZM158.49 58.3574H157.58C157.58 57.9841 157.497 57.6974 157.33 57.4974C157.17 57.2974 156.94 57.1974 156.64 57.1974V56.4074C156.993 56.4074 157.307 56.4941 157.58 56.6674C157.86 56.8341 158.08 57.0641 158.24 57.3574C158.407 57.6508 158.49 57.9841 158.49 58.3574ZM154.77 59.8074H155.68C155.68 60.1741 155.763 60.4608 155.93 60.6674C156.097 60.8674 156.327 60.9674 156.62 60.9674V61.7574C156.267 61.7574 155.95 61.6741 155.67 61.5074C155.397 61.3341 155.177 61.1008 155.01 60.8074C154.85 60.5141 154.77 60.1808 154.77 59.8074ZM158.49 59.8074C158.49 60.1808 158.407 60.5141 158.24 60.8074C158.08 61.1008 157.86 61.3341 157.58 61.5074C157.307 61.6741 156.993 61.7574 156.64 61.7574V60.9674C156.94 60.9674 157.17 60.8674 157.33 60.6674C157.497 60.4608 157.58 60.1741 157.58 59.8074H158.49ZM159.564 59.4974L159.484 54.5574H160.394L160.304 59.4974H159.564ZM159.934 61.6474C159.767 61.6474 159.627 61.5908 159.514 61.4774C159.4 61.3641 159.344 61.2241 159.344 61.0574C159.344 60.8908 159.4 60.7508 159.514 60.6374C159.627 60.5174 159.767 60.4574 159.934 60.4574C160.1 60.4574 160.24 60.5174 160.354 60.6374C160.474 60.7508 160.534 60.8908 160.534 61.0574C160.534 61.2241 160.474 61.3641 160.354 61.4774C160.24 61.5908 160.1 61.6474 159.934 61.6474Z" fill="#121212"/>
<path d="M478.414 132.607H377.928V250.18H478.414V132.607Z" fill="#F3EBE9"/>
<path d="M397.189 154.38H417.956C419.696 154.38 421.137 155.821 421.137 157.561C421.137 159.302 419.696 160.743 417.956 160.743H397.189C395.444 160.743 394.003 159.302 394.003 157.561C394.003 155.821 395.444 154.38 397.189 154.38Z" fill="#FAC7E1"/>
<path d="M430.682 154.38H438.051C439.796 154.38 441.237 155.821 441.237 157.561C441.237 159.302 439.796 160.743 438.051 160.743H430.682C428.942 160.743 427.5 159.302 427.5 157.561C427.5 155.821 428.942 154.38 430.682 154.38Z" fill="#ED3996"/>
<path d="M450.447 154.38H457.816C459.556 154.38 460.997 155.821 460.997 157.561C460.997 159.302 459.556 160.743 457.816 160.743H450.447C448.706 160.743 447.265 159.302 447.265 157.561C447.265 155.821 448.706 154.38 450.447 154.38Z" fill="#FAC7E1"/>
<path d="M397.189 205.126H417.956C419.696 205.126 421.137 206.568 421.137 208.308C421.137 210.053 419.696 211.49 417.956 211.49H397.189C395.444 211.49 394.003 210.053 394.003 208.308C394.003 206.568 395.444 205.126 397.189 205.126Z" fill="#FAC7E1"/>
<path d="M397.189 188.212H429.345C431.085 188.212 432.526 189.654 432.526 191.394C432.526 193.134 431.085 194.576 429.345 194.576H397.189C395.444 194.576 394.003 193.134 394.003 191.394C394.003 189.654 395.444 188.212 397.189 188.212Z" fill="#ED3996"/>
<path d="M417.285 171.294H438.051C439.796 171.294 441.237 172.736 441.237 174.481C441.237 176.221 439.796 177.662 438.051 177.662H417.285C415.544 177.662 414.103 176.221 414.103 174.481C414.103 172.736 415.544 171.294 417.285 171.294Z" fill="white"/>
<path d="M397.189 171.294H404.559C406.299 171.294 407.74 172.736 407.74 174.481C407.74 176.221 406.299 177.662 404.559 177.662H397.189C395.444 177.662 394.003 176.221 394.003 174.481C394.003 172.736 395.444 171.294 397.189 171.294Z" fill="#D51477"/>
<path d="M450.447 171.294H457.816C459.556 171.294 460.997 172.736 460.997 174.481C460.997 176.221 459.556 177.662 457.816 177.662H450.447C448.706 177.662 447.265 176.221 447.265 174.481C447.265 172.736 448.706 171.294 450.447 171.294Z" fill="white"/>
<path d="M417.285 226.607H457.816C459.556 226.607 460.997 228.044 460.997 229.789C460.997 231.529 459.556 232.971 457.816 232.971H417.285C415.544 232.971 414.103 231.529 414.103 229.789C414.103 228.044 415.544 226.607 417.285 226.607Z" fill="white"/>
<path d="M397.189 226.607H404.559C406.299 226.607 407.74 228.044 407.74 229.789C407.74 231.529 406.299 232.971 404.559 232.971H397.189C395.444 232.971 394.003 231.529 394.003 229.789C394.003 228.044 395.444 226.607 397.189 226.607Z" fill="#ED3996"/>
<rect x="394" y="184.607" width="69" height="37" rx="8" fill="#FAC7E1"/>
<rect x="402" y="200.607" width="40" height="3" rx="1.5" fill="#ED3996"/>
<rect x="402" y="215.607" width="35" height="3" rx="1.5" fill="#ED3996"/>
<path d="M142.652 179.607H17.3443C8.85919 179.607 2 186.724 2 195.528V317.683C2 326.49 8.85919 333.607 17.3443 333.607H142.652C151.141 333.607 158 326.49 158 317.683V195.528C158 186.752 151.11 179.607 142.652 179.607Z" fill="#D5D5D5"/>
<path d="M18.6554 206.142C22.1382 206.142 24.9575 203.323 24.9575 199.84C24.9575 196.357 22.1382 193.535 18.6554 193.535C15.1761 193.535 12.35 196.357 12.35 199.84C12.35 203.323 15.1761 206.142 18.6554 206.142Z" fill="white"/>
<path d="M36.9625 206.142C40.4452 206.142 43.2679 203.323 43.2679 199.84C43.2679 196.357 40.4452 193.535 36.9625 193.535C33.4832 193.535 30.6571 196.357 30.6571 199.84C30.6571 203.323 33.4832 206.142 36.9625 206.142Z" fill="white"/>
<path d="M55.2967 206.142C58.7794 206.142 61.6021 203.323 61.6021 199.84C61.6021 196.357 58.7794 193.535 55.2967 193.535C51.8174 193.535 48.9946 196.357 48.9946 199.84C48.9946 203.323 51.8174 206.142 55.2967 206.142Z" fill="white"/>
<path d="M35.7204 290.607H40.8649C43.1393 290.607 44.9975 292.466 44.9975 294.74C44.9975 297.018 43.1393 298.876 40.8649 298.876H35.7204C33.4426 298.876 31.5878 297.018 31.5878 294.74C31.5878 292.466 33.4426 290.607 35.7204 290.607Z" fill="#BE94AA"/>
<path d="M54.6401 290.607H85.4971C87.7749 290.607 89.6296 292.466 89.6296 294.74C89.6296 297.018 87.7749 298.876 85.4971 298.876H54.6401C52.3622 298.876 50.5075 297.018 50.5075 294.74C50.5075 292.466 52.3622 290.607 54.6401 290.607Z" fill="white"/>
<path d="M99.2723 290.607H125.719C127.997 290.607 129.855 292.466 129.855 294.74C129.855 297.018 127.997 298.876 125.719 298.876H99.2723C96.9944 298.876 95.1397 297.018 95.1397 294.74C95.1397 292.466 96.9944 290.607 99.2723 290.607Z" fill="#BE94AA"/>
<path d="M35.7204 307.688H52.2506C54.5284 307.688 56.3831 309.547 56.3831 311.821C56.3831 314.099 54.5284 315.954 52.2506 315.954H35.7204C33.4426 315.954 31.5878 314.099 31.5878 311.821C31.5878 309.547 33.4426 307.688 35.7204 307.688Z" fill="white"/>
<path d="M66.0257 307.688H69.7014C71.9792 307.688 73.8339 309.547 73.8339 311.821C73.8339 314.099 71.9792 315.954 69.7014 315.954H66.0257C63.7479 315.954 61.8932 314.099 61.8932 311.821C61.8932 309.547 63.7479 307.688 66.0257 307.688Z" fill="#BE94AA"/>
<path d="M83.4766 307.688H105.334C107.612 307.688 109.467 309.547 109.467 311.821C109.467 314.099 107.612 315.954 105.334 315.954H83.4766C81.1987 315.954 79.344 314.099 79.344 311.821C79.344 309.547 81.1987 307.688 83.4766 307.688Z" fill="#ED3996"/>
<path d="M342.528 70.6074H164.123C152.043 70.6074 142.277 80.373 142.277 92.4535V260.07C142.277 272.155 152.043 281.921 164.123 281.921H342.528C354.613 281.921 364.379 272.155 364.379 260.07V92.4535C364.379 80.4116 354.57 70.6074 342.528 70.6074Z" fill="white"/>
<path d="M164.523 105.562C168.473 105.562 171.67 102.364 171.67 98.4138C171.67 94.4637 168.473 91.2622 164.523 91.2622C160.576 91.2622 157.371 94.4637 157.371 98.4138C157.371 102.364 160.576 105.562 164.523 105.562Z" fill="#D5D5D5"/>
<path d="M184.381 105.562C188.33 105.562 191.531 102.364 191.531 98.4138C191.531 94.4637 188.33 91.2622 184.381 91.2622C180.436 91.2622 177.231 94.4637 177.231 98.4138C177.231 102.364 180.436 105.562 184.381 105.562Z" fill="#D5D5D5"/>
<path d="M205.034 105.562C208.984 105.562 212.185 102.364 212.185 98.4138C212.185 94.4637 208.984 91.2622 205.034 91.2622C201.088 91.2622 197.886 94.4637 197.886 98.4138C197.886 102.364 201.088 105.562 205.034 105.562Z" fill="#D5D5D5"/>
<g filter="url(#filter0_d_168_473)">
<rect x="164.928" y="200.607" width="176" height="43" rx="21.5" fill="#ED3996" shape-rendering="crispEdges"/>
<path d="M187.515 216.587V215.007H189.555V216.587H187.515ZM187.515 223.687V222.107H189.555V223.687H187.515ZM191.675 219.947V218.747H193.495V219.947H191.675ZM193.495 218.747H191.675C191.675 218.054 191.481 217.521 191.095 217.147C190.721 216.774 190.201 216.587 189.535 216.587V215.007C190.321 215.007 191.008 215.167 191.595 215.487C192.195 215.794 192.661 216.234 192.995 216.807C193.328 217.367 193.495 218.014 193.495 218.747ZM193.495 219.927C193.495 220.674 193.328 221.327 192.995 221.887C192.661 222.447 192.195 222.887 191.595 223.207C191.008 223.527 190.321 223.687 189.535 223.687V222.107C190.201 222.107 190.721 221.914 191.095 221.527C191.481 221.141 191.675 220.607 191.675 219.927H193.495ZM186.335 229.107V215.007H188.155V229.107H186.335ZM195.5 229.107V219.007H197.32V229.107H195.5ZM196.4 217.667C196.066 217.667 195.786 217.554 195.56 217.327C195.333 217.101 195.22 216.821 195.22 216.487C195.22 216.154 195.333 215.874 195.56 215.647C195.786 215.407 196.066 215.287 196.4 215.287C196.733 215.287 197.013 215.407 197.24 215.647C197.48 215.874 197.6 216.154 197.6 216.487C197.6 216.821 197.48 217.101 197.24 217.327C197.013 217.554 196.733 217.667 196.4 217.667ZM205.008 229.107L201.428 223.527L203.168 222.947L206.908 229.107H205.008ZM201.488 225.507L200.088 224.567L204.468 219.007H206.668L201.488 225.507ZM199.928 229.107V214.707H201.748V229.107H199.928ZM208.542 229.107V219.007H210.362V229.107H208.542ZM209.542 222.447C209.542 221.754 209.662 221.127 209.902 220.567C210.155 220.007 210.495 219.574 210.922 219.267C211.348 218.947 211.828 218.787 212.362 218.787L211.962 220.487C211.495 220.487 211.108 220.674 210.802 221.047C210.508 221.407 210.362 221.874 210.362 222.447H209.542ZM213.242 221.027C213.042 220.854 212.828 220.721 212.602 220.627C212.388 220.534 212.175 220.487 211.962 220.487L212.362 218.787C212.668 218.787 212.955 218.841 213.222 218.947C213.488 219.041 213.755 219.214 214.022 219.467L213.242 221.027ZM215.145 224.607V223.307H221.965V224.607H215.145ZM218.245 229.427V227.847H218.345V229.427H218.245ZM214.565 225.527V222.587H216.385V225.527H214.565ZM220.145 223.307V222.267H221.965V223.307H220.145ZM221.965 222.267H220.145C220.145 221.681 219.965 221.201 219.605 220.827C219.258 220.454 218.805 220.267 218.245 220.267V218.707C218.965 218.707 219.598 218.861 220.145 219.167C220.705 219.474 221.145 219.901 221.465 220.447C221.798 220.981 221.965 221.587 221.965 222.267ZM220.225 226.107L221.925 226.447C221.845 227.021 221.638 227.534 221.305 227.987C220.972 228.441 220.552 228.794 220.045 229.047C219.538 229.301 218.972 229.427 218.345 229.427V227.847C218.825 227.847 219.238 227.707 219.585 227.427C219.945 227.134 220.158 226.694 220.225 226.107ZM214.565 222.607C214.565 221.847 214.725 221.181 215.045 220.607C215.378 220.021 215.818 219.561 216.365 219.227C216.925 218.881 217.558 218.707 218.265 218.707V220.267C217.678 220.267 217.218 220.474 216.885 220.887C216.552 221.287 216.385 221.861 216.385 222.607H214.565ZM214.565 225.527H216.385C216.385 226.261 216.552 226.834 216.885 227.247C217.218 227.647 217.678 227.847 218.265 227.847V229.427C217.558 229.427 216.925 229.261 216.365 228.927C215.818 228.581 215.378 228.114 215.045 227.527C214.725 226.941 214.565 226.274 214.565 225.527ZM228.703 229.107L222.883 219.007H224.823L230.643 229.107H228.703ZM222.883 229.107L225.803 224.047H227.723L224.823 229.107H222.883ZM225.803 224.047L228.703 219.007H230.643L227.723 224.047H225.803ZM235.417 216.587V215.007H243.717V216.587H235.417ZM238.657 229.107V215.007H240.477V229.107H238.657ZM244.421 229.107V219.007H246.241V229.107H244.421ZM245.421 222.447C245.421 221.754 245.541 221.127 245.781 220.567C246.034 220.007 246.374 219.574 246.801 219.267C247.227 218.947 247.707 218.787 248.241 218.787L247.841 220.487C247.374 220.487 246.987 220.674 246.681 221.047C246.387 221.407 246.241 221.874 246.241 222.447H245.421ZM249.121 221.027C248.921 220.854 248.707 220.721 248.481 220.627C248.267 220.534 248.054 220.487 247.841 220.487L248.241 218.787C248.547 218.787 248.834 218.841 249.101 218.947C249.367 219.041 249.634 219.214 249.901 219.467L249.121 221.027ZM256.344 229.107V222.227H258.164V229.107H256.344ZM253.904 229.407L254.044 227.907C254.524 227.907 254.931 227.787 255.264 227.547C255.611 227.307 255.877 226.954 256.064 226.487C256.251 226.021 256.344 225.467 256.344 224.827L257.244 224.787C257.244 225.694 257.097 226.494 256.804 227.187C256.511 227.881 256.111 228.427 255.604 228.827C255.111 229.214 254.544 229.407 253.904 229.407ZM253.904 229.407C253.304 229.407 252.757 229.267 252.264 228.987C251.771 228.707 251.377 228.327 251.084 227.847C250.791 227.354 250.644 226.807 250.644 226.207L252.364 226.147C252.364 226.654 252.531 227.074 252.864 227.407C253.211 227.741 253.604 227.907 254.044 227.907L253.904 229.407ZM250.644 226.207C250.644 225.581 250.797 225.034 251.104 224.567C251.424 224.087 251.851 223.707 252.384 223.427C252.917 223.147 253.524 223.007 254.204 223.007L254.304 224.407C253.744 224.407 253.277 224.574 252.904 224.907C252.544 225.227 252.364 225.641 252.364 226.147L250.644 226.207ZM254.304 224.407L254.204 223.007H257.284V224.407H254.304ZM256.344 224.827V222.247H257.244V224.787L256.344 224.827ZM258.164 222.267H256.344C256.344 221.681 256.164 221.201 255.804 220.827C255.457 220.454 255.004 220.267 254.444 220.267V218.707C255.164 218.707 255.797 218.861 256.344 219.167C256.904 219.474 257.344 219.901 257.664 220.447C257.997 220.981 258.164 221.587 258.164 222.267ZM252.564 222.027L250.884 221.687C250.964 221.087 251.164 220.567 251.484 220.127C251.817 219.687 252.237 219.341 252.744 219.087C253.264 218.834 253.837 218.707 254.464 218.707V220.267C253.971 220.267 253.544 220.414 253.184 220.707C252.837 220.987 252.631 221.427 252.564 222.027ZM260.202 229.107V219.007H262.022V229.107H260.202ZM265.822 229.107V222.227H267.642V229.107H265.822ZM265.822 222.227C265.822 221.667 265.649 221.214 265.302 220.867C264.955 220.507 264.509 220.327 263.962 220.327L264.422 218.707C265.035 218.707 265.582 218.861 266.062 219.167C266.555 219.474 266.942 219.894 267.222 220.427C267.502 220.961 267.642 221.561 267.642 222.227H265.822ZM261.222 222.267C261.222 221.587 261.362 220.981 261.642 220.447C261.922 219.901 262.302 219.474 262.782 219.167C263.262 218.861 263.809 218.707 264.422 218.707L263.962 220.327C263.389 220.327 262.922 220.507 262.562 220.867C262.202 221.227 262.022 221.694 262.022 222.267H261.222ZM274.591 226.507C274.591 226.174 274.471 225.901 274.231 225.687C273.991 225.461 273.678 225.261 273.291 225.087C272.918 224.901 272.518 224.714 272.091 224.527C271.678 224.341 271.278 224.127 270.891 223.887C270.518 223.634 270.211 223.321 269.971 222.947C269.731 222.561 269.611 222.094 269.611 221.547C269.611 221.547 269.665 221.547 269.771 221.547C269.891 221.547 270.038 221.547 270.211 221.547C270.398 221.547 270.578 221.547 270.751 221.547C270.925 221.547 271.071 221.547 271.191 221.547C271.311 221.547 271.371 221.547 271.371 221.547C271.371 221.881 271.491 222.161 271.731 222.387C271.971 222.601 272.278 222.794 272.651 222.967C273.038 223.141 273.445 223.327 273.871 223.527C274.298 223.714 274.698 223.934 275.071 224.187C275.445 224.441 275.751 224.754 275.991 225.127C276.245 225.487 276.371 225.947 276.371 226.507C276.371 226.507 276.311 226.507 276.191 226.507C276.071 226.507 275.918 226.507 275.731 226.507C275.558 226.507 275.385 226.507 275.211 226.507C275.038 226.507 274.891 226.507 274.771 226.507C274.651 226.507 274.591 226.507 274.591 226.507ZM272.891 229.407V227.827C273.385 227.827 273.791 227.707 274.111 227.467C274.431 227.214 274.591 226.894 274.591 226.507H276.371C276.371 227.067 276.218 227.567 275.911 228.007C275.618 228.447 275.211 228.794 274.691 229.047C274.171 229.287 273.571 229.407 272.891 229.407ZM269.611 221.547C269.611 221.001 269.745 220.514 270.011 220.087C270.291 219.647 270.678 219.307 271.171 219.067C271.665 218.814 272.211 218.687 272.811 218.687V220.267C272.398 220.267 272.051 220.387 271.771 220.627C271.505 220.867 271.371 221.174 271.371 221.547H269.611ZM270.991 226.087C271.058 226.674 271.271 227.114 271.631 227.407C271.991 227.687 272.411 227.827 272.891 227.827V229.407C272.278 229.407 271.711 229.281 271.191 229.027C270.671 228.774 270.245 228.421 269.911 227.967C269.591 227.514 269.391 227.001 269.311 226.427L270.991 226.087ZM274.691 222.007C274.625 221.407 274.411 220.967 274.051 220.687C273.705 220.407 273.291 220.267 272.811 220.267V218.687C273.438 218.687 274.005 218.814 274.511 219.067C275.018 219.321 275.438 219.674 275.771 220.127C276.105 220.567 276.311 221.081 276.391 221.667L274.691 222.007ZM278.429 229.107V214.707H280.249V229.107H278.429ZM288.2 229.107V222.227H290.02V229.107H288.2ZM285.76 229.407L285.9 227.907C286.38 227.907 286.786 227.787 287.12 227.547C287.466 227.307 287.733 226.954 287.92 226.487C288.106 226.021 288.2 225.467 288.2 224.827L289.1 224.787C289.1 225.694 288.953 226.494 288.66 227.187C288.366 227.881 287.966 228.427 287.46 228.827C286.966 229.214 286.4 229.407 285.76 229.407ZM285.76 229.407C285.16 229.407 284.613 229.267 284.12 228.987C283.626 228.707 283.233 228.327 282.94 227.847C282.646 227.354 282.5 226.807 282.5 226.207L284.22 226.147C284.22 226.654 284.386 227.074 284.72 227.407C285.066 227.741 285.46 227.907 285.9 227.907L285.76 229.407ZM282.5 226.207C282.5 225.581 282.653 225.034 282.96 224.567C283.28 224.087 283.706 223.707 284.24 223.427C284.773 223.147 285.38 223.007 286.06 223.007L286.16 224.407C285.6 224.407 285.133 224.574 284.76 224.907C284.4 225.227 284.22 225.641 284.22 226.147L282.5 226.207ZM286.16 224.407L286.06 223.007H289.14V224.407H286.16ZM288.2 224.827V222.247H289.1V224.787L288.2 224.827ZM290.02 222.267H288.2C288.2 221.681 288.02 221.201 287.66 220.827C287.313 220.454 286.86 220.267 286.3 220.267V218.707C287.02 218.707 287.653 218.861 288.2 219.167C288.76 219.474 289.2 219.901 289.52 220.447C289.853 220.981 290.02 221.587 290.02 222.267ZM284.42 222.027L282.74 221.687C282.82 221.087 283.02 220.567 283.34 220.127C283.673 219.687 284.093 219.341 284.6 219.087C285.12 218.834 285.693 218.707 286.32 218.707V220.267C285.826 220.267 285.4 220.414 285.04 220.707C284.693 220.987 284.486 221.427 284.42 222.027ZM292.717 226.047V214.987L294.537 215.007V226.047H292.717ZM291.557 220.507V219.007H297.057V220.507H291.557ZM292.717 226.027H294.537C294.537 226.414 294.591 226.741 294.697 227.007C294.804 227.274 294.957 227.481 295.157 227.627C295.357 227.761 295.597 227.827 295.877 227.827L295.717 229.407C294.784 229.407 294.051 229.114 293.517 228.527C292.984 227.927 292.717 227.094 292.717 226.027ZM296.817 227.487L297.537 228.787C297.271 228.987 296.977 229.141 296.657 229.247C296.351 229.354 296.037 229.407 295.717 229.407L295.877 227.827C296.051 227.827 296.211 227.801 296.357 227.747C296.517 227.681 296.671 227.594 296.817 227.487ZM299.23 229.107V219.007H301.05V229.107H299.23ZM300.13 217.667C299.797 217.667 299.517 217.554 299.29 217.327C299.063 217.101 298.95 216.821 298.95 216.487C298.95 216.154 299.063 215.874 299.29 215.647C299.517 215.407 299.797 215.287 300.13 215.287C300.463 215.287 300.743 215.407 300.97 215.647C301.21 215.874 301.33 216.154 301.33 216.487C301.33 216.821 301.21 217.101 300.97 217.327C300.743 217.554 300.463 217.667 300.13 217.667ZM308.72 225.527V222.587H310.54V225.527H308.72ZM303.1 225.527V222.587H304.92V225.527H303.1ZM306.76 220.287V218.707H306.88V220.287H306.76ZM306.76 229.407V227.827H306.88V229.407H306.76ZM303.1 222.607C303.1 221.861 303.26 221.194 303.58 220.607C303.914 220.021 304.354 219.561 304.9 219.227C305.46 218.881 306.094 218.707 306.8 218.707V220.287C306.214 220.287 305.754 220.487 305.42 220.887C305.087 221.287 304.92 221.861 304.92 222.607H303.1ZM310.54 222.607H308.72C308.72 221.861 308.554 221.287 308.22 220.887C307.9 220.487 307.44 220.287 306.84 220.287V218.707C307.547 218.707 308.174 218.881 308.72 219.227C309.28 219.561 309.72 220.021 310.04 220.607C310.374 221.194 310.54 221.861 310.54 222.607ZM303.1 225.507H304.92C304.92 226.241 305.087 226.814 305.42 227.227C305.754 227.627 306.214 227.827 306.8 227.827V229.407C306.094 229.407 305.46 229.241 304.9 228.907C304.354 228.561 303.914 228.094 303.58 227.507C303.26 226.921 303.1 226.254 303.1 225.507ZM310.54 225.507C310.54 226.254 310.374 226.921 310.04 227.507C309.72 228.094 309.28 228.561 308.72 228.907C308.174 229.241 307.547 229.407 306.84 229.407V227.827C307.44 227.827 307.9 227.627 308.22 227.227C308.554 226.814 308.72 226.241 308.72 225.507H310.54ZM312.389 229.107V219.007H314.209V229.107H312.389ZM318.009 229.107V222.227H319.829V229.107H318.009ZM318.009 222.227C318.009 221.667 317.836 221.214 317.489 220.867C317.143 220.507 316.696 220.327 316.149 220.327L316.609 218.707C317.223 218.707 317.769 218.861 318.249 219.167C318.743 219.474 319.129 219.894 319.409 220.427C319.689 220.961 319.829 221.561 319.829 222.227H318.009ZM313.409 222.267C313.409 221.587 313.549 220.981 313.829 220.447C314.109 219.901 314.489 219.474 314.969 219.167C315.449 218.861 315.996 218.707 316.609 218.707L316.149 220.327C315.576 220.327 315.109 220.507 314.749 220.867C314.389 221.227 314.209 221.694 314.209 222.267H313.409Z" fill="white"/>
</g>
<path d="M170.76 169.759H183.528V172.039H170.76V169.759ZM175.32 163.159H178.344V166.759H175.32V163.159ZM166.56 182.743C169.368 182.407 173.616 181.759 177.552 181.135L177.744 183.823C174.072 184.447 170.112 185.071 167.232 185.527L166.56 182.743ZM177.528 175.159C179.088 179.527 182.496 182.263 188.28 183.199C187.656 183.823 186.864 185.047 186.456 185.815C180.168 184.519 176.832 181.279 174.84 175.783L177.528 175.159ZM184.944 175.567L187.2 177.319C185.28 178.807 182.736 180.391 180.816 181.351L178.896 179.719C180.792 178.735 183.36 176.983 184.944 175.567ZM170.64 165.463H185.328V176.455H170.64V173.935H182.376V167.959H170.64V165.463ZM169.104 165.463H172.056V183.175L169.104 183.415V165.463ZM200.064 164.671C199.92 165.295 199.776 166.063 199.632 166.663C199.416 167.743 199.104 169.231 198.864 170.455C198.072 173.839 196.128 180.679 193.632 184.735L190.488 183.487C193.344 179.647 195.144 173.311 195.816 170.287C196.272 168.127 196.536 166.087 196.512 164.287L200.064 164.671ZM208.344 166.903C209.808 168.991 211.824 173.551 212.568 175.855L209.52 177.271C208.896 174.583 207.192 170.263 205.464 168.127L208.344 166.903ZM190.344 169.591C191.208 169.639 192.024 169.615 192.912 169.591C194.832 169.543 199.368 169.015 201.168 169.015C203.688 169.015 205.488 170.143 205.488 173.623C205.488 176.455 205.152 180.343 204.144 182.407C203.328 184.087 202.008 184.615 200.208 184.615C199.272 184.615 198.144 184.471 197.304 184.279L196.8 181.111C197.736 181.375 199.104 181.615 199.728 181.615C200.544 181.615 201.144 181.375 201.528 180.583C202.2 179.239 202.512 176.311 202.512 173.959C202.512 172.039 201.672 171.751 200.184 171.751C198.744 171.751 194.616 172.279 193.296 172.447C192.6 172.543 191.352 172.711 190.632 172.831L190.344 169.591ZM216.408 173.455C217.128 173.335 218.232 173.047 218.952 172.807C220.608 172.327 224.664 170.935 227.568 170.935C231.384 170.935 233.928 173.191 233.928 176.839C233.928 181.159 230.088 184.135 222.48 184.591L221.208 181.639C226.68 181.495 230.736 180.031 230.736 176.767C230.736 174.991 229.392 173.719 227.28 173.719C224.496 173.719 219.72 175.711 217.656 176.575L216.408 173.455ZM248.352 164.455C248.184 165.127 247.968 166.207 247.848 166.735C247.512 168.367 246.912 171.295 246.264 173.743C245.4 177.103 243.792 181.999 242.472 184.855L239.136 183.727C240.552 181.303 242.376 176.287 243.288 172.927C243.888 170.671 244.44 168.031 244.608 166.615C244.728 165.727 244.752 164.743 244.68 164.167L248.352 164.455ZM242.232 168.055C245.16 168.055 248.544 167.599 251.664 166.855V169.855C248.688 170.551 244.92 170.959 242.208 170.959C241.032 170.959 240.144 170.911 239.304 170.863L239.208 167.863C240.456 168.007 241.248 168.055 242.232 168.055ZM249.768 171.727C251.112 171.583 252.84 171.487 254.4 171.487C255.768 171.487 257.208 171.559 258.6 171.703L258.552 174.583C257.328 174.439 255.864 174.271 254.424 174.271C252.768 174.271 251.28 174.343 249.768 174.535V171.727ZM251.064 177.751C250.896 178.447 250.752 179.215 250.752 179.743C250.752 180.799 251.448 181.591 254.04 181.591C255.648 181.591 257.304 181.423 259.008 181.111L258.888 184.159C257.544 184.351 255.936 184.495 254.016 184.495C249.96 184.495 247.8 183.127 247.8 180.703C247.8 179.575 248.016 178.423 248.208 177.487L251.064 177.751ZM262.656 167.167C263.592 167.143 264.552 167.095 265.008 167.047C267 166.855 270.96 166.519 275.352 166.135C277.848 165.943 280.464 165.775 282.168 165.703L282.192 168.799C280.896 168.799 278.832 168.823 277.536 169.111C274.656 169.879 272.472 172.999 272.472 175.855C272.472 179.791 276.168 181.231 280.224 181.423L279.096 184.711C274.08 184.399 269.328 181.687 269.328 176.479C269.328 173.047 271.272 170.311 272.88 169.087C270.648 169.327 265.728 169.855 262.968 170.455L262.656 167.167ZM278.76 171.151C279.336 171.991 280.2 173.455 280.656 174.415L278.856 175.207C278.232 173.911 277.728 172.951 276.984 171.895L278.76 171.151ZM281.424 170.047C282.048 170.887 282.96 172.303 283.464 173.239L281.664 174.103C281.016 172.807 280.464 171.895 279.696 170.839L281.424 170.047ZM300.672 164.263C300.6 164.671 300.528 165.943 300.504 166.327C300.432 167.911 300.48 172.807 300.504 174.727L297.504 173.719C297.504 172.231 297.504 167.623 297.408 166.351C297.336 165.391 297.24 164.575 297.192 164.263H300.672ZM287.088 167.263C290.664 167.263 297 167.071 300 167.071C302.448 167.071 306.096 167.047 307.44 167.071L307.392 169.903C305.904 169.831 303.456 169.759 299.928 169.759C295.56 169.759 290.784 169.951 287.16 170.143L287.088 167.263ZM300.096 174.367C300.096 178.279 298.656 180.223 295.896 180.223C294.048 180.223 291.744 178.759 291.744 175.831C291.744 173.119 293.952 171.343 296.544 171.343C299.712 171.343 301.368 173.671 301.368 176.647C301.368 179.791 299.52 183.751 293.664 185.407L291.12 182.863C295.2 181.975 298.392 180.367 298.392 176.167C298.392 174.607 297.552 173.863 296.496 173.863C295.56 173.863 294.624 174.511 294.624 175.783C294.624 176.863 295.512 177.559 296.496 177.559C297.624 177.559 298.608 176.599 297.84 173.743L300.096 174.367ZM319.752 177.439L319.128 169.231L319.008 165.655H322.968L322.848 169.231L322.224 177.439H319.752ZM321 183.847C319.752 183.847 318.864 182.959 318.864 181.711C318.864 180.463 319.776 179.599 321 179.599C322.2 179.599 323.112 180.463 323.112 181.711C323.112 182.959 322.2 183.847 321 183.847Z" fill="#121212"/>
<path d="M344.26 244.425L310.928 238.607L324.031 269.74L327.467 261.079L337.479 269.075L346.574 257.69L336.562 249.694L344.26 244.425Z" fill="#FAC7E1"/>
<path d="M165 131.341L172.82 133.427L178.569 125.607L176.736 135.257L185.081 135.768L176.465 140.211V149.607L172.564 141.516L165.525 144.638L169.952 137.854L165 131.341Z" fill="#FFC930"/>
<path d="M189.081 131.341L196.901 133.427L202.65 125.607L200.818 135.257L209.163 135.768L200.546 140.211V149.607L196.645 141.516L189.607 144.638L194.033 137.854L189.081 131.341Z" fill="#FFC930"/>
<path d="M213.163 131.341L220.983 133.427L226.731 125.607L224.899 135.257L233.244 135.768L224.628 140.211V149.607L220.726 141.516L213.688 144.638L218.115 137.854L213.163 131.341Z" fill="#FFC930"/>
<path d="M101 39.4742L104.91 40.5173L107.784 36.6074L106.868 41.4324L111.041 41.6875L106.732 43.9095V48.6074L104.782 44.5618L101.263 46.1228L103.476 42.7306L101 39.4742Z" fill="white"/>
<path d="M113.041 39.4742L116.951 40.5173L119.825 36.6074L118.909 41.4324L123.081 41.6875L118.773 43.9095V48.6074L116.823 44.5618L113.303 46.1228L115.517 42.7306L113.041 39.4742Z" fill="white"/>
<path d="M125.081 39.4742L128.991 40.5173L131.866 36.6074L130.95 41.4324L135.122 41.6875L130.814 43.9095V48.6074L128.863 44.5618L125.344 46.1228L127.557 42.7306L125.081 39.4742Z" fill="white"/>
<path d="M35.7204 221.118H71.5358C73.8136 221.118 75.6684 222.973 75.6684 225.251C75.6684 227.525 73.8136 229.383 71.5358 229.383H35.7204C33.4426 229.383 31.5878 227.525 31.5878 225.251C31.5878 222.973 33.4426 221.118 35.7204 221.118Z" fill="#ED3996"/>
<path d="M36 222.474L39.9099 223.517L42.7843 219.607L41.8681 224.432L46.0407 224.687L41.7324 226.909V231.607L39.7818 227.562L36.2627 229.123L38.476 225.731L36 222.474Z" fill="white"/>
<path d="M48.0407 222.474L51.9506 223.517L54.825 219.607L53.9088 224.432L58.0814 224.687L53.7731 226.909V231.607L51.8225 227.562L48.3034 229.123L50.5167 225.731L48.0407 222.474Z" fill="white"/>
<path d="M60.0814 222.474L63.9913 223.517L66.8657 219.607L65.9495 224.432L70.1221 224.687L65.8138 226.909V231.607L63.8632 227.562L60.3441 229.123L62.5574 225.731L60.0814 222.474Z" fill="white"/>
<path d="M424 171.474L427.91 172.517L430.784 168.607L429.868 173.432L434.041 173.687L429.732 175.909V180.607L427.782 176.562L424.263 178.123L426.476 174.731L424 171.474Z" fill="#FFC930"/>
<path d="M436.041 171.474L439.951 172.517L442.825 168.607L441.909 173.432L446.081 173.687L441.773 175.909V180.607L439.823 176.562L436.303 178.123L438.517 174.731L436.041 171.474Z" fill="#FFC930"/>
<path d="M448.081 171.474L451.991 172.517L454.866 168.607L453.95 173.432L458.122 173.687L453.814 175.909V180.607L451.863 176.562L448.344 178.123L450.557 174.731L448.081 171.474Z" fill="#FFC930"/>
<rect x="30" y="235.607" width="98" height="49" rx="8" fill="white"/>
<path d="M38.208 244.927H47.52V245.999H38.208V244.927ZM36.8 254.639H49.872V255.743H36.8V254.639ZM46.816 244.927H48.112V246.367C48.112 248.223 48.112 250.287 47.568 253.407L46.24 253.279C46.816 250.319 46.816 248.159 46.816 246.367V244.927ZM62.0788 243.391H63.4068V253.183H62.0788V243.391ZM58.9748 247.471H62.3508V248.559H58.9748V247.471ZM57.5348 244.527H58.9268C58.9268 248.271 56.4628 250.927 52.3188 252.271L51.7588 251.215C55.4227 250.063 57.5348 247.887 57.5348 245.055V244.527ZM52.4468 244.527H58.4788V245.615H52.4468V244.527ZM58.0788 251.935H59.2148V252.591C59.2148 255.359 56.6868 257.231 53.7908 257.823L53.2628 256.767C55.8228 256.303 58.0788 254.703 58.0788 252.591V251.935ZM58.2708 251.935H59.4068V252.591C59.4068 254.671 61.6308 256.271 64.2068 256.735L63.6468 257.791C60.7668 257.215 58.2708 255.343 58.2708 252.591V251.935ZM66.2215 250.991H79.2935V252.079H66.2215V250.991ZM67.9175 256.447H77.8535V257.535H67.9175V256.447ZM67.9175 253.343H69.2455V256.783H67.9175V253.343ZM72.7655 243.871C75.8535 243.871 77.8535 244.959 77.8535 246.767C77.8535 248.559 75.8535 249.647 72.7655 249.647C69.6615 249.647 67.6775 248.559 67.6775 246.767C67.6775 244.959 69.6615 243.871 72.7655 243.871ZM72.7655 244.959C70.4935 244.959 69.0375 245.631 69.0375 246.767C69.0375 247.903 70.4935 248.575 72.7655 248.575C75.0375 248.575 76.4935 247.903 76.4935 246.767C76.4935 245.631 75.0375 244.959 72.7655 244.959ZM42.672 269.831H43.984V271.847H42.672V269.831ZM37.472 263.415H49.104V264.391H37.472V263.415ZM43.328 264.967C46.352 264.967 48 265.575 48 266.839C48 268.087 46.352 268.695 43.328 268.695C40.288 268.695 38.656 268.087 38.656 266.839C38.656 265.575 40.288 264.967 43.328 264.967ZM43.328 265.863C41.168 265.863 40.048 266.199 40.048 266.839C40.048 267.479 41.168 267.815 43.328 267.815C45.488 267.815 46.592 267.479 46.592 266.839C46.592 266.199 45.488 265.863 43.328 265.863ZM42.672 262.151H43.984V264.183H42.672V262.151ZM36.784 269.495H49.856V270.503H36.784V269.495ZM38.368 271.591H48.192V274.535H39.744V275.975H38.4V273.623H46.848V272.551H38.368V271.591ZM38.4 275.735H48.624V276.695H38.4V275.735ZM54.7668 270.359H56.0788V272.999H54.7668V270.359ZM60.0308 270.359H61.3428V272.999H60.0308V270.359ZM51.5028 269.783H64.6228V270.839H51.5028V269.783ZM53.1668 262.807H62.9108V266.231H54.5108V268.199H53.1988V265.271H61.5988V263.847H53.1668V262.807ZM53.1988 267.687H63.2468V268.743H53.1988V267.687ZM58.0308 272.167C61.1988 272.167 63.0388 272.983 63.0388 274.503C63.0388 276.023 61.1988 276.823 58.0308 276.823C54.8628 276.823 53.0388 276.023 53.0388 274.503C53.0388 272.983 54.8628 272.167 58.0308 272.167ZM58.0308 273.159C55.6948 273.159 54.3828 273.639 54.3828 274.503C54.3828 275.351 55.6948 275.831 58.0308 275.831C60.3668 275.831 61.6948 275.351 61.6948 274.503C61.6948 273.639 60.3668 273.159 58.0308 273.159ZM77.1495 262.407H78.4135V271.351H77.1495V262.407ZM74.7975 266.359H77.5335V267.447H74.7975V266.359ZM74.0775 262.615H75.3415V271.143H74.0775V262.615ZM66.1575 264.039H73.4855V265.095H66.1575V264.039ZM69.8375 265.815C71.6455 265.815 72.9095 266.791 72.9095 268.295C72.9095 269.799 71.6455 270.775 69.8375 270.775C68.0135 270.775 66.7495 269.799 66.7495 268.295C66.7495 266.791 68.0135 265.815 69.8375 265.815ZM69.8375 266.823C68.7015 266.823 67.9335 267.399 67.9335 268.295C67.9335 269.191 68.7015 269.783 69.8375 269.783C70.9575 269.783 71.7255 269.191 71.7255 268.295C71.7255 267.399 70.9575 266.823 69.8375 266.823ZM69.1815 262.455H70.4775V264.663H69.1815V262.455ZM70.0455 271.783H71.0695V272.279C71.0695 274.103 69.8695 275.927 67.7735 276.679L67.1495 275.687C68.9575 275.079 70.0455 273.591 70.0455 272.279V271.783ZM70.3495 271.783H71.3255V272.279C71.3255 273.671 72.1735 275.143 73.9015 275.799L73.3415 276.807C71.2775 276.039 70.3495 274.119 70.3495 272.279V271.783ZM75.3575 271.783H76.3335V272.279C76.3335 273.911 75.3895 275.975 73.3415 276.807L72.7975 275.799C74.4775 275.063 75.3575 273.479 75.3575 272.279V271.783ZM75.6295 271.783H76.6535V272.279C76.6535 273.687 77.7415 275.111 79.5655 275.687L78.9255 276.679C76.8135 275.959 75.6295 274.199 75.6295 272.279V271.783ZM90.7323 262.375H92.0763V276.871H90.7323V262.375ZM91.7563 268.087H94.4443V269.207H91.7563V268.087ZM81.5643 272.151H82.7003C85.3723 272.151 87.2443 272.055 89.4043 271.655L89.5483 272.775C87.3243 273.191 85.4203 273.271 82.7003 273.271H81.5643V272.151ZM81.5643 263.783H88.2843V264.871H82.8763V272.647H81.5643V263.783ZM97.875 263.971L97.7614 272.335H96.4432L96.3295 263.971H97.875ZM97.1023 275.698C96.822 275.698 96.5814 275.598 96.3807 275.397C96.1799 275.196 96.0795 274.956 96.0795 274.676C96.0795 274.395 96.1799 274.155 96.3807 273.954C96.5814 273.753 96.822 273.653 97.1023 273.653C97.3826 273.653 97.6231 273.753 97.8239 273.954C98.0246 274.155 98.125 274.395 98.125 274.676C98.125 274.861 98.0777 275.032 97.983 275.187C97.892 275.342 97.7689 275.467 97.6136 275.562C97.4621 275.653 97.2917 275.698 97.1023 275.698Z" fill="#121212"/>
<path d="M399.7 199.213V194.131H400.974V199.213H399.7ZM399.7 194.131C399.7 193.618 399.817 193.165 400.05 192.773C400.283 192.372 400.61 192.064 401.03 191.849C401.45 191.625 401.931 191.513 402.472 191.513V192.619C402.005 192.619 401.637 192.75 401.366 193.011C401.105 193.273 400.974 193.646 400.974 194.131H399.7ZM399.7 199.199H400.974C400.974 199.685 401.105 200.063 401.366 200.333C401.637 200.595 402.005 200.725 402.472 200.725V201.831C401.931 201.831 401.45 201.719 401.03 201.495C400.61 201.271 400.283 200.963 400.05 200.571C399.817 200.179 399.7 199.722 399.7 199.199ZM404.138 194.495C404.082 193.907 403.905 193.45 403.606 193.123C403.317 192.787 402.934 192.619 402.458 192.619V191.513C403.251 191.513 403.895 191.756 404.39 192.241C404.894 192.727 405.197 193.399 405.3 194.257L404.138 194.495ZM404.138 198.849L405.3 199.073C405.197 199.941 404.894 200.618 404.39 201.103C403.895 201.589 403.251 201.831 402.458 201.831V200.725C402.934 200.725 403.317 200.562 403.606 200.235C403.905 199.899 404.082 199.437 404.138 198.849ZM406.777 194.537L406.567 191.527H407.771L407.575 194.537H406.777ZM411.901 193.809H410.837L411.747 191.947H413.049L411.901 193.809ZM409.507 198.457V197.547H414.281V198.457H409.507ZM411.677 201.831V200.725H411.747V201.831H411.677ZM409.101 199.101V197.043H410.375V199.101H409.101ZM413.007 197.547V196.819H414.281V197.547H413.007ZM414.281 196.819H413.007C413.007 196.409 412.881 196.073 412.629 195.811C412.387 195.55 412.069 195.419 411.677 195.419V194.327C412.181 194.327 412.625 194.435 413.007 194.649C413.399 194.864 413.707 195.163 413.931 195.545C414.165 195.919 414.281 196.343 414.281 196.819ZM413.063 199.507L414.253 199.745C414.197 200.147 414.053 200.506 413.819 200.823C413.586 201.141 413.292 201.388 412.937 201.565C412.583 201.743 412.186 201.831 411.747 201.831V200.725C412.083 200.725 412.373 200.627 412.615 200.431C412.867 200.226 413.017 199.918 413.063 199.507ZM409.101 197.057C409.101 196.525 409.213 196.059 409.437 195.657C409.671 195.247 409.979 194.925 410.361 194.691C410.753 194.449 411.197 194.327 411.691 194.327V195.419C411.281 195.419 410.959 195.564 410.725 195.853C410.492 196.133 410.375 196.535 410.375 197.057H409.101ZM409.101 199.101H410.375C410.375 199.615 410.492 200.016 410.725 200.305C410.959 200.585 411.281 200.725 411.691 200.725V201.831C411.197 201.831 410.753 201.715 410.361 201.481C409.979 201.239 409.671 200.912 409.437 200.501C409.213 200.091 409.101 199.624 409.101 199.101ZM416.038 199.465V191.723L417.312 191.737V199.465H416.038ZM415.226 195.587V194.537H419.076V195.587H415.226ZM416.038 199.451H417.312C417.312 199.722 417.35 199.951 417.424 200.137C417.499 200.324 417.606 200.469 417.746 200.571C417.886 200.665 418.054 200.711 418.25 200.711L418.138 201.817C417.485 201.817 416.972 201.612 416.598 201.201C416.225 200.781 416.038 200.198 416.038 199.451ZM418.908 200.473L419.412 201.383C419.226 201.523 419.02 201.631 418.796 201.705C418.582 201.78 418.362 201.817 418.138 201.817L418.25 200.711C418.372 200.711 418.484 200.693 418.586 200.655C418.698 200.609 418.806 200.548 418.908 200.473ZM424.032 201.607V196.791H425.306V201.607H424.032ZM422.324 201.817L422.422 200.767C422.758 200.767 423.043 200.683 423.276 200.515C423.519 200.347 423.705 200.1 423.836 199.773C423.967 199.447 424.032 199.059 424.032 198.611L424.662 198.583C424.662 199.218 424.559 199.778 424.354 200.263C424.149 200.749 423.869 201.131 423.514 201.411C423.169 201.682 422.772 201.817 422.324 201.817ZM422.324 201.817C421.904 201.817 421.521 201.719 421.176 201.523C420.831 201.327 420.555 201.061 420.35 200.725C420.145 200.38 420.042 199.997 420.042 199.577L421.246 199.535C421.246 199.89 421.363 200.184 421.596 200.417C421.839 200.651 422.114 200.767 422.422 200.767L422.324 201.817ZM420.042 199.577C420.042 199.139 420.149 198.756 420.364 198.429C420.588 198.093 420.887 197.827 421.26 197.631C421.633 197.435 422.058 197.337 422.534 197.337L422.604 198.317C422.212 198.317 421.885 198.434 421.624 198.667C421.372 198.891 421.246 199.181 421.246 199.535L420.042 199.577ZM422.604 198.317L422.534 197.337H424.69V198.317H422.604ZM424.032 198.611V196.805H424.662V198.583L424.032 198.611ZM425.306 196.819H424.032C424.032 196.409 423.906 196.073 423.654 195.811C423.411 195.55 423.094 195.419 422.702 195.419V194.327C423.206 194.327 423.649 194.435 424.032 194.649C424.424 194.864 424.732 195.163 424.956 195.545C425.189 195.919 425.306 196.343 425.306 196.819ZM421.386 196.651L420.21 196.413C420.266 195.993 420.406 195.629 420.63 195.321C420.863 195.013 421.157 194.771 421.512 194.593C421.876 194.416 422.277 194.327 422.716 194.327V195.419C422.371 195.419 422.072 195.522 421.82 195.727C421.577 195.923 421.433 196.231 421.386 196.651ZM426.873 201.607V194.537H428.147V201.607H426.873ZM427.503 193.599C427.269 193.599 427.073 193.52 426.915 193.361C426.756 193.203 426.677 193.007 426.677 192.773C426.677 192.54 426.756 192.344 426.915 192.185C427.073 192.017 427.269 191.933 427.503 191.933C427.736 191.933 427.932 192.017 428.091 192.185C428.259 192.344 428.343 192.54 428.343 192.773C428.343 193.007 428.259 193.203 428.091 193.361C427.932 193.52 427.736 193.599 427.503 193.599ZM430.435 199.465V191.723L431.709 191.737V199.465H430.435ZM429.623 195.587V194.537H433.473V195.587H429.623ZM430.435 199.451H431.709C431.709 199.722 431.746 199.951 431.821 200.137C431.895 200.324 432.003 200.469 432.143 200.571C432.283 200.665 432.451 200.711 432.647 200.711L432.535 201.817C431.881 201.817 431.368 201.612 430.995 201.201C430.621 200.781 430.435 200.198 430.435 199.451ZM433.305 200.473L433.809 201.383C433.622 201.523 433.417 201.631 433.193 201.705C432.978 201.78 432.759 201.817 432.535 201.817L432.647 200.711C432.768 200.711 432.88 200.693 432.983 200.655C433.095 200.609 433.202 200.548 433.305 200.473ZM403.186 214.787C403.186 214.554 403.102 214.363 402.934 214.213C402.766 214.055 402.547 213.915 402.276 213.793C402.015 213.663 401.735 213.532 401.436 213.401C401.147 213.271 400.867 213.121 400.596 212.953C400.335 212.776 400.12 212.557 399.952 212.295C399.784 212.025 399.7 211.698 399.7 211.315C399.7 211.315 399.737 211.315 399.812 211.315C399.896 211.315 399.999 211.315 400.12 211.315C400.251 211.315 400.377 211.315 400.498 211.315C400.619 211.315 400.722 211.315 400.806 211.315C400.89 211.315 400.932 211.315 400.932 211.315C400.932 211.549 401.016 211.745 401.184 211.903C401.352 212.053 401.567 212.188 401.828 212.309C402.099 212.431 402.383 212.561 402.682 212.701C402.981 212.832 403.261 212.986 403.522 213.163C403.783 213.341 403.998 213.56 404.166 213.821C404.343 214.073 404.432 214.395 404.432 214.787C404.432 214.787 404.39 214.787 404.306 214.787C404.222 214.787 404.115 214.787 403.984 214.787C403.863 214.787 403.741 214.787 403.62 214.787C403.499 214.787 403.396 214.787 403.312 214.787C403.228 214.787 403.186 214.787 403.186 214.787ZM401.996 216.817V215.711C402.341 215.711 402.626 215.627 402.85 215.459C403.074 215.282 403.186 215.058 403.186 214.787H404.432C404.432 215.179 404.325 215.529 404.11 215.837C403.905 216.145 403.62 216.388 403.256 216.565C402.892 216.733 402.472 216.817 401.996 216.817ZM399.7 211.315C399.7 210.933 399.793 210.592 399.98 210.293C400.176 209.985 400.447 209.747 400.792 209.579C401.137 209.402 401.52 209.313 401.94 209.313V210.419C401.651 210.419 401.408 210.503 401.212 210.671C401.025 210.839 400.932 211.054 400.932 211.315H399.7ZM400.666 214.493C400.713 214.904 400.862 215.212 401.114 215.417C401.366 215.613 401.66 215.711 401.996 215.711V216.817C401.567 216.817 401.17 216.729 400.806 216.551C400.442 216.374 400.143 216.127 399.91 215.809C399.686 215.492 399.546 215.133 399.49 214.731L400.666 214.493ZM403.256 211.637C403.209 211.217 403.06 210.909 402.808 210.713C402.565 210.517 402.276 210.419 401.94 210.419V209.313C402.379 209.313 402.775 209.402 403.13 209.579C403.485 209.757 403.779 210.004 404.012 210.321C404.245 210.629 404.39 210.989 404.446 211.399L403.256 211.637ZM410.731 209.537V216.607H409.457V209.537H410.731ZM406.797 209.537V214.353H405.523V209.537H406.797ZM406.797 214.353C406.797 214.745 406.918 215.067 407.161 215.319C407.413 215.562 407.73 215.683 408.113 215.683L407.791 216.817C407.352 216.817 406.96 216.71 406.615 216.495C406.279 216.281 406.013 215.987 405.817 215.613C405.621 215.24 405.523 214.82 405.523 214.353H406.797ZM410.017 214.311C410.017 214.787 409.919 215.217 409.723 215.599C409.536 215.973 409.27 216.271 408.925 216.495C408.589 216.71 408.211 216.817 407.791 216.817L408.113 215.683C408.505 215.683 408.827 215.557 409.079 215.305C409.331 215.053 409.457 214.722 409.457 214.311H410.017ZM412.404 216.593H413.678V219.407H412.404V216.593ZM413.678 209.537V216.607H412.404V209.537H413.678ZM417.612 211.791V214.353H416.338V211.791H417.612ZM416.338 214.353H417.612C417.612 214.82 417.514 215.24 417.318 215.613C417.122 215.987 416.852 216.281 416.506 216.495C416.17 216.71 415.788 216.817 415.358 216.817L415.036 215.683C415.419 215.683 415.732 215.562 415.974 215.319C416.217 215.067 416.338 214.745 416.338 214.353ZM413.118 214.311H413.678C413.678 214.722 413.804 215.053 414.056 215.305C414.308 215.557 414.635 215.683 415.036 215.683L415.358 216.817C414.929 216.817 414.546 216.71 414.21 216.495C413.874 216.271 413.608 215.973 413.412 215.599C413.216 215.217 413.118 214.787 413.118 214.311ZM416.338 211.791C416.338 211.399 416.217 211.082 415.974 210.839C415.732 210.587 415.419 210.461 415.036 210.461L415.358 209.327C415.788 209.327 416.17 209.435 416.506 209.649C416.852 209.864 417.122 210.158 417.318 210.531C417.514 210.905 417.612 211.325 417.612 211.791H416.338ZM413.118 211.819C413.118 211.343 413.216 210.919 413.412 210.545C413.608 210.163 413.874 209.864 414.21 209.649C414.546 209.435 414.929 209.327 415.358 209.327L415.036 210.461C414.635 210.461 414.308 210.587 414.056 210.839C413.804 211.091 413.678 211.418 413.678 211.819H413.118ZM419.187 213.457V212.547H423.961V213.457H419.187ZM421.357 216.831V215.725H421.427V216.831H421.357ZM418.781 214.101V212.043H420.055V214.101H418.781ZM422.687 212.547V211.819H423.961V212.547H422.687ZM423.961 211.819H422.687C422.687 211.409 422.561 211.073 422.309 210.811C422.066 210.55 421.749 210.419 421.357 210.419V209.327C421.861 209.327 422.304 209.435 422.687 209.649C423.079 209.864 423.387 210.163 423.611 210.545C423.844 210.919 423.961 211.343 423.961 211.819ZM422.743 214.507L423.933 214.745C423.877 215.147 423.732 215.506 423.499 215.823C423.266 216.141 422.972 216.388 422.617 216.565C422.262 216.743 421.866 216.831 421.427 216.831V215.725C421.763 215.725 422.052 215.627 422.295 215.431C422.547 215.226 422.696 214.918 422.743 214.507ZM418.781 212.057C418.781 211.525 418.893 211.059 419.117 210.657C419.35 210.247 419.658 209.925 420.041 209.691C420.433 209.449 420.876 209.327 421.371 209.327V210.419C420.96 210.419 420.638 210.564 420.405 210.853C420.172 211.133 420.055 211.535 420.055 212.057H418.781ZM418.781 214.101H420.055C420.055 214.615 420.172 215.016 420.405 215.305C420.638 215.585 420.96 215.725 421.371 215.725V216.831C420.876 216.831 420.433 216.715 420.041 216.481C419.658 216.239 419.35 215.912 419.117 215.501C418.893 215.091 418.781 214.624 418.781 214.101ZM425.256 216.607V209.537H426.53V216.607H425.256ZM425.956 211.945C425.956 211.46 426.04 211.021 426.208 210.629C426.385 210.237 426.623 209.934 426.922 209.719C427.221 209.495 427.557 209.383 427.93 209.383L427.65 210.573C427.323 210.573 427.053 210.704 426.838 210.965C426.633 211.217 426.53 211.544 426.53 211.945H425.956ZM428.546 210.951C428.406 210.83 428.257 210.737 428.098 210.671C427.949 210.606 427.799 210.573 427.65 210.573L427.93 209.383C428.145 209.383 428.345 209.421 428.532 209.495C428.719 209.561 428.905 209.682 429.092 209.859L428.546 210.951ZM430.455 213.653L430.343 206.737H431.617L431.491 213.653H430.455ZM430.973 216.663C430.74 216.663 430.544 216.584 430.385 216.425C430.227 216.267 430.147 216.071 430.147 215.837C430.147 215.604 430.227 215.408 430.385 215.249C430.544 215.081 430.74 214.997 430.973 214.997C431.207 214.997 431.403 215.081 431.561 215.249C431.729 215.408 431.813 215.604 431.813 215.837C431.813 216.071 431.729 216.267 431.561 216.425C431.403 216.584 431.207 216.663 430.973 216.663Z" fill="#121212"/>
<defs>
<filter id="filter0_d_168_473" x="156.928" y="196.607" width="192" height="59" filterUnits="userSpaceOnUse" color-interpolation-filters="sRGB">
<feFlood flood-opacity="0" result="BackgroundImageFix"/>
<feColorMatrix in="SourceAlpha" type="matrix" values="0 0 0 0 0 0 0 0 0 0 0 0 0 0 0 0 0 0 127 0" result="hardAlpha"/>
<feOffset dy="4"/>
<feGaussianBlur stdDeviation="4"/>
<feComposite in2="hardAlpha" operator="out"/>
<feColorMatrix type="matrix" values="0 0 0 0 0 0 0 0 0 0 0 0 0 0 0 0 0 0 0.25 0"/>
<feBlend mode="normal" in2="BackgroundImageFix" result="effect1_dropShadow_168_473"/>
<feBlend mode="normal" in="SourceGraphic" in2="effect1_dropShadow_168_473" result="shape"/>
</filter>
</defs>
</svg>
